<?xml version="1.0" encoding="UTF-8" standalone="no"?>
<!DOCTYPE svg PUBLIC "-//W3C//DTD SVG 1.1//EN"
 "http://www.w3.org/Graphics/SVG/1.1/DTD/svg11.dtd">
<!-- Generated by graphviz version 2.26.3 (20100126.1600)
 -->
<!-- Title: g Pages: 1 -->
<svg width="504pt" height="310pt"
 viewBox="0.00 0.00 504.00 310.43" xmlns="http://www.w3.org/2000/svg" xmlns:xlink="http://www.w3.org/1999/xlink">
<g id="graph1" class="graph" transform="scale(0.892035 0.892035) rotate(0) translate(4 344)">
<title>g</title>
<polygon fill="white" stroke="white" points="-4,5 -4,-344 562,-344 562,5 -4,5"/>
<!-- N1 -->
<g id="node1" class="node"><title>N1</title>
<polygon fill="#ffffff" stroke="#ffffff" stroke-width="1.5" points="179,-1 231,-1 243,-13 243,-25 231,-37 179,-37 167,-25 167,-13 179,-1"/>
<path fill="#ffffff" stroke="#ffffff" stroke-width="1.5" d="M231,-1C237,-1 243,-7 243,-13"/>
<path fill="#ffffff" stroke="#ffffff" stroke-width="1.5" d="M243,-25C243,-31 237,-37 231,-37"/>
<path fill="#ffffff" stroke="#ffffff" stroke-width="1.5" d="M179,-37C173,-37 167,-31 167,-25"/>
<path fill="#ffffff" stroke="#ffffff" stroke-width="1.5" d="M167,-13C167,-7 173,-1 179,-1"/>
<polyline fill="none" stroke="#2e3436" stroke-width="1.5" points="179,-1 231,-1 "/>
<path fill="none" stroke="#2e3436" stroke-width="1.5" d="M231,-1C237,-1 243,-7 243,-13"/>
<polyline fill="none" stroke="#2e3436" stroke-width="1.5" points="243,-13 243,-25 "/>
<path fill="none" stroke="#2e3436" stroke-width="1.5" d="M243,-25C243,-31 237,-37 231,-37"/>
<polyline fill="none" stroke="#2e3436" stroke-width="1.5" points="231,-37 179,-37 "/>
<path fill="none" stroke="#2e3436" stroke-width="1.5" d="M179,-37C173,-37 167,-31 167,-25"/>
<polyline fill="none" stroke="#2e3436" stroke-width="1.5" points="167,-25 167,-13 "/>
<path fill="none" stroke="#2e3436" stroke-width="1.5" d="M167,-13C167,-7 173,-1 179,-1"/>
<text text-anchor="start" x="175" y="-16.8" font-family="FreeSans" font-size="8.00" fill="#1c2021">name = &#39;CNN&#39;</text>
</g>
<!-- N2 -->
<g id="node2" class="node"><title>N2</title>
<polygon fill="#ffffff" stroke="#ffffff" stroke-width="1.5" points="349.5,-1 432.5,-1 444.5,-13 444.5,-25 432.5,-37 349.5,-37 337.5,-25 337.5,-13 349.5,-1"/>
<path fill="#ffffff" stroke="#ffffff" stroke-width="1.5" d="M432.5,-1C438.5,-1 444.5,-7 444.5,-13"/>
<path fill="#ffffff" stroke="#ffffff" stroke-width="1.5" d="M444.5,-25C444.5,-31 438.5,-37 432.5,-37"/>
<path fill="#ffffff" stroke="#ffffff" stroke-width="1.5" d="M349.5,-37C343.5,-37 337.5,-31 337.5,-25"/>
<path fill="#ffffff" stroke="#ffffff" stroke-width="1.5" d="M337.5,-13C337.5,-7 343.5,-1 349.5,-1"/>
<polyline fill="none" stroke="#2e3436" stroke-width="1.5" points="349.5,-1 432.5,-1 "/>
<path fill="none" stroke="#2e3436" stroke-width="1.5" d="M432.5,-1C438.5,-1 444.5,-7 444.5,-13"/>
<polyline fill="none" stroke="#2e3436" stroke-width="1.5" points="444.5,-13 444.5,-25 "/>
<path fill="none" stroke="#2e3436" stroke-width="1.5" d="M444.5,-25C444.5,-31 438.5,-37 432.5,-37"/>
<polyline fill="none" stroke="#2e3436" stroke-width="1.5" points="432.5,-37 349.5,-37 "/>
<path fill="none" stroke="#2e3436" stroke-width="1.5" d="M349.5,-37C343.5,-37 337.5,-31 337.5,-25"/>
<polyline fill="none" stroke="#2e3436" stroke-width="1.5" points="337.5,-25 337.5,-13 "/>
<path fill="none" stroke="#2e3436" stroke-width="1.5" d="M337.5,-13C337.5,-7 343.5,-1 349.5,-1"/>
<text text-anchor="start" x="345.5" y="-16.8" font-family="FreeSans" font-size="8.00" fill="#1c2021">name = &#39;Daily Planet&#39;</text>
</g>
<!-- N3 -->
<g id="node3" class="node"><title>N3</title>
<polygon fill="#ffffff" stroke="#ffffff" stroke-width="1.5" points="12,-105 120,-105 132,-117 132,-129 120,-141 12,-141 0,-129 0,-117 12,-105"/>
<path fill="#ffffff" stroke="#ffffff" stroke-width="1.5" d="M120,-105C126,-105 132,-111 132,-117"/>
<path fill="#ffffff" stroke="#ffffff" stroke-width="1.5" d="M132,-129C132,-135 126,-141 120,-141"/>
<path fill="#ffffff" stroke="#ffffff" stroke-width="1.5" d="M12,-141C6,-141 0,-135 0,-129"/>
<path fill="#ffffff" stroke="#ffffff" stroke-width="1.5" d="M0,-117C0,-111 6,-105 12,-105"/>
<polyline fill="none" stroke="#2e3436" stroke-width="1.5" points="12,-105 120,-105 "/>
<path fill="none" stroke="#2e3436" stroke-width="1.5" d="M120,-105C126,-105 132,-111 132,-117"/>
<polyline fill="none" stroke="#2e3436" stroke-width="1.5" points="132,-117 132,-129 "/>
<path fill="none" stroke="#2e3436" stroke-width="1.5" d="M132,-129C132,-135 126,-141 120,-141"/>
<polyline fill="none" stroke="#2e3436" stroke-width="1.5" points="120,-141 12,-141 "/>
<path fill="none" stroke="#2e3436" stroke-width="1.5" d="M12,-141C6,-141 0,-135 0,-129"/>
<polyline fill="none" stroke="#2e3436" stroke-width="1.5" points="0,-129 0,-117 "/>
<path fill="none" stroke="#2e3436" stroke-width="1.5" d="M0,-117C0,-111 6,-105 12,-105"/>
<text text-anchor="start" x="8" y="-120.8" font-family="FreeSans" font-size="8.00" fill="#1c2021">name = &#39;Anderson Cooper&#39;</text>
</g>
<!-- N3&#45;&gt;N1 -->
<g id="edge2" class="edge"><title>N3&#45;&gt;N1</title>
<path fill="none" stroke="#2e3436" stroke-width="2" d="M77.1382,-104.744C86.9102,-89.9803 102.299,-69.4979 120,-56 131.879,-46.9415 146.318,-39.5876 159.9,-33.8932"/>
<polygon fill="#2e3436" stroke="#2e3436" points="166.905,-31.0664 161.213,-37.0027 163.615,-32.9333 160.137,-34.3365 159.95,-33.8728 159.763,-33.4092 163.241,-32.006 158.687,-30.743 166.905,-31.0664 166.905,-31.0664"/>
<text text-anchor="middle" x="144" y="-78.8" font-family="FreeSans" font-size="8.00" fill="#2e3436">WORKSAT</text>
<text text-anchor="start" x="120" y="-68.8" font-family="FreeSans" font-size="8.00" fill="#2e3436">weight = 2</text>
<text text-anchor="start" x="120" y="-58.8" font-family="FreeSans" font-size="8.00" fill="#2e3436">activity = 2</text>
</g>
<!-- N4 -->
<g id="node5" class="node"><title>N4</title>
<polygon fill="#ffffff" stroke="#ffffff" stroke-width="1.5" points="284,-105 366,-105 378,-117 378,-129 366,-141 284,-141 272,-129 272,-117 284,-105"/>
<path fill="#ffffff" stroke="#ffffff" stroke-width="1.5" d="M366,-105C372,-105 378,-111 378,-117"/>
<path fill="#ffffff" stroke="#ffffff" stroke-width="1.5" d="M378,-129C378,-135 372,-141 366,-141"/>
<path fill="#ffffff" stroke="#ffffff" stroke-width="1.5" d="M284,-141C278,-141 272,-135 272,-129"/>
<path fill="#ffffff" stroke="#ffffff" stroke-width="1.5" d="M272,-117C272,-111 278,-105 284,-105"/>
<polyline fill="none" stroke="#2e3436" stroke-width="1.5" points="284,-105 366,-105 "/>
<path fill="none" stroke="#2e3436" stroke-width="1.5" d="M366,-105C372,-105 378,-111 378,-117"/>
<polyline fill="none" stroke="#2e3436" stroke-width="1.5" points="378,-117 378,-129 "/>
<path fill="none" stroke="#2e3436" stroke-width="1.5" d="M378,-129C378,-135 372,-141 366,-141"/>
<polyline fill="none" stroke="#2e3436" stroke-width="1.5" points="366,-141 284,-141 "/>
<path fill="none" stroke="#2e3436" stroke-width="1.5" d="M284,-141C278,-141 272,-135 272,-129"/>
<polyline fill="none" stroke="#2e3436" stroke-width="1.5" points="272,-129 272,-117 "/>
<path fill="none" stroke="#2e3436" stroke-width="1.5" d="M272,-117C272,-111 278,-105 284,-105"/>
<text text-anchor="start" x="280" y="-120.8" font-family="FreeSans" font-size="8.00" fill="#1c2021">name = &#39;Perry White&#39;</text>
</g>
<!-- N4&#45;&gt;N1 -->
<g id="edge6" class="edge"><title>N4&#45;&gt;N1</title>
<path fill="none" stroke="#2e3436" stroke-width="2" d="M304.098,-104.885C284.088,-87.5429 253.803,-61.2957 231.981,-42.3831"/>
<polygon fill="#2e3436" stroke="#2e3436" points="226.066,-37.2568 233.944,-39.6183 229.227,-39.3349 232.061,-41.7909 231.733,-42.1688 231.406,-42.5466 228.572,-40.0906 229.523,-44.7192 226.066,-37.2568 226.066,-37.2568"/>
<text text-anchor="middle" x="303" y="-78.8" font-family="FreeSans" font-size="8.00" fill="#2e3436">WORKSAT</text>
<text text-anchor="start" x="279" y="-68.8" font-family="FreeSans" font-size="8.00" fill="#2e3436">weight = 2</text>
<text text-anchor="start" x="279" y="-58.8" font-family="FreeSans" font-size="8.00" fill="#2e3436">activity = 3</text>
</g>
<!-- N4&#45;&gt;N2 -->
<g id="edge4" class="edge"><title>N4&#45;&gt;N2</title>
<path fill="none" stroke="#2e3436" stroke-width="2" d="M335.746,-104.948C343.892,-91.3841 355.449,-72.4001 366,-56 368.587,-51.9781 371.38,-47.7461 374.127,-43.6388"/>
<polygon fill="#2e3436" stroke="#2e3436" points="378.373,-37.3351 376.983,-45.4411 376.693,-40.7247 374.598,-43.835 374.183,-43.5557 373.769,-43.2763 375.864,-40.1661 371.384,-41.6702 378.373,-37.3351 378.373,-37.3351"/>
<text text-anchor="middle" x="390" y="-78.8" font-family="FreeSans" font-size="8.00" fill="#2e3436">WORKSAT</text>
<text text-anchor="start" x="366" y="-68.8" font-family="FreeSans" font-size="8.00" fill="#2e3436">weight = 2</text>
<text text-anchor="start" x="366" y="-58.8" font-family="FreeSans" font-size="8.00" fill="#2e3436">activity = 6</text>
</g>
<!-- N5 -->
<g id="node8" class="node"><title>N5</title>
<polygon fill="#ffffff" stroke="#ffffff" stroke-width="1.5" points="367.5,-209 454.5,-209 466.5,-221 466.5,-233 454.5,-245 367.5,-245 355.5,-233 355.5,-221 367.5,-209"/>
<path fill="#ffffff" stroke="#ffffff" stroke-width="1.5" d="M454.5,-209C460.5,-209 466.5,-215 466.5,-221"/>
<path fill="#ffffff" stroke="#ffffff" stroke-width="1.5" d="M466.5,-233C466.5,-239 460.5,-245 454.5,-245"/>
<path fill="#ffffff" stroke="#ffffff" stroke-width="1.5" d="M367.5,-245C361.5,-245 355.5,-239 355.5,-233"/>
<path fill="#ffffff" stroke="#ffffff" stroke-width="1.5" d="M355.5,-221C355.5,-215 361.5,-209 367.5,-209"/>
<polyline fill="none" stroke="#2e3436" stroke-width="1.5" points="367.5,-209 454.5,-209 "/>
<path fill="none" stroke="#2e3436" stroke-width="1.5" d="M454.5,-209C460.5,-209 466.5,-215 466.5,-221"/>
<polyline fill="none" stroke="#2e3436" stroke-width="1.5" points="466.5,-221 466.5,-233 "/>
<path fill="none" stroke="#2e3436" stroke-width="1.5" d="M466.5,-233C466.5,-239 460.5,-245 454.5,-245"/>
<polyline fill="none" stroke="#2e3436" stroke-width="1.5" points="454.5,-245 367.5,-245 "/>
<path fill="none" stroke="#2e3436" stroke-width="1.5" d="M367.5,-245C361.5,-245 355.5,-239 355.5,-233"/>
<polyline fill="none" stroke="#2e3436" stroke-width="1.5" points="355.5,-233 355.5,-221 "/>
<path fill="none" stroke="#2e3436" stroke-width="1.5" d="M355.5,-221C355.5,-215 361.5,-209 367.5,-209"/>
<text text-anchor="start" x="363.5" y="-224.8" font-family="FreeSans" font-size="8.00" fill="#1c2021">name = &#39;Jimmy Olsen&#39;</text>
</g>
<!-- N5&#45;&gt;N2 -->
<g id="edge10" class="edge"><title>N5&#45;&gt;N2</title>
<path fill="none" stroke="#2e3436" stroke-width="2" d="M415.496,-208.992C422.59,-177.225 433.928,-109.531 417,-56 415.666,-51.78 413.658,-47.6243 411.338,-43.7092"/>
<polygon fill="#2e3436" stroke="#2e3436" points="407.204,-37.3788 414.131,-41.8127 409.673,-40.2451 411.724,-43.3848 411.305,-43.6582 410.887,-43.9316 408.836,-40.7919 408.479,-45.5037 407.204,-37.3788 407.204,-37.3788"/>
<text text-anchor="middle" x="451.5" y="-130.8" font-family="FreeSans" font-size="8.00" fill="#2e3436">WORKSAT</text>
<text text-anchor="start" x="425" y="-120.8" font-family="FreeSans" font-size="8.00" fill="#2e3436">weight = 2</text>
<text text-anchor="start" x="425" y="-110.8" font-family="FreeSans" font-size="8.00" fill="#2e3436">activity = 10</text>
</g>
<!-- N5&#45;&gt;N4 -->
<g id="edge8" class="edge"><title>N5&#45;&gt;N4</title>
<path fill="none" stroke="#4e9a06" stroke-width="2" d="M387.541,-208.943C380.855,-203.25 373.814,-196.69 368,-190 356.728,-177.029 346.263,-160.854 338.479,-147.647"/>
<polygon fill="#4e9a06" stroke="#4e9a06" points="334.663,-141.043 341.338,-145.848 336.972,-144.04 338.849,-147.287 338.416,-147.537 337.983,-147.787 336.107,-144.54 335.494,-149.226 334.663,-141.043 334.663,-141.043"/>
<text text-anchor="middle" x="391" y="-177.8" font-family="FreeSans" font-size="8.00" fill="#4e9a06">KNOWS</text>
<text text-anchor="start" x="368" y="-167.8" font-family="FreeSans" font-size="8.00" fill="#4e9a06">weight = 4</text>
</g>
<!-- N6 -->
<g id="node11" class="node"><title>N6</title>
<polygon fill="#ffffff" stroke="#ffffff" stroke-width="1.5" points="185,-209 259,-209 271,-221 271,-233 259,-245 185,-245 173,-233 173,-221 185,-209"/>
<path fill="#ffffff" stroke="#ffffff" stroke-width="1.5" d="M259,-209C265,-209 271,-215 271,-221"/>
<path fill="#ffffff" stroke="#ffffff" stroke-width="1.5" d="M271,-233C271,-239 265,-245 259,-245"/>
<path fill="#ffffff" stroke="#ffffff" stroke-width="1.5" d="M185,-245C179,-245 173,-239 173,-233"/>
<path fill="#ffffff" stroke="#ffffff" stroke-width="1.5" d="M173,-221C173,-215 179,-209 185,-209"/>
<polyline fill="none" stroke="#2e3436" stroke-width="1.5" points="185,-209 259,-209 "/>
<path fill="none" stroke="#2e3436" stroke-width="1.5" d="M259,-209C265,-209 271,-215 271,-221"/>
<polyline fill="none" stroke="#2e3436" stroke-width="1.5" points="271,-221 271,-233 "/>
<path fill="none" stroke="#2e3436" stroke-width="1.5" d="M271,-233C271,-239 265,-245 259,-245"/>
<polyline fill="none" stroke="#2e3436" stroke-width="1.5" points="259,-245 185,-245 "/>
<path fill="none" stroke="#2e3436" stroke-width="1.5" d="M185,-245C179,-245 173,-239 173,-233"/>
<polyline fill="none" stroke="#2e3436" stroke-width="1.5" points="173,-233 173,-221 "/>
<path fill="none" stroke="#2e3436" stroke-width="1.5" d="M173,-221C173,-215 179,-209 185,-209"/>
<text text-anchor="start" x="181" y="-224.8" font-family="FreeSans" font-size="8.00" fill="#1c2021">name = &#39;Lois Lane&#39;</text>
</g>
<!-- N6&#45;&gt;N2 -->
<g id="edge16" class="edge"><title>N6&#45;&gt;N2</title>
<path fill="none" stroke="#2e3436" stroke-width="2" d="M214.405,-208.97C205.243,-184.533 192.533,-139.834 205,-104 213.941,-78.3016 220.138,-70.7532 243,-56 268.842,-39.324 301.692,-30.1636 329.875,-25.1318"/>
<polygon fill="#2e3436" stroke="#2e3436" points="337.31,-23.8793 330.475,-28.4533 333.696,-24.9953 329.998,-25.6183 329.915,-25.1252 329.832,-24.6322 333.53,-24.0092 329.354,-21.7971 337.31,-23.8793 337.31,-23.8793"/>
<text text-anchor="middle" x="231.5" y="-130.8" font-family="FreeSans" font-size="8.00" fill="#2e3436">WORKSAT</text>
<text text-anchor="start" x="205" y="-120.8" font-family="FreeSans" font-size="8.00" fill="#2e3436">weight = 2</text>
<text text-anchor="start" x="205" y="-110.8" font-family="FreeSans" font-size="8.00" fill="#2e3436">activity = 56</text>
</g>
<!-- N6&#45;&gt;N3 -->
<g id="edge14" class="edge"><title>N6&#45;&gt;N3</title>
<path fill="none" stroke="#4e9a06" stroke-width="2" d="M172.96,-214.502C155.878,-208.733 137.201,-200.726 122,-190 105.888,-178.631 91.6909,-161.517 81.6231,-147.432"/>
<polygon fill="#4e9a06" stroke="#4e9a06" points="77.2958,-141.205 84.3473,-145.438 79.8464,-143.999 81.9864,-147.079 81.5758,-147.364 81.1652,-147.649 79.0252,-144.57 78.8043,-149.29 77.2958,-141.205 77.2958,-141.205"/>
<text text-anchor="middle" x="145" y="-177.8" font-family="FreeSans" font-size="8.00" fill="#4e9a06">KNOWS</text>
<text text-anchor="start" x="122" y="-167.8" font-family="FreeSans" font-size="8.00" fill="#4e9a06">weight = 4</text>
</g>
<!-- N6&#45;&gt;N4 -->
<g id="edge12" class="edge"><title>N6&#45;&gt;N4</title>
<path fill="none" stroke="#4e9a06" stroke-width="2" d="M239.941,-208.885C256.969,-191.691 282.667,-165.744 301.36,-146.87"/>
<polygon fill="#4e9a06" stroke="#4e9a06" points="306.919,-141.257 304.039,-148.961 304.635,-144.273 301.996,-146.938 301.641,-146.586 301.286,-146.234 303.925,-143.569 299.243,-144.211 306.919,-141.257 306.919,-141.257"/>
<text text-anchor="middle" x="308" y="-177.8" font-family="FreeSans" font-size="8.00" fill="#4e9a06">KNOWS</text>
<text text-anchor="start" x="285" y="-167.8" font-family="FreeSans" font-size="8.00" fill="#4e9a06">weight = 4</text>
</g>
<!-- N7 -->
<g id="node15" class="node"><title>N7</title>
<polygon fill="#ffffff" stroke="#ffffff" stroke-width="1.5" points="372.5,-303 449.5,-303 461.5,-315 461.5,-327 449.5,-339 372.5,-339 360.5,-327 360.5,-315 372.5,-303"/>
<path fill="#ffffff" stroke="#ffffff" stroke-width="1.5" d="M449.5,-303C455.5,-303 461.5,-309 461.5,-315"/>
<path fill="#ffffff" stroke="#ffffff" stroke-width="1.5" d="M461.5,-327C461.5,-333 455.5,-339 449.5,-339"/>
<path fill="#ffffff" stroke="#ffffff" stroke-width="1.5" d="M372.5,-339C366.5,-339 360.5,-333 360.5,-327"/>
<path fill="#ffffff" stroke="#ffffff" stroke-width="1.5" d="M360.5,-315C360.5,-309 366.5,-303 372.5,-303"/>
<polyline fill="none" stroke="#2e3436" stroke-width="1.5" points="372.5,-303 449.5,-303 "/>
<path fill="none" stroke="#2e3436" stroke-width="1.5" d="M449.5,-303C455.5,-303 461.5,-309 461.5,-315"/>
<polyline fill="none" stroke="#2e3436" stroke-width="1.5" points="461.5,-315 461.5,-327 "/>
<path fill="none" stroke="#2e3436" stroke-width="1.5" d="M461.5,-327C461.5,-333 455.5,-339 449.5,-339"/>
<polyline fill="none" stroke="#2e3436" stroke-width="1.5" points="449.5,-339 372.5,-339 "/>
<path fill="none" stroke="#2e3436" stroke-width="1.5" d="M372.5,-339C366.5,-339 360.5,-333 360.5,-327"/>
<polyline fill="none" stroke="#2e3436" stroke-width="1.5" points="360.5,-327 360.5,-315 "/>
<path fill="none" stroke="#2e3436" stroke-width="1.5" d="M360.5,-315C360.5,-309 366.5,-303 372.5,-303"/>
<text text-anchor="start" x="368.5" y="-318.8" font-family="FreeSans" font-size="8.00" fill="#1c2021">name = &#39;Clark Kent&#39;</text>
</g>
<!-- N7&#45;&gt;N2 -->
<g id="edge22" class="edge"><title>N7&#45;&gt;N2</title>
<path fill="none" stroke="#2e3436" stroke-width="2" d="M442.766,-302.98C450.406,-297.59 458.064,-291.178 464,-284 515.33,-221.933 513.769,-179.229 485,-104 474.887,-77.5539 451.188,-56.217 430.118,-41.5355"/>
<polygon fill="#2e3436" stroke="#2e3436" points="423.681,-37.1945 431.786,-38.5899 427.069,-38.8768 430.179,-40.9735 429.899,-41.3881 429.619,-41.8026 426.51,-39.7058 428.012,-44.1862 423.681,-37.1945 423.681,-37.1945"/>
<text text-anchor="middle" x="530.5" y="-182.8" font-family="FreeSans" font-size="8.00" fill="#2e3436">WORKSAT</text>
<text text-anchor="start" x="504" y="-172.8" font-family="FreeSans" font-size="8.00" fill="#2e3436">weight = 2</text>
<text text-anchor="start" x="504" y="-162.8" font-family="FreeSans" font-size="8.00" fill="#2e3436">activity = 45</text>
</g>
<!-- N7&#45;&gt;N5 -->
<g id="edge20" class="edge"><title>N7&#45;&gt;N5</title>
<path fill="none" stroke="#4e9a06" stroke-width="2" d="M411,-302.876C411,-288.701 411,-268.806 411,-252.944"/>
<polygon fill="#4e9a06" stroke="#4e9a06" points="411,-245.069 414.375,-252.568 411.5,-248.818 411.5,-252.568 411,-252.569 410.5,-252.569 410.5,-248.819 407.625,-252.569 411,-245.069 411,-245.069"/>
<text text-anchor="middle" x="434" y="-276.8" font-family="FreeSans" font-size="8.00" fill="#4e9a06">KNOWS</text>
<text text-anchor="start" x="411" y="-266.8" font-family="FreeSans" font-size="8.00" fill="#4e9a06">weight = 4</text>
</g>
<!-- N7&#45;&gt;N6 -->
<g id="edge18" class="edge"><title>N7&#45;&gt;N6</title>
<path fill="none" stroke="#4e9a06" stroke-width="2" d="M374.559,-302.876C343.314,-287.336 298.243,-264.92 265.191,-248.481"/>
<polygon fill="#4e9a06" stroke="#4e9a06" points="258.329,-245.069 266.548,-245.387 261.91,-246.291 265.267,-247.961 265.045,-248.408 264.822,-248.856 261.464,-247.186 263.542,-251.43 258.329,-245.069 258.329,-245.069"/>
<text text-anchor="middle" x="356" y="-276.8" font-family="FreeSans" font-size="8.00" fill="#4e9a06">KNOWS</text>
<text text-anchor="start" x="333" y="-266.8" font-family="FreeSans" font-size="8.00" fill="#4e9a06">weight = 4</text>
</g>
</g>
</svg>
