<?xml version="1.0" encoding="UTF-8" standalone="no"?>
<!DOCTYPE svg PUBLIC "-//W3C//DTD SVG 1.1//EN"
 "http://www.w3.org/Graphics/SVG/1.1/DTD/svg11.dtd">
<!-- Generated by graphviz version 2.26.3 (20100126.1600)
 -->
<!-- Title: g Pages: 1 -->
<svg width="324pt" height="160pt"
 viewBox="0.00 0.00 324.00 160.00" xmlns="http://www.w3.org/2000/svg" xmlns:xlink="http://www.w3.org/1999/xlink">
<g id="graph1" class="graph" transform="scale(1 1) rotate(0) translate(4 156)">
<title>g</title>
<polygon fill="white" stroke="white" points="-4,5 -4,-156 321,-156 321,5 -4,5"/>
<!-- N1 -->
<g id="node1" class="node"><title>N1</title>
<polygon fill="#ffffff" stroke="#ffffff" stroke-width="1.5" points="12,-6 74,-6 86,-18 86,-40 74,-52 12,-52 0,-40 0,-18 12,-6"/>
<path fill="#ffffff" stroke="#ffffff" stroke-width="1.5" d="M74,-6C80,-6 86,-12 86,-18"/>
<path fill="#ffffff" stroke="#ffffff" stroke-width="1.5" d="M86,-40C86,-46 80,-52 74,-52"/>
<path fill="#ffffff" stroke="#ffffff" stroke-width="1.5" d="M12,-52C6,-52 0,-46 0,-40"/>
<path fill="#ffffff" stroke="#ffffff" stroke-width="1.5" d="M0,-18C0,-12 6,-6 12,-6"/>
<polyline fill="none" stroke="#2e3436" stroke-width="1.5" points="12,-6 74,-6 "/>
<path fill="none" stroke="#2e3436" stroke-width="1.5" d="M74,-6C80,-6 86,-12 86,-18"/>
<polyline fill="none" stroke="#2e3436" stroke-width="1.5" points="86,-18 86,-40 "/>
<path fill="none" stroke="#2e3436" stroke-width="1.5" d="M86,-40C86,-46 80,-52 74,-52"/>
<polyline fill="none" stroke="#2e3436" stroke-width="1.5" points="74,-52 12,-52 "/>
<path fill="none" stroke="#2e3436" stroke-width="1.5" d="M12,-52C6,-52 0,-46 0,-40"/>
<polyline fill="none" stroke="#2e3436" stroke-width="1.5" points="0,-40 0,-18 "/>
<path fill="none" stroke="#2e3436" stroke-width="1.5" d="M0,-18C0,-12 6,-6 12,-6"/>
<text text-anchor="middle" x="43" y="-40.8" font-family="FreeSans" font-size="8.00" fill="#1c2021">Node[1]: Person</text>
<polyline fill="none" stroke="#2e3436" stroke-width="1.5" points="0,-34 86,-34 "/>
<text text-anchor="start" x="8" y="-22.8" font-family="FreeSans" font-size="8.00" fill="#1c2021">name = &#39;D&#39;</text>
<text text-anchor="start" x="8" y="-12.8" font-family="FreeSans" font-size="8.00" fill="#1c2021">eyes = &#39;brown&#39;</text>
</g>
<!-- N2 -->
<g id="node2" class="node"><title>N2</title>
<polygon fill="#ffffff" stroke="#ffffff" stroke-width="1.5" points="127,-105 189,-105 201,-117 201,-139 189,-151 127,-151 115,-139 115,-117 127,-105"/>
<path fill="#ffffff" stroke="#ffffff" stroke-width="1.5" d="M189,-105C195,-105 201,-111 201,-117"/>
<path fill="#ffffff" stroke="#ffffff" stroke-width="1.5" d="M201,-139C201,-145 195,-151 189,-151"/>
<path fill="#ffffff" stroke="#ffffff" stroke-width="1.5" d="M127,-151C121,-151 115,-145 115,-139"/>
<path fill="#ffffff" stroke="#ffffff" stroke-width="1.5" d="M115,-117C115,-111 121,-105 127,-105"/>
<polyline fill="none" stroke="#2e3436" stroke-width="1.5" points="127,-105 189,-105 "/>
<path fill="none" stroke="#2e3436" stroke-width="1.5" d="M189,-105C195,-105 201,-111 201,-117"/>
<polyline fill="none" stroke="#2e3436" stroke-width="1.5" points="201,-117 201,-139 "/>
<path fill="none" stroke="#2e3436" stroke-width="1.5" d="M201,-139C201,-145 195,-151 189,-151"/>
<polyline fill="none" stroke="#2e3436" stroke-width="1.5" points="189,-151 127,-151 "/>
<path fill="none" stroke="#2e3436" stroke-width="1.5" d="M127,-151C121,-151 115,-145 115,-139"/>
<polyline fill="none" stroke="#2e3436" stroke-width="1.5" points="115,-139 115,-117 "/>
<path fill="none" stroke="#2e3436" stroke-width="1.5" d="M115,-117C115,-111 121,-105 127,-105"/>
<text text-anchor="middle" x="158" y="-139.8" font-family="FreeSans" font-size="8.00" fill="#1c2021">Node[2]: Person</text>
<polyline fill="none" stroke="#2e3436" stroke-width="1.5" points="115,-133 201,-133 "/>
<text text-anchor="start" x="123" y="-121.8" font-family="FreeSans" font-size="8.00" fill="#1c2021">name = &#39;A&#39;</text>
<text text-anchor="start" x="123" y="-111.8" font-family="FreeSans" font-size="8.00" fill="#1c2021">property = 13</text>
</g>
<!-- N2&#45;&gt;N1 -->
<g id="edge6" class="edge"><title>N2&#45;&gt;N1</title>
<path fill="none" stroke="#2e3436" stroke-width="2" d="M131.038,-104.789C114.456,-90.5145 93.102,-72.1312 75.5774,-57.0448"/>
<polygon fill="#2e3436" stroke="#2e3436" points="69.7935,-52.0657 77.6794,-54.4011 72.9617,-54.1333 75.8036,-56.5799 75.4774,-56.9588 75.1512,-57.3378 72.3092,-54.8912 73.2755,-59.5166 69.7935,-52.0657 69.7935,-52.0657"/>
<text text-anchor="middle" x="123.5" y="-78.8" font-family="FreeSans" font-size="8.00" fill="#2e3436">KNOWS</text>
</g>
<!-- N3 -->
<g id="node4" class="node"><title>N3</title>
<polygon fill="#ffffff" stroke="#ffffff" stroke-width="1.5" points="127,-1 189,-1 201,-13 201,-45 189,-57 127,-57 115,-45 115,-13 127,-1"/>
<path fill="#ffffff" stroke="#ffffff" stroke-width="1.5" d="M189,-1C195,-1 201,-7 201,-13"/>
<path fill="#ffffff" stroke="#ffffff" stroke-width="1.5" d="M201,-45C201,-51 195,-57 189,-57"/>
<path fill="#ffffff" stroke="#ffffff" stroke-width="1.5" d="M127,-57C121,-57 115,-51 115,-45"/>
<path fill="#ffffff" stroke="#ffffff" stroke-width="1.5" d="M115,-13C115,-7 121,-1 127,-1"/>
<polyline fill="none" stroke="#2e3436" stroke-width="1.5" points="127,-1 189,-1 "/>
<path fill="none" stroke="#2e3436" stroke-width="1.5" d="M189,-1C195,-1 201,-7 201,-13"/>
<polyline fill="none" stroke="#2e3436" stroke-width="1.5" points="201,-13 201,-45 "/>
<path fill="none" stroke="#2e3436" stroke-width="1.5" d="M201,-45C201,-51 195,-57 189,-57"/>
<polyline fill="none" stroke="#2e3436" stroke-width="1.5" points="189,-57 127,-57 "/>
<path fill="none" stroke="#2e3436" stroke-width="1.5" d="M127,-57C121,-57 115,-51 115,-45"/>
<polyline fill="none" stroke="#2e3436" stroke-width="1.5" points="115,-45 115,-13 "/>
<path fill="none" stroke="#2e3436" stroke-width="1.5" d="M115,-13C115,-7 121,-1 127,-1"/>
<text text-anchor="middle" x="158" y="-45.8" font-family="FreeSans" font-size="8.00" fill="#1c2021">Node[3]: Person</text>
<polyline fill="none" stroke="#2e3436" stroke-width="1.5" points="115,-39 201,-39 "/>
<text text-anchor="start" x="123" y="-27.8" font-family="FreeSans" font-size="8.00" fill="#1c2021">name = &#39;B&#39;</text>
<text text-anchor="start" x="123" y="-17.8" font-family="FreeSans" font-size="8.00" fill="#1c2021">property = 33</text>
<text text-anchor="start" x="123" y="-7.8" font-family="FreeSans" font-size="8.00" fill="#1c2021">eyes = &#39;blue&#39;</text>
</g>
<!-- N2&#45;&gt;N3 -->
<g id="edge2" class="edge"><title>N2&#45;&gt;N3</title>
<path fill="none" stroke="#2e3436" stroke-width="2" d="M158,-104.789C158,-92.8452 158,-78.0249 158,-64.6661"/>
<polygon fill="#2e3436" stroke="#2e3436" points="158,-57.0024 161.375,-64.5023 158.5,-60.7524 158.5,-64.5024 158,-64.5024 157.5,-64.5024 157.5,-60.7524 154.625,-64.5024 158,-57.0024 158,-57.0024"/>
<text text-anchor="middle" x="173.5" y="-78.8" font-family="FreeSans" font-size="8.00" fill="#2e3436">KNOWS</text>
</g>
<!-- N4 -->
<g id="node6" class="node"><title>N4</title>
<polygon fill="#ffffff" stroke="#ffffff" stroke-width="1.5" points="242,-1 304,-1 316,-13 316,-45 304,-57 242,-57 230,-45 230,-13 242,-1"/>
<path fill="#ffffff" stroke="#ffffff" stroke-width="1.5" d="M304,-1C310,-1 316,-7 316,-13"/>
<path fill="#ffffff" stroke="#ffffff" stroke-width="1.5" d="M316,-45C316,-51 310,-57 304,-57"/>
<path fill="#ffffff" stroke="#ffffff" stroke-width="1.5" d="M242,-57C236,-57 230,-51 230,-45"/>
<path fill="#ffffff" stroke="#ffffff" stroke-width="1.5" d="M230,-13C230,-7 236,-1 242,-1"/>
<polyline fill="none" stroke="#2e3436" stroke-width="1.5" points="242,-1 304,-1 "/>
<path fill="none" stroke="#2e3436" stroke-width="1.5" d="M304,-1C310,-1 316,-7 316,-13"/>
<polyline fill="none" stroke="#2e3436" stroke-width="1.5" points="316,-13 316,-45 "/>
<path fill="none" stroke="#2e3436" stroke-width="1.5" d="M316,-45C316,-51 310,-57 304,-57"/>
<polyline fill="none" stroke="#2e3436" stroke-width="1.5" points="304,-57 242,-57 "/>
<path fill="none" stroke="#2e3436" stroke-width="1.5" d="M242,-57C236,-57 230,-51 230,-45"/>
<polyline fill="none" stroke="#2e3436" stroke-width="1.5" points="230,-45 230,-13 "/>
<path fill="none" stroke="#2e3436" stroke-width="1.5" d="M230,-13C230,-7 236,-1 242,-1"/>
<text text-anchor="middle" x="273" y="-45.8" font-family="FreeSans" font-size="8.00" fill="#1c2021">Node[4]: Person</text>
<polyline fill="none" stroke="#2e3436" stroke-width="1.5" points="230,-39 316,-39 "/>
<text text-anchor="start" x="238" y="-27.8" font-family="FreeSans" font-size="8.00" fill="#1c2021">name = &#39;C&#39;</text>
<text text-anchor="start" x="238" y="-17.8" font-family="FreeSans" font-size="8.00" fill="#1c2021">property = 44</text>
<text text-anchor="start" x="238" y="-7.8" font-family="FreeSans" font-size="8.00" fill="#1c2021">eyes = &#39;blue&#39;</text>
</g>
<!-- N2&#45;&gt;N4 -->
<g id="edge4" class="edge"><title>N2&#45;&gt;N4</title>
<path fill="none" stroke="#2e3436" stroke-width="2" d="M184.962,-104.789C199.744,-92.0638 218.319,-76.0734 234.592,-62.0643"/>
<polygon fill="#2e3436" stroke="#2e3436" points="240.472,-57.0024 236.99,-64.4533 237.956,-59.8279 235.114,-62.2745 234.788,-61.8956 234.462,-61.5166 237.304,-59.07 232.586,-59.3378 240.472,-57.0024 240.472,-57.0024"/>
<text text-anchor="middle" x="230.5" y="-78.8" font-family="FreeSans" font-size="8.00" fill="#2e3436">KNOWS</text>
</g>
</g>
</svg>
