<?xml version="1.0" encoding="UTF-8" standalone="no"?>
<!DOCTYPE svg PUBLIC "-//W3C//DTD SVG 1.1//EN"
 "http://www.w3.org/Graphics/SVG/1.1/DTD/svg11.dtd">
<!-- Generated by graphviz version 2.26.3 (20100126.1600)
 -->
<!-- Title: g Pages: 1 -->
<svg width="179pt" height="140pt"
 viewBox="0.00 0.00 179.00 140.00" xmlns="http://www.w3.org/2000/svg" xmlns:xlink="http://www.w3.org/1999/xlink">
<g id="graph1" class="graph" transform="scale(1 1) rotate(0) translate(4 136)">
<title>g</title>
<polygon fill="white" stroke="white" points="-4,5 -4,-136 176,-136 176,5 -4,5"/>
<!-- N1 -->
<g id="node1" class="node"><title>N1</title>
<polygon fill="#ffffff" stroke="#ffffff" stroke-width="1.5" points="11.5,-95 60.5,-95 72.5,-107 72.5,-119 60.5,-131 11.5,-131 -0.5,-119 -0.5,-107 11.5,-95"/>
<path fill="#ffffff" stroke="#ffffff" stroke-width="1.5" d="M60.5,-95C66.5,-95 72.5,-101 72.5,-107"/>
<path fill="#ffffff" stroke="#ffffff" stroke-width="1.5" d="M72.5,-119C72.5,-125 66.5,-131 60.5,-131"/>
<path fill="#ffffff" stroke="#ffffff" stroke-width="1.5" d="M11.5,-131C5.5,-131 -0.5,-125 -0.5,-119"/>
<path fill="#ffffff" stroke="#ffffff" stroke-width="1.5" d="M-0.5,-107C-0.5,-101 5.5,-95 11.5,-95"/>
<polyline fill="none" stroke="#2e3436" stroke-width="1.5" points="11.5,-95 60.5,-95 "/>
<path fill="none" stroke="#2e3436" stroke-width="1.5" d="M60.5,-95C66.5,-95 72.5,-101 72.5,-107"/>
<polyline fill="none" stroke="#2e3436" stroke-width="1.5" points="72.5,-107 72.5,-119 "/>
<path fill="none" stroke="#2e3436" stroke-width="1.5" d="M72.5,-119C72.5,-125 66.5,-131 60.5,-131"/>
<polyline fill="none" stroke="#2e3436" stroke-width="1.5" points="60.5,-131 11.5,-131 "/>
<path fill="none" stroke="#2e3436" stroke-width="1.5" d="M11.5,-131C5.5,-131 -0.5,-125 -0.5,-119"/>
<polyline fill="none" stroke="#2e3436" stroke-width="1.5" points="-0.5,-119 -0.5,-107 "/>
<path fill="none" stroke="#2e3436" stroke-width="1.5" d="M-0.5,-107C-0.5,-101 5.5,-95 11.5,-95"/>
<text text-anchor="start" x="7.5" y="-110.8" font-family="FreeSans" font-size="8.00" fill="#1c2021">name = &#39;you&#39;</text>
</g>
<!-- N2 -->
<g id="node3" class="node"><title>N2</title>
<polygon fill="#ffffff" stroke="#ffffff" stroke-width="1.5" points="58,-1 114,-1 126,-13 126,-25 114,-37 58,-37 46,-25 46,-13 58,-1"/>
<path fill="#ffffff" stroke="#ffffff" stroke-width="1.5" d="M114,-1C120,-1 126,-7 126,-13"/>
<path fill="#ffffff" stroke="#ffffff" stroke-width="1.5" d="M126,-25C126,-31 120,-37 114,-37"/>
<path fill="#ffffff" stroke="#ffffff" stroke-width="1.5" d="M58,-37C52,-37 46,-31 46,-25"/>
<path fill="#ffffff" stroke="#ffffff" stroke-width="1.5" d="M46,-13C46,-7 52,-1 58,-1"/>
<polyline fill="none" stroke="#2e3436" stroke-width="1.5" points="58,-1 114,-1 "/>
<path fill="none" stroke="#2e3436" stroke-width="1.5" d="M114,-1C120,-1 126,-7 126,-13"/>
<polyline fill="none" stroke="#2e3436" stroke-width="1.5" points="126,-13 126,-25 "/>
<path fill="none" stroke="#2e3436" stroke-width="1.5" d="M126,-25C126,-31 120,-37 114,-37"/>
<polyline fill="none" stroke="#2e3436" stroke-width="1.5" points="114,-37 58,-37 "/>
<path fill="none" stroke="#2e3436" stroke-width="1.5" d="M58,-37C52,-37 46,-31 46,-25"/>
<polyline fill="none" stroke="#2e3436" stroke-width="1.5" points="46,-25 46,-13 "/>
<path fill="none" stroke="#2e3436" stroke-width="1.5" d="M46,-13C46,-7 52,-1 58,-1"/>
<text text-anchor="start" x="54" y="-16.8" font-family="FreeSans" font-size="8.00" fill="#1c2021">name = &#39;meat&#39;</text>
</g>
<!-- N1&#45;&gt;N2 -->
<g id="edge2" class="edge"><title>N1&#45;&gt;N2</title>
<path fill="none" stroke="#2e3436" stroke-width="2" d="M41.0713,-94.9109C44.684,-83.3799 50.115,-68.3411 57,-56 59.4007,-51.6968 62.282,-47.3654 65.2838,-43.2584"/>
<polygon fill="#2e3436" stroke="#2e3436" points="70.0481,-37.0256 68.1747,-45.0339 68.168,-40.3086 65.8906,-43.2879 65.4934,-42.9842 65.0961,-42.6806 67.3735,-39.7013 62.812,-40.9346 70.0481,-37.0256 70.0481,-37.0256"/>
<text text-anchor="middle" x="78.5" y="-68.8" font-family="FreeSans" font-size="8.00" fill="#2e3436">ATE</text>
<text text-anchor="start" x="57" y="-58.8" font-family="FreeSans" font-size="8.00" fill="#2e3436">times = 5</text>
</g>
<!-- N3 -->
<g id="node4" class="node"><title>N3</title>
<polygon fill="#ffffff" stroke="#ffffff" stroke-width="1.5" points="112.5,-95 159.5,-95 171.5,-107 171.5,-119 159.5,-131 112.5,-131 100.5,-119 100.5,-107 112.5,-95"/>
<path fill="#ffffff" stroke="#ffffff" stroke-width="1.5" d="M159.5,-95C165.5,-95 171.5,-101 171.5,-107"/>
<path fill="#ffffff" stroke="#ffffff" stroke-width="1.5" d="M171.5,-119C171.5,-125 165.5,-131 159.5,-131"/>
<path fill="#ffffff" stroke="#ffffff" stroke-width="1.5" d="M112.5,-131C106.5,-131 100.5,-125 100.5,-119"/>
<path fill="#ffffff" stroke="#ffffff" stroke-width="1.5" d="M100.5,-107C100.5,-101 106.5,-95 112.5,-95"/>
<polyline fill="none" stroke="#2e3436" stroke-width="1.5" points="112.5,-95 159.5,-95 "/>
<path fill="none" stroke="#2e3436" stroke-width="1.5" d="M159.5,-95C165.5,-95 171.5,-101 171.5,-107"/>
<polyline fill="none" stroke="#2e3436" stroke-width="1.5" points="171.5,-107 171.5,-119 "/>
<path fill="none" stroke="#2e3436" stroke-width="1.5" d="M171.5,-119C171.5,-125 165.5,-131 159.5,-131"/>
<polyline fill="none" stroke="#2e3436" stroke-width="1.5" points="159.5,-131 112.5,-131 "/>
<path fill="none" stroke="#2e3436" stroke-width="1.5" d="M112.5,-131C106.5,-131 100.5,-125 100.5,-119"/>
<polyline fill="none" stroke="#2e3436" stroke-width="1.5" points="100.5,-119 100.5,-107 "/>
<path fill="none" stroke="#2e3436" stroke-width="1.5" d="M100.5,-107C100.5,-101 106.5,-95 112.5,-95"/>
<text text-anchor="start" x="108.5" y="-110.8" font-family="FreeSans" font-size="8.00" fill="#1c2021">name = &#39;me&#39;</text>
</g>
<!-- N3&#45;&gt;N2 -->
<g id="edge4" class="edge"><title>N3&#45;&gt;N2</title>
<path fill="none" stroke="#2e3436" stroke-width="2" d="M126.359,-94.8759C118.682,-80.4413 107.848,-60.074 99.3378,-44.075"/>
<polygon fill="#2e3436" stroke="#2e3436" points="95.6109,-37.0685 102.113,-42.1051 97.8134,-40.1445 99.5745,-43.4552 99.1331,-43.6901 98.6916,-43.9249 96.9305,-40.6141 96.1534,-45.275 95.6109,-37.0685 95.6109,-37.0685"/>
<text text-anchor="middle" x="139" y="-68.8" font-family="FreeSans" font-size="8.00" fill="#2e3436">ATE</text>
<text text-anchor="start" x="115" y="-58.8" font-family="FreeSans" font-size="8.00" fill="#2e3436">times = 10</text>
</g>
</g>
</svg>
