<?xml version="1.0" encoding="UTF-8" standalone="no"?>
<!DOCTYPE svg PUBLIC "-//W3C//DTD SVG 1.1//EN"
 "http://www.w3.org/Graphics/SVG/1.1/DTD/svg11.dtd">
<!-- Generated by graphviz version 2.26.3 (20100126.1600)
 -->
<!-- Title: g Pages: 1 -->
<svg width="424pt" height="410pt"
 viewBox="0.00 0.00 424.00 410.00" xmlns="http://www.w3.org/2000/svg" xmlns:xlink="http://www.w3.org/1999/xlink">
<g id="graph1" class="graph" transform="scale(1 1) rotate(0) translate(4 406)">
<title>g</title>
<polygon fill="white" stroke="white" points="-4,5 -4,-406 421,-406 421,5 -4,5"/>
<!-- N1 -->
<g id="node1" class="node"><title>N1</title>
<polygon fill="#ffffff" stroke="#ffffff" stroke-width="1.5" points="12,-173 86,-173 98,-185 98,-199 86,-211 12,-211 0,-199 0,-185 12,-173"/>
<path fill="#ffffff" stroke="#ffffff" stroke-width="1.5" d="M86,-173C92,-173 98,-179 98,-185"/>
<path fill="#ffffff" stroke="#ffffff" stroke-width="1.5" d="M98,-199C98,-205 92,-211 86,-211"/>
<path fill="#ffffff" stroke="#ffffff" stroke-width="1.5" d="M12,-211C6,-211 0,-205 0,-199"/>
<path fill="#ffffff" stroke="#ffffff" stroke-width="1.5" d="M0,-185C0,-179 6,-173 12,-173"/>
<polyline fill="none" stroke="#2e3436" stroke-width="1.5" points="12,-173 86,-173 "/>
<path fill="none" stroke="#2e3436" stroke-width="1.5" d="M86,-173C92,-173 98,-179 98,-185"/>
<polyline fill="none" stroke="#2e3436" stroke-width="1.5" points="98,-185 98,-199 "/>
<path fill="none" stroke="#2e3436" stroke-width="1.5" d="M98,-199C98,-205 92,-211 86,-211"/>
<polyline fill="none" stroke="#2e3436" stroke-width="1.5" points="86,-211 12,-211 "/>
<path fill="none" stroke="#2e3436" stroke-width="1.5" d="M12,-211C6,-211 0,-205 0,-199"/>
<polyline fill="none" stroke="#2e3436" stroke-width="1.5" points="0,-199 0,-185 "/>
<path fill="none" stroke="#2e3436" stroke-width="1.5" d="M0,-185C0,-179 6,-173 12,-173"/>
<text text-anchor="start" x="8" y="-199.8" font-family="FreeSans" font-size="8.00" fill="#1c2021">name = &#39;joe_s2&#39;</text>
<text text-anchor="start" x="8" y="-189.8" font-family="FreeSans" font-size="8.00" fill="#1c2021">text = &#39;Joe status2&#39;</text>
<text text-anchor="start" x="8" y="-179.8" font-family="FreeSans" font-size="8.00" fill="#1c2021">date = 6</text>
</g>
<!-- N2 -->
<g id="node2" class="node"><title>N2</title>
<polygon fill="#ffffff" stroke="#ffffff" stroke-width="1.5" points="39,-269 113,-269 125,-281 125,-295 113,-307 39,-307 27,-295 27,-281 39,-269"/>
<path fill="#ffffff" stroke="#ffffff" stroke-width="1.5" d="M113,-269C119,-269 125,-275 125,-281"/>
<path fill="#ffffff" stroke="#ffffff" stroke-width="1.5" d="M125,-295C125,-301 119,-307 113,-307"/>
<path fill="#ffffff" stroke="#ffffff" stroke-width="1.5" d="M39,-307C33,-307 27,-301 27,-295"/>
<path fill="#ffffff" stroke="#ffffff" stroke-width="1.5" d="M27,-281C27,-275 33,-269 39,-269"/>
<polyline fill="none" stroke="#2e3436" stroke-width="1.5" points="39,-269 113,-269 "/>
<path fill="none" stroke="#2e3436" stroke-width="1.5" d="M113,-269C119,-269 125,-275 125,-281"/>
<polyline fill="none" stroke="#2e3436" stroke-width="1.5" points="125,-281 125,-295 "/>
<path fill="none" stroke="#2e3436" stroke-width="1.5" d="M125,-295C125,-301 119,-307 113,-307"/>
<polyline fill="none" stroke="#2e3436" stroke-width="1.5" points="113,-307 39,-307 "/>
<path fill="none" stroke="#2e3436" stroke-width="1.5" d="M39,-307C33,-307 27,-301 27,-295"/>
<polyline fill="none" stroke="#2e3436" stroke-width="1.5" points="27,-295 27,-281 "/>
<path fill="none" stroke="#2e3436" stroke-width="1.5" d="M27,-281C27,-275 33,-269 39,-269"/>
<text text-anchor="start" x="35" y="-295.8" font-family="FreeSans" font-size="8.00" fill="#1c2021">name = &#39;joe_s1&#39;</text>
<text text-anchor="start" x="35" y="-285.8" font-family="FreeSans" font-size="8.00" fill="#1c2021">text = &#39;Joe status1&#39;</text>
<text text-anchor="start" x="35" y="-275.8" font-family="FreeSans" font-size="8.00" fill="#1c2021">date = 3</text>
</g>
<!-- N2&#45;&gt;N1 -->
<g id="edge2" class="edge"><title>N2&#45;&gt;N1</title>
<path fill="none" stroke="#2e3436" stroke-width="2" d="M70.5361,-268.573C66.484,-254.165 60.9132,-234.358 56.4526,-218.498"/>
<polygon fill="#2e3436" stroke="#2e3436" points="54.3636,-211.071 59.6432,-217.377 55.8602,-214.545 56.8756,-218.155 56.3942,-218.29 55.9129,-218.426 54.8976,-214.816 53.1453,-219.204 54.3636,-211.071 54.3636,-211.071"/>
<text text-anchor="middle" x="76" y="-237.8" font-family="FreeSans" font-size="8.00" fill="#2e3436">NEXT</text>
</g>
<!-- N3 -->
<g id="node4" class="node"><title>N3</title>
<polygon fill="#ffffff" stroke="#ffffff" stroke-width="1.5" points="182.5,-365 229.5,-365 241.5,-377 241.5,-389 229.5,-401 182.5,-401 170.5,-389 170.5,-377 182.5,-365"/>
<path fill="#ffffff" stroke="#ffffff" stroke-width="1.5" d="M229.5,-365C235.5,-365 241.5,-371 241.5,-377"/>
<path fill="#ffffff" stroke="#ffffff" stroke-width="1.5" d="M241.5,-389C241.5,-395 235.5,-401 229.5,-401"/>
<path fill="#ffffff" stroke="#ffffff" stroke-width="1.5" d="M182.5,-401C176.5,-401 170.5,-395 170.5,-389"/>
<path fill="#ffffff" stroke="#ffffff" stroke-width="1.5" d="M170.5,-377C170.5,-371 176.5,-365 182.5,-365"/>
<polyline fill="none" stroke="#2e3436" stroke-width="1.5" points="182.5,-365 229.5,-365 "/>
<path fill="none" stroke="#2e3436" stroke-width="1.5" d="M229.5,-365C235.5,-365 241.5,-371 241.5,-377"/>
<polyline fill="none" stroke="#2e3436" stroke-width="1.5" points="241.5,-377 241.5,-389 "/>
<path fill="none" stroke="#2e3436" stroke-width="1.5" d="M241.5,-389C241.5,-395 235.5,-401 229.5,-401"/>
<polyline fill="none" stroke="#2e3436" stroke-width="1.5" points="229.5,-401 182.5,-401 "/>
<path fill="none" stroke="#2e3436" stroke-width="1.5" d="M182.5,-401C176.5,-401 170.5,-395 170.5,-389"/>
<polyline fill="none" stroke="#2e3436" stroke-width="1.5" points="170.5,-389 170.5,-377 "/>
<path fill="none" stroke="#2e3436" stroke-width="1.5" d="M170.5,-377C170.5,-371 176.5,-365 182.5,-365"/>
<text text-anchor="start" x="178.5" y="-380.8" font-family="FreeSans" font-size="8.00" fill="#1c2021">name = &#39;Joe&#39;</text>
</g>
<!-- N3&#45;&gt;N2 -->
<g id="edge4" class="edge"><title>N3&#45;&gt;N2</title>
<path fill="none" stroke="#4e9a06" stroke-width="2" d="M181.242,-364.908C160.502,-349.751 130.75,-328.01 108.168,-311.507"/>
<polygon fill="#4e9a06" stroke="#4e9a06" points="102.002,-307.002 110.049,-308.702 105.325,-308.811 108.353,-311.023 108.058,-311.427 107.763,-311.831 104.735,-309.618 106.066,-314.152 102.002,-307.002 102.002,-307.002"/>
<text text-anchor="middle" x="169.5" y="-333.8" font-family="FreeSans" font-size="8.00" fill="#4e9a06">STATUS</text>
</g>
<!-- N9 -->
<g id="node7" class="node"><title>N9</title>
<polygon fill="#ffffff" stroke="#ffffff" stroke-width="1.5" points="181,-270 231,-270 243,-282 243,-294 231,-306 181,-306 169,-294 169,-282 181,-270"/>
<path fill="#ffffff" stroke="#ffffff" stroke-width="1.5" d="M231,-270C237,-270 243,-276 243,-282"/>
<path fill="#ffffff" stroke="#ffffff" stroke-width="1.5" d="M243,-294C243,-300 237,-306 231,-306"/>
<path fill="#ffffff" stroke="#ffffff" stroke-width="1.5" d="M181,-306C175,-306 169,-300 169,-294"/>
<path fill="#ffffff" stroke="#ffffff" stroke-width="1.5" d="M169,-282C169,-276 175,-270 181,-270"/>
<polyline fill="none" stroke="#2e3436" stroke-width="1.5" points="181,-270 231,-270 "/>
<path fill="none" stroke="#2e3436" stroke-width="1.5" d="M231,-270C237,-270 243,-276 243,-282"/>
<polyline fill="none" stroke="#2e3436" stroke-width="1.5" points="243,-282 243,-294 "/>
<path fill="none" stroke="#2e3436" stroke-width="1.5" d="M243,-294C243,-300 237,-306 231,-306"/>
<polyline fill="none" stroke="#2e3436" stroke-width="1.5" points="231,-306 181,-306 "/>
<path fill="none" stroke="#2e3436" stroke-width="1.5" d="M181,-306C175,-306 169,-300 169,-294"/>
<polyline fill="none" stroke="#2e3436" stroke-width="1.5" points="169,-294 169,-282 "/>
<path fill="none" stroke="#2e3436" stroke-width="1.5" d="M169,-282C169,-276 175,-270 181,-270"/>
<text text-anchor="start" x="177" y="-285.8" font-family="FreeSans" font-size="8.00" fill="#1c2021">name = &#39;Bob&#39;</text>
</g>
<!-- N3&#45;&gt;N9 -->
<g id="edge6" class="edge"><title>N3&#45;&gt;N9</title>
<path fill="none" stroke="#a40000" stroke-width="2" d="M206,-364.683C206,-350.226 206,-329.881 206,-313.78"/>
<polygon fill="#a40000" stroke="#a40000" points="206,-306.261 209.375,-313.761 206.5,-310.011 206.5,-313.761 206,-313.761 205.5,-313.761 205.5,-310.011 202.625,-313.761 206,-306.261 206,-306.261"/>
<text text-anchor="middle" x="253" y="-338.8" font-family="FreeSans" font-size="8.00" fill="#a40000">FRIEND</text>
<text text-anchor="start" x="206" y="-328.8" font-family="FreeSans" font-size="8.00" fill="#a40000">status = &#39;CONFIRMED&#39;</text>
</g>
<!-- N6 -->
<g id="node11" class="node"><title>N6</title>
<polygon fill="#ffffff" stroke="#ffffff" stroke-width="1.5" points="301.5,-174 354.5,-174 366.5,-186 366.5,-198 354.5,-210 301.5,-210 289.5,-198 289.5,-186 301.5,-174"/>
<path fill="#ffffff" stroke="#ffffff" stroke-width="1.5" d="M354.5,-174C360.5,-174 366.5,-180 366.5,-186"/>
<path fill="#ffffff" stroke="#ffffff" stroke-width="1.5" d="M366.5,-198C366.5,-204 360.5,-210 354.5,-210"/>
<path fill="#ffffff" stroke="#ffffff" stroke-width="1.5" d="M301.5,-210C295.5,-210 289.5,-204 289.5,-198"/>
<path fill="#ffffff" stroke="#ffffff" stroke-width="1.5" d="M289.5,-186C289.5,-180 295.5,-174 301.5,-174"/>
<polyline fill="none" stroke="#2e3436" stroke-width="1.5" points="301.5,-174 354.5,-174 "/>
<path fill="none" stroke="#2e3436" stroke-width="1.5" d="M354.5,-174C360.5,-174 366.5,-180 366.5,-186"/>
<polyline fill="none" stroke="#2e3436" stroke-width="1.5" points="366.5,-186 366.5,-198 "/>
<path fill="none" stroke="#2e3436" stroke-width="1.5" d="M366.5,-198C366.5,-204 360.5,-210 354.5,-210"/>
<polyline fill="none" stroke="#2e3436" stroke-width="1.5" points="354.5,-210 301.5,-210 "/>
<path fill="none" stroke="#2e3436" stroke-width="1.5" d="M301.5,-210C295.5,-210 289.5,-204 289.5,-198"/>
<polyline fill="none" stroke="#2e3436" stroke-width="1.5" points="289.5,-198 289.5,-186 "/>
<path fill="none" stroke="#2e3436" stroke-width="1.5" d="M289.5,-186C289.5,-180 295.5,-174 301.5,-174"/>
<text text-anchor="start" x="297.5" y="-189.8" font-family="FreeSans" font-size="8.00" fill="#1c2021">name = &#39;Alice&#39;</text>
</g>
<!-- N9&#45;&gt;N6 -->
<g id="edge18" class="edge"><title>N9&#45;&gt;N6</title>
<path fill="none" stroke="#a40000" stroke-width="2" d="M210.908,-269.927C215.167,-257.277 222.492,-240.777 234,-230 247.259,-217.584 265.103,-209.003 281.681,-203.182"/>
<polygon fill="#a40000" stroke="#a40000" points="289.187,-200.699 283.127,-206.259 285.784,-202.351 282.224,-203.529 282.067,-203.055 281.91,-202.58 285.47,-201.402 281.007,-199.851 289.187,-200.699 289.187,-200.699"/>
<text text-anchor="middle" x="281" y="-242.8" font-family="FreeSans" font-size="8.00" fill="#a40000">FRIEND</text>
<text text-anchor="start" x="234" y="-232.8" font-family="FreeSans" font-size="8.00" fill="#a40000">status = &#39;CONFIRMED&#39;</text>
</g>
<!-- N8 -->
<g id="node15" class="node"><title>N8</title>
<polygon fill="#ffffff" stroke="#ffffff" stroke-width="1.5" points="139,-173 221,-173 233,-185 233,-199 221,-211 139,-211 127,-199 127,-185 139,-173"/>
<path fill="#ffffff" stroke="#ffffff" stroke-width="1.5" d="M221,-173C227,-173 233,-179 233,-185"/>
<path fill="#ffffff" stroke="#ffffff" stroke-width="1.5" d="M233,-199C233,-205 227,-211 221,-211"/>
<path fill="#ffffff" stroke="#ffffff" stroke-width="1.5" d="M139,-211C133,-211 127,-205 127,-199"/>
<path fill="#ffffff" stroke="#ffffff" stroke-width="1.5" d="M127,-185C127,-179 133,-173 139,-173"/>
<polyline fill="none" stroke="#2e3436" stroke-width="1.5" points="139,-173 221,-173 "/>
<path fill="none" stroke="#2e3436" stroke-width="1.5" d="M221,-173C227,-173 233,-179 233,-185"/>
<polyline fill="none" stroke="#2e3436" stroke-width="1.5" points="233,-185 233,-199 "/>
<path fill="none" stroke="#2e3436" stroke-width="1.5" d="M233,-199C233,-205 227,-211 221,-211"/>
<polyline fill="none" stroke="#2e3436" stroke-width="1.5" points="221,-211 139,-211 "/>
<path fill="none" stroke="#2e3436" stroke-width="1.5" d="M139,-211C133,-211 127,-205 127,-199"/>
<polyline fill="none" stroke="#2e3436" stroke-width="1.5" points="127,-199 127,-185 "/>
<path fill="none" stroke="#2e3436" stroke-width="1.5" d="M127,-185C127,-179 133,-173 139,-173"/>
<text text-anchor="start" x="135" y="-199.8" font-family="FreeSans" font-size="8.00" fill="#1c2021">name = &#39;bob_s1&#39;</text>
<text text-anchor="start" x="135" y="-189.8" font-family="FreeSans" font-size="8.00" fill="#1c2021">text = &#39;bobs status1&#39;</text>
<text text-anchor="start" x="135" y="-179.8" font-family="FreeSans" font-size="8.00" fill="#1c2021">date = 1</text>
</g>
<!-- N9&#45;&gt;N8 -->
<g id="edge16" class="edge"><title>N9&#45;&gt;N8</title>
<path fill="none" stroke="#4e9a06" stroke-width="2" d="M181.427,-269.894C175.598,-264.237 170.16,-257.491 167,-250 162.772,-239.977 164.23,-228.374 167.409,-218.192"/>
<polygon fill="#4e9a06" stroke="#4e9a06" points="169.97,-211.072 170.607,-219.272 169.171,-214.77 167.902,-218.298 167.431,-218.129 166.961,-217.96 168.23,-214.431 164.256,-216.986 169.97,-211.072 169.97,-211.072"/>
<text text-anchor="middle" x="183.5" y="-237.8" font-family="FreeSans" font-size="8.00" fill="#4e9a06">STATUS</text>
</g>
<!-- N4 -->
<g id="node8" class="node"><title>N4</title>
<polygon fill="#ffffff" stroke="#ffffff" stroke-width="1.5" points="285,-1 371,-1 383,-13 383,-27 371,-39 285,-39 273,-27 273,-13 285,-1"/>
<path fill="#ffffff" stroke="#ffffff" stroke-width="1.5" d="M371,-1C377,-1 383,-7 383,-13"/>
<path fill="#ffffff" stroke="#ffffff" stroke-width="1.5" d="M383,-27C383,-33 377,-39 371,-39"/>
<path fill="#ffffff" stroke="#ffffff" stroke-width="1.5" d="M285,-39C279,-39 273,-33 273,-27"/>
<path fill="#ffffff" stroke="#ffffff" stroke-width="1.5" d="M273,-13C273,-7 279,-1 285,-1"/>
<polyline fill="none" stroke="#2e3436" stroke-width="1.5" points="285,-1 371,-1 "/>
<path fill="none" stroke="#2e3436" stroke-width="1.5" d="M371,-1C377,-1 383,-7 383,-13"/>
<polyline fill="none" stroke="#2e3436" stroke-width="1.5" points="383,-13 383,-27 "/>
<path fill="none" stroke="#2e3436" stroke-width="1.5" d="M383,-27C383,-33 377,-39 371,-39"/>
<polyline fill="none" stroke="#2e3436" stroke-width="1.5" points="371,-39 285,-39 "/>
<path fill="none" stroke="#2e3436" stroke-width="1.5" d="M285,-39C279,-39 273,-33 273,-27"/>
<polyline fill="none" stroke="#2e3436" stroke-width="1.5" points="273,-27 273,-13 "/>
<path fill="none" stroke="#2e3436" stroke-width="1.5" d="M273,-13C273,-7 279,-1 285,-1"/>
<text text-anchor="start" x="281" y="-27.8" font-family="FreeSans" font-size="8.00" fill="#1c2021">name = &#39;alice_s2&#39;</text>
<text text-anchor="start" x="281" y="-17.8" font-family="FreeSans" font-size="8.00" fill="#1c2021">text = &#39;Alices status2&#39;</text>
<text text-anchor="start" x="281" y="-7.8" font-family="FreeSans" font-size="8.00" fill="#1c2021">date = 5</text>
</g>
<!-- N5 -->
<g id="node9" class="node"><title>N5</title>
<polygon fill="#ffffff" stroke="#ffffff" stroke-width="1.5" points="285,-87 371,-87 383,-99 383,-113 371,-125 285,-125 273,-113 273,-99 285,-87"/>
<path fill="#ffffff" stroke="#ffffff" stroke-width="1.5" d="M371,-87C377,-87 383,-93 383,-99"/>
<path fill="#ffffff" stroke="#ffffff" stroke-width="1.5" d="M383,-113C383,-119 377,-125 371,-125"/>
<path fill="#ffffff" stroke="#ffffff" stroke-width="1.5" d="M285,-125C279,-125 273,-119 273,-113"/>
<path fill="#ffffff" stroke="#ffffff" stroke-width="1.5" d="M273,-99C273,-93 279,-87 285,-87"/>
<polyline fill="none" stroke="#2e3436" stroke-width="1.5" points="285,-87 371,-87 "/>
<path fill="none" stroke="#2e3436" stroke-width="1.5" d="M371,-87C377,-87 383,-93 383,-99"/>
<polyline fill="none" stroke="#2e3436" stroke-width="1.5" points="383,-99 383,-113 "/>
<path fill="none" stroke="#2e3436" stroke-width="1.5" d="M383,-113C383,-119 377,-125 371,-125"/>
<polyline fill="none" stroke="#2e3436" stroke-width="1.5" points="371,-125 285,-125 "/>
<path fill="none" stroke="#2e3436" stroke-width="1.5" d="M285,-125C279,-125 273,-119 273,-113"/>
<polyline fill="none" stroke="#2e3436" stroke-width="1.5" points="273,-113 273,-99 "/>
<path fill="none" stroke="#2e3436" stroke-width="1.5" d="M273,-99C273,-93 279,-87 285,-87"/>
<text text-anchor="start" x="281" y="-113.8" font-family="FreeSans" font-size="8.00" fill="#1c2021">name = &#39;alice_s1&#39;</text>
<text text-anchor="start" x="281" y="-103.8" font-family="FreeSans" font-size="8.00" fill="#1c2021">text = &#39;Alices status1&#39;</text>
<text text-anchor="start" x="281" y="-93.8" font-family="FreeSans" font-size="8.00" fill="#1c2021">date = 2</text>
</g>
<!-- N5&#45;&gt;N4 -->
<g id="edge8" class="edge"><title>N5&#45;&gt;N4</title>
<path fill="none" stroke="#2e3436" stroke-width="2" d="M328,-86.9138C328,-75.1117 328,-59.7853 328,-46.779"/>
<polygon fill="#2e3436" stroke="#2e3436" points="328,-39.0328 331.375,-46.5328 328.5,-42.7828 328.5,-46.5328 328,-46.5328 327.5,-46.5328 327.5,-42.7828 324.625,-46.5329 328,-39.0328 328,-39.0328"/>
<text text-anchor="middle" x="339" y="-60.8" font-family="FreeSans" font-size="8.00" fill="#2e3436">NEXT</text>
</g>
<!-- N6&#45;&gt;N3 -->
<g id="edge12" class="edge"><title>N6&#45;&gt;N3</title>
<path fill="none" stroke="#a40000" stroke-width="2" d="M331.406,-210.079C336.268,-241.861 341.188,-307.975 307,-346 292.099,-362.573 269.141,-371.735 248.877,-376.794"/>
<polygon fill="#a40000" stroke="#a40000" points="241.553,-378.478 248.106,-373.508 245.095,-377.151 248.75,-376.31 248.862,-376.797 248.974,-377.285 245.319,-378.125 249.618,-380.086 241.553,-378.478 241.553,-378.478"/>
<text text-anchor="middle" x="375" y="-290.8" font-family="FreeSans" font-size="8.00" fill="#a40000">FRIEND</text>
<text text-anchor="start" x="334" y="-280.8" font-family="FreeSans" font-size="8.00" fill="#a40000">status = &#39;PENDING&#39;</text>
</g>
<!-- N6&#45;&gt;N5 -->
<g id="edge10" class="edge"><title>N6&#45;&gt;N5</title>
<path fill="none" stroke="#4e9a06" stroke-width="2" d="M328,-173.762C328,-161.809 328,-145.984 328,-132.633"/>
<polygon fill="#4e9a06" stroke="#4e9a06" points="328,-125.106 331.375,-132.606 328.5,-128.856 328.5,-132.606 328,-132.606 327.5,-132.606 327.5,-128.856 324.625,-132.606 328,-125.106 328,-125.106"/>
<text text-anchor="middle" x="344.5" y="-146.8" font-family="FreeSans" font-size="8.00" fill="#4e9a06">STATUS</text>
</g>
<!-- N7 -->
<g id="node14" class="node"><title>N7</title>
<polygon fill="#ffffff" stroke="#ffffff" stroke-width="1.5" points="139,-87 221,-87 233,-99 233,-113 221,-125 139,-125 127,-113 127,-99 139,-87"/>
<path fill="#ffffff" stroke="#ffffff" stroke-width="1.5" d="M221,-87C227,-87 233,-93 233,-99"/>
<path fill="#ffffff" stroke="#ffffff" stroke-width="1.5" d="M233,-113C233,-119 227,-125 221,-125"/>
<path fill="#ffffff" stroke="#ffffff" stroke-width="1.5" d="M139,-125C133,-125 127,-119 127,-113"/>
<path fill="#ffffff" stroke="#ffffff" stroke-width="1.5" d="M127,-99C127,-93 133,-87 139,-87"/>
<polyline fill="none" stroke="#2e3436" stroke-width="1.5" points="139,-87 221,-87 "/>
<path fill="none" stroke="#2e3436" stroke-width="1.5" d="M221,-87C227,-87 233,-93 233,-99"/>
<polyline fill="none" stroke="#2e3436" stroke-width="1.5" points="233,-99 233,-113 "/>
<path fill="none" stroke="#2e3436" stroke-width="1.5" d="M233,-113C233,-119 227,-125 221,-125"/>
<polyline fill="none" stroke="#2e3436" stroke-width="1.5" points="221,-125 139,-125 "/>
<path fill="none" stroke="#2e3436" stroke-width="1.5" d="M139,-125C133,-125 127,-119 127,-113"/>
<polyline fill="none" stroke="#2e3436" stroke-width="1.5" points="127,-113 127,-99 "/>
<path fill="none" stroke="#2e3436" stroke-width="1.5" d="M127,-99C127,-93 133,-87 139,-87"/>
<text text-anchor="start" x="135" y="-113.8" font-family="FreeSans" font-size="8.00" fill="#1c2021">name = &#39;bob_s2&#39;</text>
<text text-anchor="start" x="135" y="-103.8" font-family="FreeSans" font-size="8.00" fill="#1c2021">text = &#39;bobs status2&#39;</text>
<text text-anchor="start" x="135" y="-93.8" font-family="FreeSans" font-size="8.00" fill="#1c2021">date = 4</text>
</g>
<!-- N8&#45;&gt;N7 -->
<g id="edge14" class="edge"><title>N8&#45;&gt;N7</title>
<path fill="none" stroke="#2e3436" stroke-width="2" d="M180,-172.914C180,-161.112 180,-145.785 180,-132.779"/>
<polygon fill="#2e3436" stroke="#2e3436" points="180,-125.033 183.375,-132.533 180.5,-128.783 180.5,-132.533 180,-132.533 179.5,-132.533 179.5,-128.783 176.625,-132.533 180,-125.033 180,-125.033"/>
<text text-anchor="middle" x="191" y="-146.8" font-family="FreeSans" font-size="8.00" fill="#2e3436">NEXT</text>
</g>
</g>
</svg>
