<?xml version="1.0" encoding="UTF-8" standalone="no"?>
<!DOCTYPE svg PUBLIC "-//W3C//DTD SVG 1.1//EN"
 "http://www.w3.org/Graphics/SVG/1.1/DTD/svg11.dtd">
<!-- Generated by graphviz version 2.26.3 (20100126.1600)
 -->
<!-- Title: g Pages: 1 -->
<svg width="372pt" height="214pt"
 viewBox="0.00 0.00 372.00 214.00" xmlns="http://www.w3.org/2000/svg" xmlns:xlink="http://www.w3.org/1999/xlink">
<g id="graph1" class="graph" transform="scale(1 1) rotate(0) translate(4 210)">
<title>g</title>
<polygon fill="white" stroke="white" points="-4,5 -4,-210 369,-210 369,5 -4,5"/>
<!-- N1 -->
<g id="node1" class="node"><title>N1</title>
<polygon fill="#ffffff" stroke="#ffffff" stroke-width="1.5" points="239,-1 269,-1 281,-13 281,-25 269,-37 239,-37 227,-25 227,-13 239,-1"/>
<path fill="#ffffff" stroke="#ffffff" stroke-width="1.5" d="M269,-1C275,-1 281,-7 281,-13"/>
<path fill="#ffffff" stroke="#ffffff" stroke-width="1.5" d="M281,-25C281,-31 275,-37 269,-37"/>
<path fill="#ffffff" stroke="#ffffff" stroke-width="1.5" d="M239,-37C233,-37 227,-31 227,-25"/>
<path fill="#ffffff" stroke="#ffffff" stroke-width="1.5" d="M227,-13C227,-7 233,-1 239,-1"/>
<polyline fill="none" stroke="#2e3436" stroke-width="1.5" points="239,-1 269,-1 "/>
<path fill="none" stroke="#2e3436" stroke-width="1.5" d="M269,-1C275,-1 281,-7 281,-13"/>
<polyline fill="none" stroke="#2e3436" stroke-width="1.5" points="281,-13 281,-25 "/>
<path fill="none" stroke="#2e3436" stroke-width="1.5" d="M281,-25C281,-31 275,-37 269,-37"/>
<polyline fill="none" stroke="#2e3436" stroke-width="1.5" points="269,-37 239,-37 "/>
<path fill="none" stroke="#2e3436" stroke-width="1.5" d="M239,-37C233,-37 227,-31 227,-25"/>
<polyline fill="none" stroke="#2e3436" stroke-width="1.5" points="227,-25 227,-13 "/>
<path fill="none" stroke="#2e3436" stroke-width="1.5" d="M227,-13C227,-7 233,-1 239,-1"/>
<text text-anchor="middle" x="254" y="-16.8" font-family="FreeSans" font-size="8.00" fill="#1c2021"> </text>
</g>
<!-- N2 -->
<g id="node2" class="node"><title>N2</title>
<polygon fill="#ffffff" stroke="#ffffff" stroke-width="1.5" points="322,-1 352,-1 364,-13 364,-25 352,-37 322,-37 310,-25 310,-13 322,-1"/>
<path fill="#ffffff" stroke="#ffffff" stroke-width="1.5" d="M352,-1C358,-1 364,-7 364,-13"/>
<path fill="#ffffff" stroke="#ffffff" stroke-width="1.5" d="M364,-25C364,-31 358,-37 352,-37"/>
<path fill="#ffffff" stroke="#ffffff" stroke-width="1.5" d="M322,-37C316,-37 310,-31 310,-25"/>
<path fill="#ffffff" stroke="#ffffff" stroke-width="1.5" d="M310,-13C310,-7 316,-1 322,-1"/>
<polyline fill="none" stroke="#2e3436" stroke-width="1.5" points="322,-1 352,-1 "/>
<path fill="none" stroke="#2e3436" stroke-width="1.5" d="M352,-1C358,-1 364,-7 364,-13"/>
<polyline fill="none" stroke="#2e3436" stroke-width="1.5" points="364,-13 364,-25 "/>
<path fill="none" stroke="#2e3436" stroke-width="1.5" d="M364,-25C364,-31 358,-37 352,-37"/>
<polyline fill="none" stroke="#2e3436" stroke-width="1.5" points="352,-37 322,-37 "/>
<path fill="none" stroke="#2e3436" stroke-width="1.5" d="M322,-37C316,-37 310,-31 310,-25"/>
<polyline fill="none" stroke="#2e3436" stroke-width="1.5" points="310,-25 310,-13 "/>
<path fill="none" stroke="#2e3436" stroke-width="1.5" d="M310,-13C310,-7 316,-1 322,-1"/>
<text text-anchor="middle" x="337" y="-16.8" font-family="FreeSans" font-size="8.00" fill="#1c2021"> </text>
</g>
<!-- N3 -->
<g id="node3" class="node"><title>N3</title>
<polygon fill="#ffffff" stroke="#ffffff" stroke-width="1.5" points="12,-85 42,-85 54,-97 54,-109 42,-121 12,-121 0,-109 0,-97 12,-85"/>
<path fill="#ffffff" stroke="#ffffff" stroke-width="1.5" d="M42,-85C48,-85 54,-91 54,-97"/>
<path fill="#ffffff" stroke="#ffffff" stroke-width="1.5" d="M54,-109C54,-115 48,-121 42,-121"/>
<path fill="#ffffff" stroke="#ffffff" stroke-width="1.5" d="M12,-121C6,-121 0,-115 0,-109"/>
<path fill="#ffffff" stroke="#ffffff" stroke-width="1.5" d="M0,-97C0,-91 6,-85 12,-85"/>
<polyline fill="none" stroke="#2e3436" stroke-width="1.5" points="12,-85 42,-85 "/>
<path fill="none" stroke="#2e3436" stroke-width="1.5" d="M42,-85C48,-85 54,-91 54,-97"/>
<polyline fill="none" stroke="#2e3436" stroke-width="1.5" points="54,-97 54,-109 "/>
<path fill="none" stroke="#2e3436" stroke-width="1.5" d="M54,-109C54,-115 48,-121 42,-121"/>
<polyline fill="none" stroke="#2e3436" stroke-width="1.5" points="42,-121 12,-121 "/>
<path fill="none" stroke="#2e3436" stroke-width="1.5" d="M12,-121C6,-121 0,-115 0,-109"/>
<polyline fill="none" stroke="#2e3436" stroke-width="1.5" points="0,-109 0,-97 "/>
<path fill="none" stroke="#2e3436" stroke-width="1.5" d="M0,-97C0,-91 6,-85 12,-85"/>
<text text-anchor="middle" x="27" y="-100.8" font-family="FreeSans" font-size="8.00" fill="#1c2021"> </text>
</g>
<!-- N4 -->
<g id="node4" class="node"><title>N4</title>
<polygon fill="#ffffff" stroke="#ffffff" stroke-width="1.5" points="127,-1 157,-1 169,-13 169,-25 157,-37 127,-37 115,-25 115,-13 127,-1"/>
<path fill="#ffffff" stroke="#ffffff" stroke-width="1.5" d="M157,-1C163,-1 169,-7 169,-13"/>
<path fill="#ffffff" stroke="#ffffff" stroke-width="1.5" d="M169,-25C169,-31 163,-37 157,-37"/>
<path fill="#ffffff" stroke="#ffffff" stroke-width="1.5" d="M127,-37C121,-37 115,-31 115,-25"/>
<path fill="#ffffff" stroke="#ffffff" stroke-width="1.5" d="M115,-13C115,-7 121,-1 127,-1"/>
<polyline fill="none" stroke="#2e3436" stroke-width="1.5" points="127,-1 157,-1 "/>
<path fill="none" stroke="#2e3436" stroke-width="1.5" d="M157,-1C163,-1 169,-7 169,-13"/>
<polyline fill="none" stroke="#2e3436" stroke-width="1.5" points="169,-13 169,-25 "/>
<path fill="none" stroke="#2e3436" stroke-width="1.5" d="M169,-25C169,-31 163,-37 157,-37"/>
<polyline fill="none" stroke="#2e3436" stroke-width="1.5" points="157,-37 127,-37 "/>
<path fill="none" stroke="#2e3436" stroke-width="1.5" d="M127,-37C121,-37 115,-31 115,-25"/>
<polyline fill="none" stroke="#2e3436" stroke-width="1.5" points="115,-25 115,-13 "/>
<path fill="none" stroke="#2e3436" stroke-width="1.5" d="M115,-13C115,-7 121,-1 127,-1"/>
<text text-anchor="middle" x="142" y="-16.8" font-family="FreeSans" font-size="8.00" fill="#1c2021"> </text>
</g>
<!-- N5 -->
<g id="node5" class="node"><title>N5</title>
<polygon fill="#ffffff" stroke="#ffffff" stroke-width="1.5" points="184,-85 214,-85 226,-97 226,-109 214,-121 184,-121 172,-109 172,-97 184,-85"/>
<path fill="#ffffff" stroke="#ffffff" stroke-width="1.5" d="M214,-85C220,-85 226,-91 226,-97"/>
<path fill="#ffffff" stroke="#ffffff" stroke-width="1.5" d="M226,-109C226,-115 220,-121 214,-121"/>
<path fill="#ffffff" stroke="#ffffff" stroke-width="1.5" d="M184,-121C178,-121 172,-115 172,-109"/>
<path fill="#ffffff" stroke="#ffffff" stroke-width="1.5" d="M172,-97C172,-91 178,-85 184,-85"/>
<polyline fill="none" stroke="#2e3436" stroke-width="1.5" points="184,-85 214,-85 "/>
<path fill="none" stroke="#2e3436" stroke-width="1.5" d="M214,-85C220,-85 226,-91 226,-97"/>
<polyline fill="none" stroke="#2e3436" stroke-width="1.5" points="226,-97 226,-109 "/>
<path fill="none" stroke="#2e3436" stroke-width="1.5" d="M226,-109C226,-115 220,-121 214,-121"/>
<polyline fill="none" stroke="#2e3436" stroke-width="1.5" points="214,-121 184,-121 "/>
<path fill="none" stroke="#2e3436" stroke-width="1.5" d="M184,-121C178,-121 172,-115 172,-109"/>
<polyline fill="none" stroke="#2e3436" stroke-width="1.5" points="172,-109 172,-97 "/>
<path fill="none" stroke="#2e3436" stroke-width="1.5" d="M172,-97C172,-91 178,-85 184,-85"/>
<text text-anchor="middle" x="199" y="-100.8" font-family="FreeSans" font-size="8.00" fill="#1c2021"> </text>
</g>
<!-- N5&#45;&gt;N4 -->
<g id="edge2" class="edge"><title>N5&#45;&gt;N4</title>
<path fill="none" stroke="#2e3436" stroke-width="2" d="M186.632,-84.7733C178.416,-72.665 167.532,-56.6261 158.569,-43.4181"/>
<polygon fill="#2e3436" stroke="#2e3436" points="154.344,-37.1912 161.348,-41.5022 156.863,-40.0135 158.969,-43.1165 158.555,-43.3973 158.142,-43.678 156.036,-40.575 155.763,-45.2924 154.344,-37.1912 154.344,-37.1912"/>
<text text-anchor="middle" x="187.5" y="-58.8" font-family="FreeSans" font-size="8.00" fill="#2e3436">KNOWS</text>
</g>
<!-- N6 -->
<g id="node7" class="node"><title>N6</title>
<polygon fill="#ffffff" stroke="#ffffff" stroke-width="1.5" points="267,-85 297,-85 309,-97 309,-109 297,-121 267,-121 255,-109 255,-97 267,-85"/>
<path fill="#ffffff" stroke="#ffffff" stroke-width="1.5" d="M297,-85C303,-85 309,-91 309,-97"/>
<path fill="#ffffff" stroke="#ffffff" stroke-width="1.5" d="M309,-109C309,-115 303,-121 297,-121"/>
<path fill="#ffffff" stroke="#ffffff" stroke-width="1.5" d="M267,-121C261,-121 255,-115 255,-109"/>
<path fill="#ffffff" stroke="#ffffff" stroke-width="1.5" d="M255,-97C255,-91 261,-85 267,-85"/>
<polyline fill="none" stroke="#2e3436" stroke-width="1.5" points="267,-85 297,-85 "/>
<path fill="none" stroke="#2e3436" stroke-width="1.5" d="M297,-85C303,-85 309,-91 309,-97"/>
<polyline fill="none" stroke="#2e3436" stroke-width="1.5" points="309,-97 309,-109 "/>
<path fill="none" stroke="#2e3436" stroke-width="1.5" d="M309,-109C309,-115 303,-121 297,-121"/>
<polyline fill="none" stroke="#2e3436" stroke-width="1.5" points="297,-121 267,-121 "/>
<path fill="none" stroke="#2e3436" stroke-width="1.5" d="M267,-121C261,-121 255,-115 255,-109"/>
<polyline fill="none" stroke="#2e3436" stroke-width="1.5" points="255,-109 255,-97 "/>
<path fill="none" stroke="#2e3436" stroke-width="1.5" d="M255,-97C255,-91 261,-85 267,-85"/>
<text text-anchor="middle" x="282" y="-100.8" font-family="FreeSans" font-size="8.00" fill="#1c2021"> </text>
</g>
<!-- N6&#45;&gt;N1 -->
<g id="edge6" class="edge"><title>N6&#45;&gt;N1</title>
<path fill="none" stroke="#2e3436" stroke-width="2" d="M275.924,-84.7733C271.998,-72.9952 266.833,-57.4981 262.502,-44.5049"/>
<polygon fill="#2e3436" stroke="#2e3436" points="260.064,-37.1912 265.637,-43.239 261.724,-40.5906 262.91,-44.1482 262.436,-44.3063 261.961,-44.4644 260.775,-40.9069 259.234,-45.3736 260.064,-37.1912 260.064,-37.1912"/>
<text text-anchor="middle" x="283.5" y="-58.8" font-family="FreeSans" font-size="8.00" fill="#2e3436">KNOWS</text>
</g>
<!-- N6&#45;&gt;N2 -->
<g id="edge4" class="edge"><title>N6&#45;&gt;N2</title>
<path fill="none" stroke="#2e3436" stroke-width="2" d="M293.934,-84.7733C301.79,-72.7751 312.173,-56.9174 320.776,-43.779"/>
<polygon fill="#2e3436" stroke="#2e3436" points="325.089,-37.1912 323.804,-45.3146 323.453,-40.6024 321.399,-43.7397 320.981,-43.4658 320.562,-43.1919 322.617,-40.0546 318.157,-41.617 325.089,-37.1912 325.089,-37.1912"/>
<text text-anchor="middle" x="326.5" y="-58.8" font-family="FreeSans" font-size="8.00" fill="#2e3436">KNOWS</text>
</g>
<!-- N7 -->
<g id="node10" class="node"><title>N7</title>
<polygon fill="#ffffff" stroke="#ffffff" stroke-width="1.5" points="105.5,-169 180.5,-169 192.5,-181 192.5,-193 180.5,-205 105.5,-205 93.5,-193 93.5,-181 105.5,-169"/>
<path fill="#ffffff" stroke="#ffffff" stroke-width="1.5" d="M180.5,-169C186.5,-169 192.5,-175 192.5,-181"/>
<path fill="#ffffff" stroke="#ffffff" stroke-width="1.5" d="M192.5,-193C192.5,-199 186.5,-205 180.5,-205"/>
<path fill="#ffffff" stroke="#ffffff" stroke-width="1.5" d="M105.5,-205C99.5,-205 93.5,-199 93.5,-193"/>
<path fill="#ffffff" stroke="#ffffff" stroke-width="1.5" d="M93.5,-181C93.5,-175 99.5,-169 105.5,-169"/>
<polyline fill="none" stroke="#2e3436" stroke-width="1.5" points="105.5,-169 180.5,-169 "/>
<path fill="none" stroke="#2e3436" stroke-width="1.5" d="M180.5,-169C186.5,-169 192.5,-175 192.5,-181"/>
<polyline fill="none" stroke="#2e3436" stroke-width="1.5" points="192.5,-181 192.5,-193 "/>
<path fill="none" stroke="#2e3436" stroke-width="1.5" d="M192.5,-193C192.5,-199 186.5,-205 180.5,-205"/>
<polyline fill="none" stroke="#2e3436" stroke-width="1.5" points="180.5,-205 105.5,-205 "/>
<path fill="none" stroke="#2e3436" stroke-width="1.5" d="M105.5,-205C99.5,-205 93.5,-199 93.5,-193"/>
<polyline fill="none" stroke="#2e3436" stroke-width="1.5" points="93.5,-193 93.5,-181 "/>
<path fill="none" stroke="#2e3436" stroke-width="1.5" d="M93.5,-181C93.5,-175 99.5,-169 105.5,-169"/>
<text text-anchor="start" x="101.5" y="-184.8" font-family="FreeSans" font-size="8.00" fill="#1c2021">name = &#39;startnode&#39;</text>
</g>
<!-- N7&#45;&gt;N3 -->
<g id="edge14" class="edge"><title>N7&#45;&gt;N3</title>
<path fill="none" stroke="#2e3436" stroke-width="2" d="M93.2554,-170.54C81.273,-165.157 69.0448,-158.358 59,-150 51.6488,-143.884 45.2789,-135.666 40.2002,-127.813"/>
<polygon fill="#2e3436" stroke="#2e3436" points="36.2447,-121.357 43.0407,-125.989 38.6301,-124.293 40.5892,-127.491 40.1628,-127.752 39.7365,-128.013 37.7774,-124.816 37.285,-129.515 36.2447,-121.357 36.2447,-121.357"/>
<text text-anchor="middle" x="74.5" y="-142.8" font-family="FreeSans" font-size="8.00" fill="#2e3436">KNOWS</text>
</g>
<!-- N7&#45;&gt;N4 -->
<g id="edge12" class="edge"><title>N7&#45;&gt;N4</title>
<path fill="none" stroke="#2e3436" stroke-width="2" d="M137.247,-168.728C133.495,-155.821 128.945,-138.037 127,-122 124.967,-105.234 125.089,-100.78 127,-84 128.505,-70.785 131.678,-56.3455 134.72,-44.4397"/>
<polygon fill="#2e3436" stroke="#2e3436" points="136.682,-37.02 138.028,-45.1335 136.207,-40.7733 135.248,-44.3988 134.765,-44.271 134.282,-44.1432 135.24,-40.5177 131.502,-43.4085 136.682,-37.02 136.682,-37.02"/>
<text text-anchor="middle" x="142.5" y="-100.8" font-family="FreeSans" font-size="8.00" fill="#2e3436">KNOWS</text>
</g>
<!-- N7&#45;&gt;N5 -->
<g id="edge10" class="edge"><title>N7&#45;&gt;N5</title>
<path fill="none" stroke="#2e3436" stroke-width="2" d="M155.151,-168.773C163.15,-156.775 173.722,-140.917 182.481,-127.779"/>
<polygon fill="#2e3436" stroke="#2e3436" points="186.873,-121.191 185.52,-129.304 185.208,-124.589 183.128,-127.709 182.712,-127.432 182.296,-127.154 184.376,-124.034 179.904,-125.559 186.873,-121.191 186.873,-121.191"/>
<text text-anchor="middle" x="187.5" y="-142.8" font-family="FreeSans" font-size="8.00" fill="#2e3436">KNOWS</text>
</g>
<!-- N7&#45;&gt;N6 -->
<g id="edge8" class="edge"><title>N7&#45;&gt;N6</title>
<path fill="none" stroke="#2e3436" stroke-width="2" d="M177.018,-168.847C187.672,-162.993 199.41,-156.369 210,-150 222.844,-142.276 236.689,-133.38 248.774,-125.421"/>
<polygon fill="#2e3436" stroke="#2e3436" points="255.289,-121.109 250.897,-128.063 252.437,-123.595 249.31,-125.665 249.034,-125.248 248.758,-124.831 251.886,-122.762 247.172,-122.434 255.289,-121.109 255.289,-121.109"/>
<text text-anchor="middle" x="241.5" y="-142.8" font-family="FreeSans" font-size="8.00" fill="#2e3436">KNOWS</text>
</g>
</g>
</svg>
