<?xml version="1.0" encoding="UTF-8" standalone="no"?>
<!DOCTYPE svg PUBLIC "-//W3C//DTD SVG 1.1//EN"
 "http://www.w3.org/Graphics/SVG/1.1/DTD/svg11.dtd">
<!-- Generated by graphviz version 2.26.3 (20100126.1600)
 -->
<!-- Title: g Pages: 1 -->
<svg width="201pt" height="224pt"
 viewBox="0.00 0.00 201.00 224.00" xmlns="http://www.w3.org/2000/svg" xmlns:xlink="http://www.w3.org/1999/xlink">
<g id="graph1" class="graph" transform="scale(1 1) rotate(0) translate(4 220)">
<title>g</title>
<polygon fill="white" stroke="white" points="-4,5 -4,-220 198,-220 198,5 -4,5"/>
<!-- N1 -->
<g id="node1" class="node"><title>N1</title>
<polygon fill="#ffffff" stroke="#ffffff" stroke-width="1.5" points="12,-1 76,-1 88,-13 88,-35 76,-47 12,-47 0,-35 0,-13 12,-1"/>
<path fill="#ffffff" stroke="#ffffff" stroke-width="1.5" d="M76,-1C82,-1 88,-7 88,-13"/>
<path fill="#ffffff" stroke="#ffffff" stroke-width="1.5" d="M88,-35C88,-41 82,-47 76,-47"/>
<path fill="#ffffff" stroke="#ffffff" stroke-width="1.5" d="M12,-47C6,-47 0,-41 0,-35"/>
<path fill="#ffffff" stroke="#ffffff" stroke-width="1.5" d="M0,-13C0,-7 6,-1 12,-1"/>
<polyline fill="none" stroke="#2e3436" stroke-width="1.5" points="12,-1 76,-1 "/>
<path fill="none" stroke="#2e3436" stroke-width="1.5" d="M76,-1C82,-1 88,-7 88,-13"/>
<polyline fill="none" stroke="#2e3436" stroke-width="1.5" points="88,-13 88,-35 "/>
<path fill="none" stroke="#2e3436" stroke-width="1.5" d="M88,-35C88,-41 82,-47 76,-47"/>
<polyline fill="none" stroke="#2e3436" stroke-width="1.5" points="76,-47 12,-47 "/>
<path fill="none" stroke="#2e3436" stroke-width="1.5" d="M12,-47C6,-47 0,-41 0,-35"/>
<polyline fill="none" stroke="#2e3436" stroke-width="1.5" points="0,-35 0,-13 "/>
<path fill="none" stroke="#2e3436" stroke-width="1.5" d="M0,-13C0,-7 6,-1 12,-1"/>
<text text-anchor="middle" x="44" y="-35.8" font-family="FreeSans" font-size="8.00" fill="#1c2021">Movie</text>
<polyline fill="none" stroke="#2e3436" stroke-width="1.5" points="0,-29 88,-29 "/>
<text text-anchor="start" x="8" y="-17.8" font-family="FreeSans" font-size="8.00" fill="#1c2021">name = &#39;Cypher&#39;</text>
<text text-anchor="start" x="8" y="-7.8" font-family="FreeSans" font-size="8.00" fill="#1c2021">title = &#39;Cypher&#39;</text>
</g>
<!-- N2 -->
<g id="node2" class="node"><title>N2</title>
<polygon fill="#ffffff" stroke="#ffffff" stroke-width="1.5" points="28,-179 96,-179 108,-191 108,-203 96,-215 28,-215 16,-203 16,-191 28,-179"/>
<path fill="#ffffff" stroke="#ffffff" stroke-width="1.5" d="M96,-179C102,-179 108,-185 108,-191"/>
<path fill="#ffffff" stroke="#ffffff" stroke-width="1.5" d="M108,-203C108,-209 102,-215 96,-215"/>
<path fill="#ffffff" stroke="#ffffff" stroke-width="1.5" d="M28,-215C22,-215 16,-209 16,-203"/>
<path fill="#ffffff" stroke="#ffffff" stroke-width="1.5" d="M16,-191C16,-185 22,-179 28,-179"/>
<polyline fill="none" stroke="#2e3436" stroke-width="1.5" points="28,-179 96,-179 "/>
<path fill="none" stroke="#2e3436" stroke-width="1.5" d="M96,-179C102,-179 108,-185 108,-191"/>
<polyline fill="none" stroke="#2e3436" stroke-width="1.5" points="108,-191 108,-203 "/>
<path fill="none" stroke="#2e3436" stroke-width="1.5" d="M108,-203C108,-209 102,-215 96,-215"/>
<polyline fill="none" stroke="#2e3436" stroke-width="1.5" points="96,-215 28,-215 "/>
<path fill="none" stroke="#2e3436" stroke-width="1.5" d="M28,-215C22,-215 16,-209 16,-203"/>
<polyline fill="none" stroke="#2e3436" stroke-width="1.5" points="16,-203 16,-191 "/>
<path fill="none" stroke="#2e3436" stroke-width="1.5" d="M16,-191C16,-185 22,-179 28,-179"/>
<text text-anchor="middle" x="62" y="-203.8" font-family="FreeSans" font-size="8.00" fill="#1c2021">Actor</text>
<polyline fill="none" stroke="#2e3436" stroke-width="1.5" points="16,-197 108,-197 "/>
<text text-anchor="start" x="24" y="-185.8" font-family="FreeSans" font-size="8.00" fill="#1c2021">name = &#39;Lucy Liu&#39;</text>
</g>
<!-- N2&#45;&gt;N1 -->
<g id="edge4" class="edge"><title>N2&#45;&gt;N1</title>
<path fill="none" stroke="#4e9a06" stroke-width="2" d="M52.181,-178.842C45.8863,-166.134 38.2981,-148.537 35,-132 29.8873,-106.364 32.9751,-76.743 36.8682,-55.0138"/>
<polygon fill="#4e9a06" stroke="#4e9a06" points="38.3252,-47.3874 40.2328,-55.3875 38.1126,-51.1646 37.4088,-54.848 36.9177,-54.7541 36.4266,-54.6603 37.1303,-50.9769 33.6027,-54.1208 38.3252,-47.3874 38.3252,-47.3874"/>
<text text-anchor="middle" x="53" y="-110.8" font-family="FreeSans" font-size="8.00" fill="#4e9a06">ACTS_IN</text>
</g>
<!-- N3 -->
<g id="node4" class="node"><title>N3</title>
<polygon fill="#ffffff" stroke="#ffffff" stroke-width="1.5" points="96.5,-95 181.5,-95 193.5,-107 193.5,-119 181.5,-131 96.5,-131 84.5,-119 84.5,-107 96.5,-95"/>
<path fill="#ffffff" stroke="#ffffff" stroke-width="1.5" d="M181.5,-95C187.5,-95 193.5,-101 193.5,-107"/>
<path fill="#ffffff" stroke="#ffffff" stroke-width="1.5" d="M193.5,-119C193.5,-125 187.5,-131 181.5,-131"/>
<path fill="#ffffff" stroke="#ffffff" stroke-width="1.5" d="M96.5,-131C90.5,-131 84.5,-125 84.5,-119"/>
<path fill="#ffffff" stroke="#ffffff" stroke-width="1.5" d="M84.5,-107C84.5,-101 90.5,-95 96.5,-95"/>
<polyline fill="none" stroke="#2e3436" stroke-width="1.5" points="96.5,-95 181.5,-95 "/>
<path fill="none" stroke="#2e3436" stroke-width="1.5" d="M181.5,-95C187.5,-95 193.5,-101 193.5,-107"/>
<polyline fill="none" stroke="#2e3436" stroke-width="1.5" points="193.5,-107 193.5,-119 "/>
<path fill="none" stroke="#2e3436" stroke-width="1.5" d="M193.5,-119C193.5,-125 187.5,-131 181.5,-131"/>
<polyline fill="none" stroke="#2e3436" stroke-width="1.5" points="181.5,-131 96.5,-131 "/>
<path fill="none" stroke="#2e3436" stroke-width="1.5" d="M96.5,-131C90.5,-131 84.5,-125 84.5,-119"/>
<polyline fill="none" stroke="#2e3436" stroke-width="1.5" points="84.5,-119 84.5,-107 "/>
<path fill="none" stroke="#2e3436" stroke-width="1.5" d="M84.5,-107C84.5,-101 90.5,-95 96.5,-95"/>
<text text-anchor="middle" x="139" y="-119.8" font-family="FreeSans" font-size="8.00" fill="#1c2021">Actor</text>
<polyline fill="none" stroke="#2e3436" stroke-width="1.5" points="84.5,-113 193.5,-113 "/>
<text text-anchor="start" x="92.5" y="-101.8" font-family="FreeSans" font-size="8.00" fill="#1c2021">name = &#39;Kevin Bacon&#39;</text>
</g>
<!-- N2&#45;&gt;N3 -->
<g id="edge2" class="edge"><title>N2&#45;&gt;N3</title>
<path fill="none" stroke="#2e3436" stroke-width="2" d="M78.7079,-178.773C89.908,-166.555 104.777,-150.334 116.946,-137.059"/>
<polygon fill="#2e3436" stroke="#2e3436" points="122.325,-131.191 119.745,-139 120.159,-134.293 117.625,-137.058 117.257,-136.72 116.888,-136.382 119.422,-133.618 114.769,-134.439 122.325,-131.191 122.325,-131.191"/>
<text text-anchor="middle" x="117.5" y="-152.8" font-family="FreeSans" font-size="8.00" fill="#2e3436">KNOWS</text>
</g>
<!-- N3&#45;&gt;N1 -->
<g id="edge6" class="edge"><title>N3&#45;&gt;N1</title>
<path fill="none" stroke="#4e9a06" stroke-width="2" d="M119.775,-94.9895C106.756,-82.7928 89.2819,-66.422 74.3946,-52.475"/>
<polygon fill="#4e9a06" stroke="#4e9a06" points="68.6193,-47.0644 76.4001,-49.7291 71.6978,-49.2634 74.4345,-51.8272 74.0927,-52.1921 73.7508,-52.557 71.0142,-49.9931 71.7852,-54.6551 68.6193,-47.0644 68.6193,-47.0644"/>
<text text-anchor="middle" x="115" y="-68.8" font-family="FreeSans" font-size="8.00" fill="#4e9a06">ACTS_IN</text>
</g>
</g>
</svg>
