<?xml version="1.0" encoding="UTF-8" standalone="no"?>
<!DOCTYPE svg PUBLIC "-//W3C//DTD SVG 1.1//EN"
 "http://www.w3.org/Graphics/SVG/1.1/DTD/svg11.dtd">
<!-- Generated by graphviz version 2.26.3 (20100126.1600)
 -->
<!-- Title: g Pages: 1 -->
<svg width="490pt" height="46pt"
 viewBox="0.00 0.00 490.00 46.00" xmlns="http://www.w3.org/2000/svg" xmlns:xlink="http://www.w3.org/1999/xlink">
<g id="graph1" class="graph" transform="scale(1 1) rotate(0) translate(4 42)">
<title>g</title>
<polygon fill="white" stroke="white" points="-4,5 -4,-42 487,-42 487,5 -4,5"/>
<!-- N73 -->
<g id="node1" class="node"><title>N73</title>
<polygon fill="#ffffff" stroke="#ffffff" stroke-width="1.5" points="11.5,-1 118.5,-1 130.5,-13 130.5,-25 118.5,-37 11.5,-37 -0.5,-25 -0.5,-13 11.5,-1"/>
<path fill="#ffffff" stroke="#ffffff" stroke-width="1.5" d="M118.5,-1C124.5,-1 130.5,-7 130.5,-13"/>
<path fill="#ffffff" stroke="#ffffff" stroke-width="1.5" d="M130.5,-25C130.5,-31 124.5,-37 118.5,-37"/>
<path fill="#ffffff" stroke="#ffffff" stroke-width="1.5" d="M11.5,-37C5.5,-37 -0.5,-31 -0.5,-25"/>
<path fill="#ffffff" stroke="#ffffff" stroke-width="1.5" d="M-0.5,-13C-0.5,-7 5.5,-1 11.5,-1"/>
<polyline fill="none" stroke="#2e3436" stroke-width="1.5" points="11.5,-1 118.5,-1 "/>
<path fill="none" stroke="#2e3436" stroke-width="1.5" d="M118.5,-1C124.5,-1 130.5,-7 130.5,-13"/>
<polyline fill="none" stroke="#2e3436" stroke-width="1.5" points="130.5,-13 130.5,-25 "/>
<path fill="none" stroke="#2e3436" stroke-width="1.5" d="M130.5,-25C130.5,-31 124.5,-37 118.5,-37"/>
<polyline fill="none" stroke="#2e3436" stroke-width="1.5" points="118.5,-37 11.5,-37 "/>
<path fill="none" stroke="#2e3436" stroke-width="1.5" d="M11.5,-37C5.5,-37 -0.5,-31 -0.5,-25"/>
<polyline fill="none" stroke="#2e3436" stroke-width="1.5" points="-0.5,-25 -0.5,-13 "/>
<path fill="none" stroke="#2e3436" stroke-width="1.5" d="M-0.5,-13C-0.5,-7 5.5,-1 11.5,-1"/>
<text text-anchor="middle" x="65" y="-25.8" font-family="FreeSans" font-size="8.00" fill="#1c2021">Node[73]: Person, Director</text>
<polyline fill="none" stroke="#2e3436" stroke-width="1.5" points="-0.5,-19 130.5,-19 "/>
<text text-anchor="start" x="7.5" y="-7.8" font-family="FreeSans" font-size="8.00" fill="#1c2021">name = &#39;Steven Spielberg&#39;</text>
</g>
<!-- N74 -->
<g id="node2" class="node"><title>N74</title>
<polygon fill="#ffffff" stroke="#ffffff" stroke-width="1.5" points="171,-1 305,-1 317,-13 317,-25 305,-37 171,-37 159,-25 159,-13 171,-1"/>
<path fill="#ffffff" stroke="#ffffff" stroke-width="1.5" d="M305,-1C311,-1 317,-7 317,-13"/>
<path fill="#ffffff" stroke="#ffffff" stroke-width="1.5" d="M317,-25C317,-31 311,-37 305,-37"/>
<path fill="#ffffff" stroke="#ffffff" stroke-width="1.5" d="M171,-37C165,-37 159,-31 159,-25"/>
<path fill="#ffffff" stroke="#ffffff" stroke-width="1.5" d="M159,-13C159,-7 165,-1 171,-1"/>
<polyline fill="none" stroke="#2e3436" stroke-width="1.5" points="171,-1 305,-1 "/>
<path fill="none" stroke="#2e3436" stroke-width="1.5" d="M305,-1C311,-1 317,-7 317,-13"/>
<polyline fill="none" stroke="#2e3436" stroke-width="1.5" points="317,-13 317,-25 "/>
<path fill="none" stroke="#2e3436" stroke-width="1.5" d="M317,-25C317,-31 311,-37 305,-37"/>
<polyline fill="none" stroke="#2e3436" stroke-width="1.5" points="305,-37 171,-37 "/>
<path fill="none" stroke="#2e3436" stroke-width="1.5" d="M171,-37C165,-37 159,-31 159,-25"/>
<polyline fill="none" stroke="#2e3436" stroke-width="1.5" points="159,-25 159,-13 "/>
<path fill="none" stroke="#2e3436" stroke-width="1.5" d="M159,-13C159,-7 165,-1 171,-1"/>
<text text-anchor="middle" x="238" y="-25.8" font-family="FreeSans" font-size="8.00" fill="#1c2021">Node[74]: Person, Actor, Director</text>
<polyline fill="none" stroke="#2e3436" stroke-width="1.5" points="159,-19 317,-19 "/>
<text text-anchor="start" x="167" y="-7.8" font-family="FreeSans" font-size="8.00" fill="#1c2021">name = &#39;Clint Eastwood&#39;</text>
</g>
<!-- N75 -->
<g id="node3" class="node"><title>N75</title>
<polygon fill="#ffffff" stroke="#ffffff" stroke-width="1.5" points="357.5,-1 470.5,-1 482.5,-13 482.5,-25 470.5,-37 357.5,-37 345.5,-25 345.5,-13 357.5,-1"/>
<path fill="#ffffff" stroke="#ffffff" stroke-width="1.5" d="M470.5,-1C476.5,-1 482.5,-7 482.5,-13"/>
<path fill="#ffffff" stroke="#ffffff" stroke-width="1.5" d="M482.5,-25C482.5,-31 476.5,-37 470.5,-37"/>
<path fill="#ffffff" stroke="#ffffff" stroke-width="1.5" d="M357.5,-37C351.5,-37 345.5,-31 345.5,-25"/>
<path fill="#ffffff" stroke="#ffffff" stroke-width="1.5" d="M345.5,-13C345.5,-7 351.5,-1 357.5,-1"/>
<polyline fill="none" stroke="#2e3436" stroke-width="1.5" points="357.5,-1 470.5,-1 "/>
<path fill="none" stroke="#2e3436" stroke-width="1.5" d="M470.5,-1C476.5,-1 482.5,-7 482.5,-13"/>
<polyline fill="none" stroke="#2e3436" stroke-width="1.5" points="482.5,-13 482.5,-25 "/>
<path fill="none" stroke="#2e3436" stroke-width="1.5" d="M482.5,-25C482.5,-31 476.5,-37 470.5,-37"/>
<polyline fill="none" stroke="#2e3436" stroke-width="1.5" points="470.5,-37 357.5,-37 "/>
<path fill="none" stroke="#2e3436" stroke-width="1.5" d="M357.5,-37C351.5,-37 345.5,-31 345.5,-25"/>
<polyline fill="none" stroke="#2e3436" stroke-width="1.5" points="345.5,-25 345.5,-13 "/>
<path fill="none" stroke="#2e3436" stroke-width="1.5" d="M345.5,-13C345.5,-7 351.5,-1 357.5,-1"/>
<text text-anchor="middle" x="414" y="-25.8" font-family="FreeSans" font-size="8.00" fill="#1c2021">Node[75]: Person, Actor</text>
<polyline fill="none" stroke="#2e3436" stroke-width="1.5" points="345.5,-19 482.5,-19 "/>
<text text-anchor="start" x="353.5" y="-7.8" font-family="FreeSans" font-size="8.00" fill="#1c2021">name = &#39;Donald Sutherland&#39;</text>
</g>
</g>
</svg>
