<?xml version="1.0" encoding="UTF-8" standalone="no"?>
<!DOCTYPE svg PUBLIC "-//W3C//DTD SVG 1.1//EN"
 "http://www.w3.org/Graphics/SVG/1.1/DTD/svg11.dtd">
<!-- Generated by graphviz version 2.26.3 (20100126.1600)
 -->
<!-- Title: g Pages: 1 -->
<svg width="311pt" height="130pt"
 viewBox="0.00 0.00 311.00 130.00" xmlns="http://www.w3.org/2000/svg" xmlns:xlink="http://www.w3.org/1999/xlink">
<g id="graph1" class="graph" transform="scale(1 1) rotate(0) translate(4 126)">
<title>g</title>
<polygon fill="white" stroke="white" points="-4,5 -4,-126 308,-126 308,5 -4,5"/>
<!-- N0 -->
<g id="node1" class="node"><title>N0</title>
<polygon fill="#ffffff" stroke="#ffffff" stroke-width="1.5" points="12,-85 42,-85 54,-97 54,-109 42,-121 12,-121 0,-109 0,-97 12,-85"/>
<path fill="#ffffff" stroke="#ffffff" stroke-width="1.5" d="M42,-85C48,-85 54,-91 54,-97"/>
<path fill="#ffffff" stroke="#ffffff" stroke-width="1.5" d="M54,-109C54,-115 48,-121 42,-121"/>
<path fill="#ffffff" stroke="#ffffff" stroke-width="1.5" d="M12,-121C6,-121 0,-115 0,-109"/>
<path fill="#ffffff" stroke="#ffffff" stroke-width="1.5" d="M0,-97C0,-91 6,-85 12,-85"/>
<polyline fill="none" stroke="#2e3436" stroke-width="1.5" points="12,-85 42,-85 "/>
<path fill="none" stroke="#2e3436" stroke-width="1.5" d="M42,-85C48,-85 54,-91 54,-97"/>
<polyline fill="none" stroke="#2e3436" stroke-width="1.5" points="54,-97 54,-109 "/>
<path fill="none" stroke="#2e3436" stroke-width="1.5" d="M54,-109C54,-115 48,-121 42,-121"/>
<polyline fill="none" stroke="#2e3436" stroke-width="1.5" points="42,-121 12,-121 "/>
<path fill="none" stroke="#2e3436" stroke-width="1.5" d="M12,-121C6,-121 0,-115 0,-109"/>
<polyline fill="none" stroke="#2e3436" stroke-width="1.5" points="0,-109 0,-97 "/>
<path fill="none" stroke="#2e3436" stroke-width="1.5" d="M0,-97C0,-91 6,-85 12,-85"/>
<text text-anchor="middle" x="27" y="-109.8" font-family="FreeSans" font-size="8.00" fill="#1c2021">Node[0]</text>
<polyline fill="none" stroke="#2e3436" stroke-width="1.5" points="0,-103 54,-103 "/>
<text text-anchor="middle" x="27" y="-91.8" font-family="FreeSans" font-size="8.00" fill="#1c2021"> </text>
</g>
<!-- N32 -->
<g id="node2" class="node"><title>N32</title>
<polygon fill="#ffffff" stroke="#ffffff" stroke-width="1.5" points="84,-1 136,-1 148,-13 148,-25 136,-37 84,-37 72,-25 72,-13 84,-1"/>
<path fill="#ffffff" stroke="#ffffff" stroke-width="1.5" d="M136,-1C142,-1 148,-7 148,-13"/>
<path fill="#ffffff" stroke="#ffffff" stroke-width="1.5" d="M148,-25C148,-31 142,-37 136,-37"/>
<path fill="#ffffff" stroke="#ffffff" stroke-width="1.5" d="M84,-37C78,-37 72,-31 72,-25"/>
<path fill="#ffffff" stroke="#ffffff" stroke-width="1.5" d="M72,-13C72,-7 78,-1 84,-1"/>
<polyline fill="none" stroke="#2e3436" stroke-width="1.5" points="84,-1 136,-1 "/>
<path fill="none" stroke="#2e3436" stroke-width="1.5" d="M136,-1C142,-1 148,-7 148,-13"/>
<polyline fill="none" stroke="#2e3436" stroke-width="1.5" points="148,-13 148,-25 "/>
<path fill="none" stroke="#2e3436" stroke-width="1.5" d="M148,-25C148,-31 142,-37 136,-37"/>
<polyline fill="none" stroke="#2e3436" stroke-width="1.5" points="136,-37 84,-37 "/>
<path fill="none" stroke="#2e3436" stroke-width="1.5" d="M84,-37C78,-37 72,-31 72,-25"/>
<polyline fill="none" stroke="#2e3436" stroke-width="1.5" points="72,-25 72,-13 "/>
<path fill="none" stroke="#2e3436" stroke-width="1.5" d="M72,-13C72,-7 78,-1 84,-1"/>
<text text-anchor="middle" x="110" y="-25.8" font-family="FreeSans" font-size="8.00" fill="#1c2021">Node[32]</text>
<polyline fill="none" stroke="#2e3436" stroke-width="1.5" points="72,-19 148,-19 "/>
<text text-anchor="start" x="80" y="-7.8" font-family="FreeSans" font-size="8.00" fill="#1c2021">name = &#39;John&#39;</text>
</g>
<!-- N33 -->
<g id="node3" class="node"><title>N33</title>
<polygon fill="#ffffff" stroke="#ffffff" stroke-width="1.5" points="94.5,-85 125.5,-85 137.5,-97 137.5,-109 125.5,-121 94.5,-121 82.5,-109 82.5,-97 94.5,-85"/>
<path fill="#ffffff" stroke="#ffffff" stroke-width="1.5" d="M125.5,-85C131.5,-85 137.5,-91 137.5,-97"/>
<path fill="#ffffff" stroke="#ffffff" stroke-width="1.5" d="M137.5,-109C137.5,-115 131.5,-121 125.5,-121"/>
<path fill="#ffffff" stroke="#ffffff" stroke-width="1.5" d="M94.5,-121C88.5,-121 82.5,-115 82.5,-109"/>
<path fill="#ffffff" stroke="#ffffff" stroke-width="1.5" d="M82.5,-97C82.5,-91 88.5,-85 94.5,-85"/>
<polyline fill="none" stroke="#2e3436" stroke-width="1.5" points="94.5,-85 125.5,-85 "/>
<path fill="none" stroke="#2e3436" stroke-width="1.5" d="M125.5,-85C131.5,-85 137.5,-91 137.5,-97"/>
<polyline fill="none" stroke="#2e3436" stroke-width="1.5" points="137.5,-97 137.5,-109 "/>
<path fill="none" stroke="#2e3436" stroke-width="1.5" d="M137.5,-109C137.5,-115 131.5,-121 125.5,-121"/>
<polyline fill="none" stroke="#2e3436" stroke-width="1.5" points="125.5,-121 94.5,-121 "/>
<path fill="none" stroke="#2e3436" stroke-width="1.5" d="M94.5,-121C88.5,-121 82.5,-115 82.5,-109"/>
<polyline fill="none" stroke="#2e3436" stroke-width="1.5" points="82.5,-109 82.5,-97 "/>
<path fill="none" stroke="#2e3436" stroke-width="1.5" d="M82.5,-97C82.5,-91 88.5,-85 94.5,-85"/>
<text text-anchor="middle" x="110" y="-109.8" font-family="FreeSans" font-size="8.00" fill="#1c2021">Node[33]</text>
<polyline fill="none" stroke="#2e3436" stroke-width="1.5" points="82.5,-103 137.5,-103 "/>
<text text-anchor="start" x="90.5" y="-91.8" font-family="FreeSans" font-size="8.00" fill="#1c2021">age = 1</text>
</g>
<!-- N33&#45;&gt;N32 -->
<g id="edge2" class="edge"><title>N33&#45;&gt;N32</title>
<path fill="none" stroke="#2e3436" stroke-width="2" d="M110,-84.7733C110,-73.1053 110,-57.7874 110,-44.8699"/>
<polygon fill="#2e3436" stroke="#2e3436" points="110,-37.1912 113.375,-44.6911 110.5,-40.9412 110.5,-44.6912 110,-44.6912 109.5,-44.6912 109.5,-40.9412 106.625,-44.6912 110,-37.1912 110,-37.1912"/>
<text text-anchor="middle" x="124" y="-58.8" font-family="FreeSans" font-size="8.00" fill="#2e3436">knows</text>
</g>
<!-- N34 -->
<g id="node5" class="node"><title>N34</title>
<polygon fill="#ffffff" stroke="#ffffff" stroke-width="1.5" points="177.5,-85 208.5,-85 220.5,-97 220.5,-109 208.5,-121 177.5,-121 165.5,-109 165.5,-97 177.5,-85"/>
<path fill="#ffffff" stroke="#ffffff" stroke-width="1.5" d="M208.5,-85C214.5,-85 220.5,-91 220.5,-97"/>
<path fill="#ffffff" stroke="#ffffff" stroke-width="1.5" d="M220.5,-109C220.5,-115 214.5,-121 208.5,-121"/>
<path fill="#ffffff" stroke="#ffffff" stroke-width="1.5" d="M177.5,-121C171.5,-121 165.5,-115 165.5,-109"/>
<path fill="#ffffff" stroke="#ffffff" stroke-width="1.5" d="M165.5,-97C165.5,-91 171.5,-85 177.5,-85"/>
<polyline fill="none" stroke="#2e3436" stroke-width="1.5" points="177.5,-85 208.5,-85 "/>
<path fill="none" stroke="#2e3436" stroke-width="1.5" d="M208.5,-85C214.5,-85 220.5,-91 220.5,-97"/>
<polyline fill="none" stroke="#2e3436" stroke-width="1.5" points="220.5,-97 220.5,-109 "/>
<path fill="none" stroke="#2e3436" stroke-width="1.5" d="M220.5,-109C220.5,-115 214.5,-121 208.5,-121"/>
<polyline fill="none" stroke="#2e3436" stroke-width="1.5" points="208.5,-121 177.5,-121 "/>
<path fill="none" stroke="#2e3436" stroke-width="1.5" d="M177.5,-121C171.5,-121 165.5,-115 165.5,-109"/>
<polyline fill="none" stroke="#2e3436" stroke-width="1.5" points="165.5,-109 165.5,-97 "/>
<path fill="none" stroke="#2e3436" stroke-width="1.5" d="M165.5,-97C165.5,-91 171.5,-85 177.5,-85"/>
<text text-anchor="middle" x="193" y="-109.8" font-family="FreeSans" font-size="8.00" fill="#1c2021">Node[34]</text>
<polyline fill="none" stroke="#2e3436" stroke-width="1.5" points="165.5,-103 220.5,-103 "/>
<text text-anchor="start" x="173.5" y="-91.8" font-family="FreeSans" font-size="8.00" fill="#1c2021">age = 1</text>
</g>
<!-- N35 -->
<g id="node6" class="node"><title>N35</title>
<polygon fill="#ffffff" stroke="#ffffff" stroke-width="1.5" points="260.5,-85 291.5,-85 303.5,-97 303.5,-109 291.5,-121 260.5,-121 248.5,-109 248.5,-97 260.5,-85"/>
<path fill="#ffffff" stroke="#ffffff" stroke-width="1.5" d="M291.5,-85C297.5,-85 303.5,-91 303.5,-97"/>
<path fill="#ffffff" stroke="#ffffff" stroke-width="1.5" d="M303.5,-109C303.5,-115 297.5,-121 291.5,-121"/>
<path fill="#ffffff" stroke="#ffffff" stroke-width="1.5" d="M260.5,-121C254.5,-121 248.5,-115 248.5,-109"/>
<path fill="#ffffff" stroke="#ffffff" stroke-width="1.5" d="M248.5,-97C248.5,-91 254.5,-85 260.5,-85"/>
<polyline fill="none" stroke="#2e3436" stroke-width="1.5" points="260.5,-85 291.5,-85 "/>
<path fill="none" stroke="#2e3436" stroke-width="1.5" d="M291.5,-85C297.5,-85 303.5,-91 303.5,-97"/>
<polyline fill="none" stroke="#2e3436" stroke-width="1.5" points="303.5,-97 303.5,-109 "/>
<path fill="none" stroke="#2e3436" stroke-width="1.5" d="M303.5,-109C303.5,-115 297.5,-121 291.5,-121"/>
<polyline fill="none" stroke="#2e3436" stroke-width="1.5" points="291.5,-121 260.5,-121 "/>
<path fill="none" stroke="#2e3436" stroke-width="1.5" d="M260.5,-121C254.5,-121 248.5,-115 248.5,-109"/>
<polyline fill="none" stroke="#2e3436" stroke-width="1.5" points="248.5,-109 248.5,-97 "/>
<path fill="none" stroke="#2e3436" stroke-width="1.5" d="M248.5,-97C248.5,-91 254.5,-85 260.5,-85"/>
<text text-anchor="middle" x="276" y="-109.8" font-family="FreeSans" font-size="8.00" fill="#1c2021">Node[35]</text>
<polyline fill="none" stroke="#2e3436" stroke-width="1.5" points="248.5,-103 303.5,-103 "/>
<text text-anchor="start" x="256.5" y="-91.8" font-family="FreeSans" font-size="8.00" fill="#1c2021">age = 1</text>
</g>
</g>
</svg>
