<?xml version="1.0" encoding="UTF-8" standalone="no"?>
<!DOCTYPE svg PUBLIC "-//W3C//DTD SVG 1.1//EN"
 "http://www.w3.org/Graphics/SVG/1.1/DTD/svg11.dtd">
<!-- Generated by graphviz version 2.26.3 (20100126.1600)
 -->
<!-- Title: g Pages: 1 -->
<svg width="406pt" height="46pt"
 viewBox="0.00 0.00 406.00 46.00" xmlns="http://www.w3.org/2000/svg" xmlns:xlink="http://www.w3.org/1999/xlink">
<g id="graph1" class="graph" transform="scale(1 1) rotate(0) translate(4 42)">
<title>g</title>
<polygon fill="white" stroke="white" points="-4,5 -4,-42 403,-42 403,5 -4,5"/>
<!-- N80 -->
<g id="node1" class="node"><title>N80</title>
<polygon fill="#ffffff" stroke="#ffffff" stroke-width="1.5" points="11.5,-1 118.5,-1 130.5,-13 130.5,-25 118.5,-37 11.5,-37 -0.5,-25 -0.5,-13 11.5,-1"/>
<path fill="#ffffff" stroke="#ffffff" stroke-width="1.5" d="M118.5,-1C124.5,-1 130.5,-7 130.5,-13"/>
<path fill="#ffffff" stroke="#ffffff" stroke-width="1.5" d="M130.5,-25C130.5,-31 124.5,-37 118.5,-37"/>
<path fill="#ffffff" stroke="#ffffff" stroke-width="1.5" d="M11.5,-37C5.5,-37 -0.5,-31 -0.5,-25"/>
<path fill="#ffffff" stroke="#ffffff" stroke-width="1.5" d="M-0.5,-13C-0.5,-7 5.5,-1 11.5,-1"/>
<polyline fill="none" stroke="#2e3436" stroke-width="1.5" points="11.5,-1 118.5,-1 "/>
<path fill="none" stroke="#2e3436" stroke-width="1.5" d="M118.5,-1C124.5,-1 130.5,-7 130.5,-13"/>
<polyline fill="none" stroke="#2e3436" stroke-width="1.5" points="130.5,-13 130.5,-25 "/>
<path fill="none" stroke="#2e3436" stroke-width="1.5" d="M130.5,-25C130.5,-31 124.5,-37 118.5,-37"/>
<polyline fill="none" stroke="#2e3436" stroke-width="1.5" points="118.5,-37 11.5,-37 "/>
<path fill="none" stroke="#2e3436" stroke-width="1.5" d="M11.5,-37C5.5,-37 -0.5,-31 -0.5,-25"/>
<polyline fill="none" stroke="#2e3436" stroke-width="1.5" points="-0.5,-25 -0.5,-13 "/>
<path fill="none" stroke="#2e3436" stroke-width="1.5" d="M-0.5,-13C-0.5,-7 5.5,-1 11.5,-1"/>
<text text-anchor="middle" x="65" y="-25.8" font-family="FreeSans" font-size="8.00" fill="#1c2021">Node[80]: Person</text>
<polyline fill="none" stroke="#2e3436" stroke-width="1.5" points="-0.5,-19 130.5,-19 "/>
<text text-anchor="start" x="7.5" y="-7.8" font-family="FreeSans" font-size="8.00" fill="#1c2021">name = &#39;Steven Spielberg&#39;</text>
</g>
<!-- N81 -->
<g id="node2" class="node"><title>N81</title>
<polygon fill="#ffffff" stroke="#ffffff" stroke-width="1.5" points="170.5,-1 267.5,-1 279.5,-13 279.5,-25 267.5,-37 170.5,-37 158.5,-25 158.5,-13 170.5,-1"/>
<path fill="#ffffff" stroke="#ffffff" stroke-width="1.5" d="M267.5,-1C273.5,-1 279.5,-7 279.5,-13"/>
<path fill="#ffffff" stroke="#ffffff" stroke-width="1.5" d="M279.5,-25C279.5,-31 273.5,-37 267.5,-37"/>
<path fill="#ffffff" stroke="#ffffff" stroke-width="1.5" d="M170.5,-37C164.5,-37 158.5,-31 158.5,-25"/>
<path fill="#ffffff" stroke="#ffffff" stroke-width="1.5" d="M158.5,-13C158.5,-7 164.5,-1 170.5,-1"/>
<polyline fill="none" stroke="#2e3436" stroke-width="1.5" points="170.5,-1 267.5,-1 "/>
<path fill="none" stroke="#2e3436" stroke-width="1.5" d="M267.5,-1C273.5,-1 279.5,-7 279.5,-13"/>
<polyline fill="none" stroke="#2e3436" stroke-width="1.5" points="279.5,-13 279.5,-25 "/>
<path fill="none" stroke="#2e3436" stroke-width="1.5" d="M279.5,-25C279.5,-31 273.5,-37 267.5,-37"/>
<polyline fill="none" stroke="#2e3436" stroke-width="1.5" points="267.5,-37 170.5,-37 "/>
<path fill="none" stroke="#2e3436" stroke-width="1.5" d="M170.5,-37C164.5,-37 158.5,-31 158.5,-25"/>
<polyline fill="none" stroke="#2e3436" stroke-width="1.5" points="158.5,-25 158.5,-13 "/>
<path fill="none" stroke="#2e3436" stroke-width="1.5" d="M158.5,-13C158.5,-7 164.5,-1 170.5,-1"/>
<text text-anchor="middle" x="219" y="-25.8" font-family="FreeSans" font-size="8.00" fill="#1c2021">Node[81]: Person</text>
<polyline fill="none" stroke="#2e3436" stroke-width="1.5" points="158.5,-19 279.5,-19 "/>
<text text-anchor="start" x="166.5" y="-7.8" font-family="FreeSans" font-size="8.00" fill="#1c2021">name = &#39;Clint Eastwood&#39;</text>
</g>
<!-- N82 -->
<g id="node3" class="node"><title>N82</title>
<polygon fill="#ffffff" stroke="#ffffff" stroke-width="1.5" points="319.5,-1 386.5,-1 398.5,-13 398.5,-25 386.5,-37 319.5,-37 307.5,-25 307.5,-13 319.5,-1"/>
<path fill="#ffffff" stroke="#ffffff" stroke-width="1.5" d="M386.5,-1C392.5,-1 398.5,-7 398.5,-13"/>
<path fill="#ffffff" stroke="#ffffff" stroke-width="1.5" d="M398.5,-25C398.5,-31 392.5,-37 386.5,-37"/>
<path fill="#ffffff" stroke="#ffffff" stroke-width="1.5" d="M319.5,-37C313.5,-37 307.5,-31 307.5,-25"/>
<path fill="#ffffff" stroke="#ffffff" stroke-width="1.5" d="M307.5,-13C307.5,-7 313.5,-1 319.5,-1"/>
<polyline fill="none" stroke="#2e3436" stroke-width="1.5" points="319.5,-1 386.5,-1 "/>
<path fill="none" stroke="#2e3436" stroke-width="1.5" d="M386.5,-1C392.5,-1 398.5,-7 398.5,-13"/>
<polyline fill="none" stroke="#2e3436" stroke-width="1.5" points="398.5,-13 398.5,-25 "/>
<path fill="none" stroke="#2e3436" stroke-width="1.5" d="M398.5,-25C398.5,-31 392.5,-37 386.5,-37"/>
<polyline fill="none" stroke="#2e3436" stroke-width="1.5" points="386.5,-37 319.5,-37 "/>
<path fill="none" stroke="#2e3436" stroke-width="1.5" d="M319.5,-37C313.5,-37 307.5,-31 307.5,-25"/>
<polyline fill="none" stroke="#2e3436" stroke-width="1.5" points="307.5,-25 307.5,-13 "/>
<path fill="none" stroke="#2e3436" stroke-width="1.5" d="M307.5,-13C307.5,-7 313.5,-1 319.5,-1"/>
<text text-anchor="middle" x="353" y="-25.8" font-family="FreeSans" font-size="8.00" fill="#1c2021">Node[82]: Person</text>
<polyline fill="none" stroke="#2e3436" stroke-width="1.5" points="307.5,-19 398.5,-19 "/>
<text text-anchor="middle" x="353" y="-7.8" font-family="FreeSans" font-size="8.00" fill="#1c2021"> </text>
</g>
</g>
</svg>
