<?xml version="1.0" encoding="UTF-8" standalone="no"?>
<!DOCTYPE svg PUBLIC "-//W3C//DTD SVG 1.1//EN"
 "http://www.w3.org/Graphics/SVG/1.1/DTD/svg11.dtd">
<!-- Generated by graphviz version 2.26.3 (20100126.1600)
 -->
<!-- Title: g Pages: 1 -->
<svg width="252pt" height="46pt"
 viewBox="0.00 0.00 252.00 46.00" xmlns="http://www.w3.org/2000/svg" xmlns:xlink="http://www.w3.org/1999/xlink">
<g id="graph1" class="graph" transform="scale(1 1) rotate(0) translate(4 42)">
<title>g</title>
<polygon fill="white" stroke="white" points="-4,5 -4,-42 249,-42 249,5 -4,5"/>
<!-- N203 -->
<g id="node1" class="node"><title>N203</title>
<polygon fill="#ffffff" stroke="#ffffff" stroke-width="1.5" points="11.5,-1 50.5,-1 62.5,-13 62.5,-25 50.5,-37 11.5,-37 -0.5,-25 -0.5,-13 11.5,-1"/>
<path fill="#ffffff" stroke="#ffffff" stroke-width="1.5" d="M50.5,-1C56.5,-1 62.5,-7 62.5,-13"/>
<path fill="#ffffff" stroke="#ffffff" stroke-width="1.5" d="M62.5,-25C62.5,-31 56.5,-37 50.5,-37"/>
<path fill="#ffffff" stroke="#ffffff" stroke-width="1.5" d="M11.5,-37C5.5,-37 -0.5,-31 -0.5,-25"/>
<path fill="#ffffff" stroke="#ffffff" stroke-width="1.5" d="M-0.5,-13C-0.5,-7 5.5,-1 11.5,-1"/>
<polyline fill="none" stroke="#2e3436" stroke-width="1.5" points="11.5,-1 50.5,-1 "/>
<path fill="none" stroke="#2e3436" stroke-width="1.5" d="M50.5,-1C56.5,-1 62.5,-7 62.5,-13"/>
<polyline fill="none" stroke="#2e3436" stroke-width="1.5" points="62.5,-13 62.5,-25 "/>
<path fill="none" stroke="#2e3436" stroke-width="1.5" d="M62.5,-25C62.5,-31 56.5,-37 50.5,-37"/>
<polyline fill="none" stroke="#2e3436" stroke-width="1.5" points="50.5,-37 11.5,-37 "/>
<path fill="none" stroke="#2e3436" stroke-width="1.5" d="M11.5,-37C5.5,-37 -0.5,-31 -0.5,-25"/>
<polyline fill="none" stroke="#2e3436" stroke-width="1.5" points="-0.5,-25 -0.5,-13 "/>
<path fill="none" stroke="#2e3436" stroke-width="1.5" d="M-0.5,-13C-0.5,-7 5.5,-1 11.5,-1"/>
<text text-anchor="middle" x="31" y="-25.8" font-family="FreeSans" font-size="8.00" fill="#1c2021">Node[203]</text>
<polyline fill="none" stroke="#2e3436" stroke-width="1.5" points="-0.5,-19 62.5,-19 "/>
<text text-anchor="start" x="7.5" y="-7.8" font-family="FreeSans" font-size="8.00" fill="#1c2021">name = &#39;b&#39;</text>
</g>
<!-- N204 -->
<g id="node2" class="node"><title>N204</title>
<polygon fill="#ffffff" stroke="#ffffff" stroke-width="1.5" points="103,-1 141,-1 153,-13 153,-25 141,-37 103,-37 91,-25 91,-13 103,-1"/>
<path fill="#ffffff" stroke="#ffffff" stroke-width="1.5" d="M141,-1C147,-1 153,-7 153,-13"/>
<path fill="#ffffff" stroke="#ffffff" stroke-width="1.5" d="M153,-25C153,-31 147,-37 141,-37"/>
<path fill="#ffffff" stroke="#ffffff" stroke-width="1.5" d="M103,-37C97,-37 91,-31 91,-25"/>
<path fill="#ffffff" stroke="#ffffff" stroke-width="1.5" d="M91,-13C91,-7 97,-1 103,-1"/>
<polyline fill="none" stroke="#2e3436" stroke-width="1.5" points="103,-1 141,-1 "/>
<path fill="none" stroke="#2e3436" stroke-width="1.5" d="M141,-1C147,-1 153,-7 153,-13"/>
<polyline fill="none" stroke="#2e3436" stroke-width="1.5" points="153,-13 153,-25 "/>
<path fill="none" stroke="#2e3436" stroke-width="1.5" d="M153,-25C153,-31 147,-37 141,-37"/>
<polyline fill="none" stroke="#2e3436" stroke-width="1.5" points="141,-37 103,-37 "/>
<path fill="none" stroke="#2e3436" stroke-width="1.5" d="M103,-37C97,-37 91,-31 91,-25"/>
<polyline fill="none" stroke="#2e3436" stroke-width="1.5" points="91,-25 91,-13 "/>
<path fill="none" stroke="#2e3436" stroke-width="1.5" d="M91,-13C91,-7 97,-1 103,-1"/>
<text text-anchor="middle" x="122" y="-25.8" font-family="FreeSans" font-size="8.00" fill="#1c2021">Node[204]</text>
<polyline fill="none" stroke="#2e3436" stroke-width="1.5" points="91,-19 153,-19 "/>
<text text-anchor="start" x="99" y="-7.8" font-family="FreeSans" font-size="8.00" fill="#1c2021">name = &#39;c&#39;</text>
</g>
<!-- N205 -->
<g id="node3" class="node"><title>N205</title>
<polygon fill="#ffffff" stroke="#ffffff" stroke-width="1.5" points="193.5,-1 232.5,-1 244.5,-13 244.5,-25 232.5,-37 193.5,-37 181.5,-25 181.5,-13 193.5,-1"/>
<path fill="#ffffff" stroke="#ffffff" stroke-width="1.5" d="M232.5,-1C238.5,-1 244.5,-7 244.5,-13"/>
<path fill="#ffffff" stroke="#ffffff" stroke-width="1.5" d="M244.5,-25C244.5,-31 238.5,-37 232.5,-37"/>
<path fill="#ffffff" stroke="#ffffff" stroke-width="1.5" d="M193.5,-37C187.5,-37 181.5,-31 181.5,-25"/>
<path fill="#ffffff" stroke="#ffffff" stroke-width="1.5" d="M181.5,-13C181.5,-7 187.5,-1 193.5,-1"/>
<polyline fill="none" stroke="#2e3436" stroke-width="1.5" points="193.5,-1 232.5,-1 "/>
<path fill="none" stroke="#2e3436" stroke-width="1.5" d="M232.5,-1C238.5,-1 244.5,-7 244.5,-13"/>
<polyline fill="none" stroke="#2e3436" stroke-width="1.5" points="244.5,-13 244.5,-25 "/>
<path fill="none" stroke="#2e3436" stroke-width="1.5" d="M244.5,-25C244.5,-31 238.5,-37 232.5,-37"/>
<polyline fill="none" stroke="#2e3436" stroke-width="1.5" points="232.5,-37 193.5,-37 "/>
<path fill="none" stroke="#2e3436" stroke-width="1.5" d="M193.5,-37C187.5,-37 181.5,-31 181.5,-25"/>
<polyline fill="none" stroke="#2e3436" stroke-width="1.5" points="181.5,-25 181.5,-13 "/>
<path fill="none" stroke="#2e3436" stroke-width="1.5" d="M181.5,-13C181.5,-7 187.5,-1 193.5,-1"/>
<text text-anchor="middle" x="213" y="-25.8" font-family="FreeSans" font-size="8.00" fill="#1c2021">Node[205]</text>
<polyline fill="none" stroke="#2e3436" stroke-width="1.5" points="181.5,-19 244.5,-19 "/>
<text text-anchor="start" x="189.5" y="-7.8" font-family="FreeSans" font-size="8.00" fill="#1c2021">name = &#39;a&#39;</text>
</g>
</g>
</svg>
