<?xml version="1.0" encoding="UTF-8" standalone="no"?>
<!DOCTYPE svg PUBLIC "-//W3C//DTD SVG 1.1//EN"
 "http://www.w3.org/Graphics/SVG/1.1/DTD/svg11.dtd">
<!-- Generated by graphviz version 2.26.3 (20100126.1600)
 -->
<!-- Title: g Pages: 1 -->
<svg width="255pt" height="346pt"
 viewBox="0.00 0.00 255.00 346.00" xmlns="http://www.w3.org/2000/svg" xmlns:xlink="http://www.w3.org/1999/xlink">
<g id="graph1" class="graph" transform="scale(1 1) rotate(0) translate(4 342)">
<title>g</title>
<polygon fill="white" stroke="white" points="-4,5 -4,-342 252,-342 252,5 -4,5"/>
<!-- N55 -->
<g id="node1" class="node"><title>N55</title>
<polygon fill="#ffffff" stroke="#ffffff" stroke-width="1.5" points="11.5,-151 48.5,-151 60.5,-163 60.5,-175 48.5,-187 11.5,-187 -0.5,-175 -0.5,-163 11.5,-151"/>
<path fill="#ffffff" stroke="#ffffff" stroke-width="1.5" d="M48.5,-151C54.5,-151 60.5,-157 60.5,-163"/>
<path fill="#ffffff" stroke="#ffffff" stroke-width="1.5" d="M60.5,-175C60.5,-181 54.5,-187 48.5,-187"/>
<path fill="#ffffff" stroke="#ffffff" stroke-width="1.5" d="M11.5,-187C5.5,-187 -0.5,-181 -0.5,-175"/>
<path fill="#ffffff" stroke="#ffffff" stroke-width="1.5" d="M-0.5,-163C-0.5,-157 5.5,-151 11.5,-151"/>
<polyline fill="none" stroke="#2e3436" stroke-width="1.5" points="11.5,-151 48.5,-151 "/>
<path fill="none" stroke="#2e3436" stroke-width="1.5" d="M48.5,-151C54.5,-151 60.5,-157 60.5,-163"/>
<polyline fill="none" stroke="#2e3436" stroke-width="1.5" points="60.5,-163 60.5,-175 "/>
<path fill="none" stroke="#2e3436" stroke-width="1.5" d="M60.5,-175C60.5,-181 54.5,-187 48.5,-187"/>
<polyline fill="none" stroke="#2e3436" stroke-width="1.5" points="48.5,-187 11.5,-187 "/>
<path fill="none" stroke="#2e3436" stroke-width="1.5" d="M11.5,-187C5.5,-187 -0.5,-181 -0.5,-175"/>
<polyline fill="none" stroke="#2e3436" stroke-width="1.5" points="-0.5,-175 -0.5,-163 "/>
<path fill="none" stroke="#2e3436" stroke-width="1.5" d="M-0.5,-163C-0.5,-157 5.5,-151 11.5,-151"/>
<text text-anchor="middle" x="30" y="-175.8" font-family="FreeSans" font-size="8.00" fill="#1c2021">Node[55]</text>
<polyline fill="none" stroke="#2e3436" stroke-width="1.5" points="-0.5,-169 60.5,-169 "/>
<text text-anchor="start" x="7.5" y="-157.8" font-family="FreeSans" font-size="8.00" fill="#1c2021">name = &#39;f&#39;</text>
</g>
<!-- N57 -->
<g id="node3" class="node"><title>N57</title>
<polygon fill="#ffffff" stroke="#ffffff" stroke-width="1.5" points="99.5,-1 138.5,-1 150.5,-13 150.5,-25 138.5,-37 99.5,-37 87.5,-25 87.5,-13 99.5,-1"/>
<path fill="#ffffff" stroke="#ffffff" stroke-width="1.5" d="M138.5,-1C144.5,-1 150.5,-7 150.5,-13"/>
<path fill="#ffffff" stroke="#ffffff" stroke-width="1.5" d="M150.5,-25C150.5,-31 144.5,-37 138.5,-37"/>
<path fill="#ffffff" stroke="#ffffff" stroke-width="1.5" d="M99.5,-37C93.5,-37 87.5,-31 87.5,-25"/>
<path fill="#ffffff" stroke="#ffffff" stroke-width="1.5" d="M87.5,-13C87.5,-7 93.5,-1 99.5,-1"/>
<polyline fill="none" stroke="#2e3436" stroke-width="1.5" points="99.5,-1 138.5,-1 "/>
<path fill="none" stroke="#2e3436" stroke-width="1.5" d="M138.5,-1C144.5,-1 150.5,-7 150.5,-13"/>
<polyline fill="none" stroke="#2e3436" stroke-width="1.5" points="150.5,-13 150.5,-25 "/>
<path fill="none" stroke="#2e3436" stroke-width="1.5" d="M150.5,-25C150.5,-31 144.5,-37 138.5,-37"/>
<polyline fill="none" stroke="#2e3436" stroke-width="1.5" points="138.5,-37 99.5,-37 "/>
<path fill="none" stroke="#2e3436" stroke-width="1.5" d="M99.5,-37C93.5,-37 87.5,-31 87.5,-25"/>
<polyline fill="none" stroke="#2e3436" stroke-width="1.5" points="87.5,-25 87.5,-13 "/>
<path fill="none" stroke="#2e3436" stroke-width="1.5" d="M87.5,-13C87.5,-7 93.5,-1 99.5,-1"/>
<text text-anchor="middle" x="119" y="-25.8" font-family="FreeSans" font-size="8.00" fill="#1c2021">Node[57]</text>
<polyline fill="none" stroke="#2e3436" stroke-width="1.5" points="87.5,-19 150.5,-19 "/>
<text text-anchor="start" x="95.5" y="-7.8" font-family="FreeSans" font-size="8.00" fill="#1c2021">name = &#39;e&#39;</text>
</g>
<!-- N55&#45;&gt;N57 -->
<g id="edge2" class="edge"><title>N55&#45;&gt;N57</title>
<path fill="none" stroke="#2e3436" stroke-width="2" d="M40.7355,-150.906C56.6389,-124.103 86.4997,-73.7758 104.385,-43.6318"/>
<polygon fill="#2e3436" stroke="#2e3436" points="108.226,-37.1577 107.302,-45.33 106.743,-40.6379 104.829,-43.8629 104.399,-43.6078 103.969,-43.3526 105.883,-40.1276 101.497,-41.8856 108.226,-37.1577 108.226,-37.1577"/>
<text text-anchor="middle" x="93.5" y="-115.8" font-family="FreeSans" font-size="8.00" fill="#2e3436">to</text>
<text text-anchor="start" x="75" y="-105.8" font-family="FreeSans" font-size="8.00" fill="#2e3436">cost = 1</text>
</g>
<!-- N56 -->
<g id="node4" class="node"><title>N56</title>
<polygon fill="#ffffff" stroke="#ffffff" stroke-width="1.5" points="196.5,-95 235.5,-95 247.5,-107 247.5,-119 235.5,-131 196.5,-131 184.5,-119 184.5,-107 196.5,-95"/>
<path fill="#ffffff" stroke="#ffffff" stroke-width="1.5" d="M235.5,-95C241.5,-95 247.5,-101 247.5,-107"/>
<path fill="#ffffff" stroke="#ffffff" stroke-width="1.5" d="M247.5,-119C247.5,-125 241.5,-131 235.5,-131"/>
<path fill="#ffffff" stroke="#ffffff" stroke-width="1.5" d="M196.5,-131C190.5,-131 184.5,-125 184.5,-119"/>
<path fill="#ffffff" stroke="#ffffff" stroke-width="1.5" d="M184.5,-107C184.5,-101 190.5,-95 196.5,-95"/>
<polyline fill="none" stroke="#2e3436" stroke-width="1.5" points="196.5,-95 235.5,-95 "/>
<path fill="none" stroke="#2e3436" stroke-width="1.5" d="M235.5,-95C241.5,-95 247.5,-101 247.5,-107"/>
<polyline fill="none" stroke="#2e3436" stroke-width="1.5" points="247.5,-107 247.5,-119 "/>
<path fill="none" stroke="#2e3436" stroke-width="1.5" d="M247.5,-119C247.5,-125 241.5,-131 235.5,-131"/>
<polyline fill="none" stroke="#2e3436" stroke-width="1.5" points="235.5,-131 196.5,-131 "/>
<path fill="none" stroke="#2e3436" stroke-width="1.5" d="M196.5,-131C190.5,-131 184.5,-125 184.5,-119"/>
<polyline fill="none" stroke="#2e3436" stroke-width="1.5" points="184.5,-119 184.5,-107 "/>
<path fill="none" stroke="#2e3436" stroke-width="1.5" d="M184.5,-107C184.5,-101 190.5,-95 196.5,-95"/>
<text text-anchor="middle" x="216" y="-119.8" font-family="FreeSans" font-size="8.00" fill="#1c2021">Node[56]</text>
<polyline fill="none" stroke="#2e3436" stroke-width="1.5" points="184.5,-113 247.5,-113 "/>
<text text-anchor="start" x="192.5" y="-101.8" font-family="FreeSans" font-size="8.00" fill="#1c2021">name = &#39;d&#39;</text>
</g>
<!-- N56&#45;&gt;N57 -->
<g id="edge4" class="edge"><title>N56&#45;&gt;N57</title>
<path fill="none" stroke="#2e3436" stroke-width="2" d="M197.297,-94.8759C181.865,-79.9211 159.862,-58.5983 143.108,-42.3629"/>
<polygon fill="#2e3436" stroke="#2e3436" points="137.645,-37.0685 145.38,-39.8642 140.686,-39.3191 143.379,-41.9288 143.031,-42.2879 142.683,-42.647 139.99,-40.0373 140.682,-44.7116 137.645,-37.0685 137.645,-37.0685"/>
<text text-anchor="middle" x="194.5" y="-68.8" font-family="FreeSans" font-size="8.00" fill="#2e3436">to</text>
<text text-anchor="start" x="176" y="-58.8" font-family="FreeSans" font-size="8.00" fill="#2e3436">cost = 1</text>
</g>
<!-- N58 -->
<g id="node6" class="node"><title>N58</title>
<polygon fill="#ffffff" stroke="#ffffff" stroke-width="1.5" points="99.5,-151 138.5,-151 150.5,-163 150.5,-175 138.5,-187 99.5,-187 87.5,-175 87.5,-163 99.5,-151"/>
<path fill="#ffffff" stroke="#ffffff" stroke-width="1.5" d="M138.5,-151C144.5,-151 150.5,-157 150.5,-163"/>
<path fill="#ffffff" stroke="#ffffff" stroke-width="1.5" d="M150.5,-175C150.5,-181 144.5,-187 138.5,-187"/>
<path fill="#ffffff" stroke="#ffffff" stroke-width="1.5" d="M99.5,-187C93.5,-187 87.5,-181 87.5,-175"/>
<path fill="#ffffff" stroke="#ffffff" stroke-width="1.5" d="M87.5,-163C87.5,-157 93.5,-151 99.5,-151"/>
<polyline fill="none" stroke="#2e3436" stroke-width="1.5" points="99.5,-151 138.5,-151 "/>
<path fill="none" stroke="#2e3436" stroke-width="1.5" d="M138.5,-151C144.5,-151 150.5,-157 150.5,-163"/>
<polyline fill="none" stroke="#2e3436" stroke-width="1.5" points="150.5,-163 150.5,-175 "/>
<path fill="none" stroke="#2e3436" stroke-width="1.5" d="M150.5,-175C150.5,-181 144.5,-187 138.5,-187"/>
<polyline fill="none" stroke="#2e3436" stroke-width="1.5" points="138.5,-187 99.5,-187 "/>
<path fill="none" stroke="#2e3436" stroke-width="1.5" d="M99.5,-187C93.5,-187 87.5,-181 87.5,-175"/>
<polyline fill="none" stroke="#2e3436" stroke-width="1.5" points="87.5,-175 87.5,-163 "/>
<path fill="none" stroke="#2e3436" stroke-width="1.5" d="M87.5,-163C87.5,-157 93.5,-151 99.5,-151"/>
<text text-anchor="middle" x="119" y="-175.8" font-family="FreeSans" font-size="8.00" fill="#1c2021">Node[58]</text>
<polyline fill="none" stroke="#2e3436" stroke-width="1.5" points="87.5,-169 150.5,-169 "/>
<text text-anchor="start" x="95.5" y="-157.8" font-family="FreeSans" font-size="8.00" fill="#1c2021">name = &#39;b&#39;</text>
</g>
<!-- N58&#45;&gt;N57 -->
<g id="edge6" class="edge"><title>N58&#45;&gt;N57</title>
<path fill="none" stroke="#2e3436" stroke-width="2" d="M119,-150.906C119,-124.441 119,-75.0408 119,-44.7812"/>
<polygon fill="#2e3436" stroke="#2e3436" points="119,-37.1577 122.375,-44.6576 119.5,-40.9077 119.5,-44.6577 119,-44.6577 118.5,-44.6577 118.5,-40.9077 115.625,-44.6577 119,-37.1577 119,-37.1577"/>
<text text-anchor="middle" x="137.5" y="-115.8" font-family="FreeSans" font-size="8.00" fill="#2e3436">to</text>
<text text-anchor="start" x="119" y="-105.8" font-family="FreeSans" font-size="8.00" fill="#2e3436">cost = 1</text>
</g>
<!-- N59 -->
<g id="node8" class="node"><title>N59</title>
<polygon fill="#ffffff" stroke="#ffffff" stroke-width="1.5" points="180,-207 218,-207 230,-219 230,-231 218,-243 180,-243 168,-231 168,-219 180,-207"/>
<path fill="#ffffff" stroke="#ffffff" stroke-width="1.5" d="M218,-207C224,-207 230,-213 230,-219"/>
<path fill="#ffffff" stroke="#ffffff" stroke-width="1.5" d="M230,-231C230,-237 224,-243 218,-243"/>
<path fill="#ffffff" stroke="#ffffff" stroke-width="1.5" d="M180,-243C174,-243 168,-237 168,-231"/>
<path fill="#ffffff" stroke="#ffffff" stroke-width="1.5" d="M168,-219C168,-213 174,-207 180,-207"/>
<polyline fill="none" stroke="#2e3436" stroke-width="1.5" points="180,-207 218,-207 "/>
<path fill="none" stroke="#2e3436" stroke-width="1.5" d="M218,-207C224,-207 230,-213 230,-219"/>
<polyline fill="none" stroke="#2e3436" stroke-width="1.5" points="230,-219 230,-231 "/>
<path fill="none" stroke="#2e3436" stroke-width="1.5" d="M230,-231C230,-237 224,-243 218,-243"/>
<polyline fill="none" stroke="#2e3436" stroke-width="1.5" points="218,-243 180,-243 "/>
<path fill="none" stroke="#2e3436" stroke-width="1.5" d="M180,-243C174,-243 168,-237 168,-231"/>
<polyline fill="none" stroke="#2e3436" stroke-width="1.5" points="168,-231 168,-219 "/>
<path fill="none" stroke="#2e3436" stroke-width="1.5" d="M168,-219C168,-213 174,-207 180,-207"/>
<text text-anchor="middle" x="199" y="-231.8" font-family="FreeSans" font-size="8.00" fill="#1c2021">Node[59]</text>
<polyline fill="none" stroke="#2e3436" stroke-width="1.5" points="168,-225 230,-225 "/>
<text text-anchor="start" x="176" y="-213.8" font-family="FreeSans" font-size="8.00" fill="#1c2021">name = &#39;c&#39;</text>
</g>
<!-- N59&#45;&gt;N56 -->
<g id="edge8" class="edge"><title>N59&#45;&gt;N56</title>
<path fill="none" stroke="#2e3436" stroke-width="2" d="M201.807,-206.505C204.617,-187.994 208.963,-159.364 212.105,-138.66"/>
<polygon fill="#2e3436" stroke="#2e3436" points="213.245,-131.15 215.456,-139.072 213.177,-134.933 212.614,-138.64 212.119,-138.565 211.625,-138.49 212.188,-134.783 208.783,-138.059 213.245,-131.15 213.245,-131.15"/>
<text text-anchor="middle" x="228.5" y="-171.8" font-family="FreeSans" font-size="8.00" fill="#2e3436">to</text>
<text text-anchor="start" x="210" y="-161.8" font-family="FreeSans" font-size="8.00" fill="#2e3436">cost = 1</text>
</g>
<!-- N60 -->
<g id="node10" class="node"><title>N60</title>
<polygon fill="#ffffff" stroke="#ffffff" stroke-width="1.5" points="99.5,-301 138.5,-301 150.5,-313 150.5,-325 138.5,-337 99.5,-337 87.5,-325 87.5,-313 99.5,-301"/>
<path fill="#ffffff" stroke="#ffffff" stroke-width="1.5" d="M138.5,-301C144.5,-301 150.5,-307 150.5,-313"/>
<path fill="#ffffff" stroke="#ffffff" stroke-width="1.5" d="M150.5,-325C150.5,-331 144.5,-337 138.5,-337"/>
<path fill="#ffffff" stroke="#ffffff" stroke-width="1.5" d="M99.5,-337C93.5,-337 87.5,-331 87.5,-325"/>
<path fill="#ffffff" stroke="#ffffff" stroke-width="1.5" d="M87.5,-313C87.5,-307 93.5,-301 99.5,-301"/>
<polyline fill="none" stroke="#2e3436" stroke-width="1.5" points="99.5,-301 138.5,-301 "/>
<path fill="none" stroke="#2e3436" stroke-width="1.5" d="M138.5,-301C144.5,-301 150.5,-307 150.5,-313"/>
<polyline fill="none" stroke="#2e3436" stroke-width="1.5" points="150.5,-313 150.5,-325 "/>
<path fill="none" stroke="#2e3436" stroke-width="1.5" d="M150.5,-325C150.5,-331 144.5,-337 138.5,-337"/>
<polyline fill="none" stroke="#2e3436" stroke-width="1.5" points="138.5,-337 99.5,-337 "/>
<path fill="none" stroke="#2e3436" stroke-width="1.5" d="M99.5,-337C93.5,-337 87.5,-331 87.5,-325"/>
<polyline fill="none" stroke="#2e3436" stroke-width="1.5" points="87.5,-325 87.5,-313 "/>
<path fill="none" stroke="#2e3436" stroke-width="1.5" d="M87.5,-313C87.5,-307 93.5,-301 99.5,-301"/>
<text text-anchor="middle" x="119" y="-325.8" font-family="FreeSans" font-size="8.00" fill="#1c2021">Node[60]</text>
<polyline fill="none" stroke="#2e3436" stroke-width="1.5" points="87.5,-319 150.5,-319 "/>
<text text-anchor="start" x="95.5" y="-307.8" font-family="FreeSans" font-size="8.00" fill="#1c2021">name = &#39;a&#39;</text>
</g>
<!-- N60&#45;&gt;N55 -->
<g id="edge14" class="edge"><title>N60&#45;&gt;N55</title>
<path fill="none" stroke="#2e3436" stroke-width="2" d="M91.4625,-300.768C84.7542,-295.341 78.0616,-288.964 73,-282 53.6235,-255.341 41.8401,-218.878 35.6245,-194.664"/>
<polygon fill="#2e3436" stroke="#2e3436" points="33.7995,-187.261 38.8716,-193.735 35.1826,-190.782 36.0802,-194.423 35.5947,-194.543 35.1092,-194.662 34.2117,-191.021 32.3178,-195.35 33.7995,-187.261 33.7995,-187.261"/>
<text text-anchor="middle" x="91.5" y="-274.8" font-family="FreeSans" font-size="8.00" fill="#2e3436">to</text>
<text text-anchor="start" x="73" y="-264.8" font-family="FreeSans" font-size="8.00" fill="#2e3436">cost = 1</text>
</g>
<!-- N60&#45;&gt;N58 -->
<g id="edge10" class="edge"><title>N60&#45;&gt;N58</title>
<path fill="none" stroke="#2e3436" stroke-width="2" d="M117.828,-300.942C117.49,-294.92 117.167,-288.173 117,-282 116.19,-251.998 117.062,-217.505 117.895,-194.6"/>
<polygon fill="#2e3436" stroke="#2e3436" points="118.185,-187.008 121.271,-194.631 118.542,-190.774 118.398,-194.521 117.899,-194.502 117.399,-194.483 117.542,-190.736 114.526,-194.373 118.185,-187.008 118.185,-187.008"/>
<text text-anchor="middle" x="135.5" y="-274.8" font-family="FreeSans" font-size="8.00" fill="#2e3436">to</text>
<text text-anchor="start" x="117" y="-264.8" font-family="FreeSans" font-size="8.00" fill="#2e3436">cost = 1</text>
</g>
<!-- N60&#45;&gt;N59 -->
<g id="edge12" class="edge"><title>N60&#45;&gt;N59</title>
<path fill="none" stroke="#2e3436" stroke-width="2" d="M141.817,-300.81C148.345,-295.113 155.244,-288.585 161,-282 169.668,-272.083 177.948,-260.08 184.553,-249.651"/>
<polygon fill="#2e3436" stroke="#2e3436" points="188.639,-243.062 187.554,-251.215 187.087,-246.513 185.111,-249.7 184.686,-249.436 184.261,-249.172 186.237,-245.986 181.818,-247.657 188.639,-243.062 188.639,-243.062"/>
<text text-anchor="middle" x="193.5" y="-274.8" font-family="FreeSans" font-size="8.00" fill="#2e3436">to</text>
<text text-anchor="start" x="175" y="-264.8" font-family="FreeSans" font-size="8.00" fill="#2e3436">cost = 1</text>
</g>
</g>
</svg>
