<?xml version="1.0" encoding="UTF-8" standalone="no"?>
<!DOCTYPE svg PUBLIC "-//W3C//DTD SVG 1.1//EN"
 "http://www.w3.org/Graphics/SVG/1.1/DTD/svg11.dtd">
<!-- Generated by graphviz version 2.26.3 (20100126.1600)
 -->
<!-- Title: g Pages: 1 -->
<svg width="454pt" height="46pt"
 viewBox="0.00 0.00 454.00 46.00" xmlns="http://www.w3.org/2000/svg" xmlns:xlink="http://www.w3.org/1999/xlink">
<g id="graph1" class="graph" transform="scale(1 1) rotate(0) translate(4 42)">
<title>g</title>
<polygon fill="white" stroke="white" points="-4,5 -4,-42 451,-42 451,5 -4,5"/>
<!-- N77 -->
<g id="node1" class="node"><title>N77</title>
<polygon fill="#ffffff" stroke="#ffffff" stroke-width="1.5" points="11.5,-1 118.5,-1 130.5,-13 130.5,-25 118.5,-37 11.5,-37 -0.5,-25 -0.5,-13 11.5,-1"/>
<path fill="#ffffff" stroke="#ffffff" stroke-width="1.5" d="M118.5,-1C124.5,-1 130.5,-7 130.5,-13"/>
<path fill="#ffffff" stroke="#ffffff" stroke-width="1.5" d="M130.5,-25C130.5,-31 124.5,-37 118.5,-37"/>
<path fill="#ffffff" stroke="#ffffff" stroke-width="1.5" d="M11.5,-37C5.5,-37 -0.5,-31 -0.5,-25"/>
<path fill="#ffffff" stroke="#ffffff" stroke-width="1.5" d="M-0.5,-13C-0.5,-7 5.5,-1 11.5,-1"/>
<polyline fill="none" stroke="#2e3436" stroke-width="1.5" points="11.5,-1 118.5,-1 "/>
<path fill="none" stroke="#2e3436" stroke-width="1.5" d="M118.5,-1C124.5,-1 130.5,-7 130.5,-13"/>
<polyline fill="none" stroke="#2e3436" stroke-width="1.5" points="130.5,-13 130.5,-25 "/>
<path fill="none" stroke="#2e3436" stroke-width="1.5" d="M130.5,-25C130.5,-31 124.5,-37 118.5,-37"/>
<polyline fill="none" stroke="#2e3436" stroke-width="1.5" points="118.5,-37 11.5,-37 "/>
<path fill="none" stroke="#2e3436" stroke-width="1.5" d="M11.5,-37C5.5,-37 -0.5,-31 -0.5,-25"/>
<polyline fill="none" stroke="#2e3436" stroke-width="1.5" points="-0.5,-25 -0.5,-13 "/>
<path fill="none" stroke="#2e3436" stroke-width="1.5" d="M-0.5,-13C-0.5,-7 5.5,-1 11.5,-1"/>
<text text-anchor="middle" x="65" y="-25.8" font-family="FreeSans" font-size="8.00" fill="#1c2021">Node[77]: Director</text>
<polyline fill="none" stroke="#2e3436" stroke-width="1.5" points="-0.5,-19 130.5,-19 "/>
<text text-anchor="start" x="7.5" y="-7.8" font-family="FreeSans" font-size="8.00" fill="#1c2021">name = &#39;Steven Spielberg&#39;</text>
</g>
<!-- N78 -->
<g id="node2" class="node"><title>N78</title>
<polygon fill="#ffffff" stroke="#ffffff" stroke-width="1.5" points="171,-1 269,-1 281,-13 281,-25 269,-37 171,-37 159,-25 159,-13 171,-1"/>
<path fill="#ffffff" stroke="#ffffff" stroke-width="1.5" d="M269,-1C275,-1 281,-7 281,-13"/>
<path fill="#ffffff" stroke="#ffffff" stroke-width="1.5" d="M281,-25C281,-31 275,-37 269,-37"/>
<path fill="#ffffff" stroke="#ffffff" stroke-width="1.5" d="M171,-37C165,-37 159,-31 159,-25"/>
<path fill="#ffffff" stroke="#ffffff" stroke-width="1.5" d="M159,-13C159,-7 165,-1 171,-1"/>
<polyline fill="none" stroke="#2e3436" stroke-width="1.5" points="171,-1 269,-1 "/>
<path fill="none" stroke="#2e3436" stroke-width="1.5" d="M269,-1C275,-1 281,-7 281,-13"/>
<polyline fill="none" stroke="#2e3436" stroke-width="1.5" points="281,-13 281,-25 "/>
<path fill="none" stroke="#2e3436" stroke-width="1.5" d="M281,-25C281,-31 275,-37 269,-37"/>
<polyline fill="none" stroke="#2e3436" stroke-width="1.5" points="269,-37 171,-37 "/>
<path fill="none" stroke="#2e3436" stroke-width="1.5" d="M171,-37C165,-37 159,-31 159,-25"/>
<polyline fill="none" stroke="#2e3436" stroke-width="1.5" points="159,-25 159,-13 "/>
<path fill="none" stroke="#2e3436" stroke-width="1.5" d="M159,-13C159,-7 165,-1 171,-1"/>
<text text-anchor="middle" x="220" y="-25.8" font-family="FreeSans" font-size="8.00" fill="#1c2021">Node[78]: Actor, Director</text>
<polyline fill="none" stroke="#2e3436" stroke-width="1.5" points="159,-19 281,-19 "/>
<text text-anchor="start" x="167" y="-7.8" font-family="FreeSans" font-size="8.00" fill="#1c2021">name = &#39;Clint Eastwood&#39;</text>
</g>
<!-- N79 -->
<g id="node3" class="node"><title>N79</title>
<polygon fill="#ffffff" stroke="#ffffff" stroke-width="1.5" points="321.5,-1 434.5,-1 446.5,-13 446.5,-25 434.5,-37 321.5,-37 309.5,-25 309.5,-13 321.5,-1"/>
<path fill="#ffffff" stroke="#ffffff" stroke-width="1.5" d="M434.5,-1C440.5,-1 446.5,-7 446.5,-13"/>
<path fill="#ffffff" stroke="#ffffff" stroke-width="1.5" d="M446.5,-25C446.5,-31 440.5,-37 434.5,-37"/>
<path fill="#ffffff" stroke="#ffffff" stroke-width="1.5" d="M321.5,-37C315.5,-37 309.5,-31 309.5,-25"/>
<path fill="#ffffff" stroke="#ffffff" stroke-width="1.5" d="M309.5,-13C309.5,-7 315.5,-1 321.5,-1"/>
<polyline fill="none" stroke="#2e3436" stroke-width="1.5" points="321.5,-1 434.5,-1 "/>
<path fill="none" stroke="#2e3436" stroke-width="1.5" d="M434.5,-1C440.5,-1 446.5,-7 446.5,-13"/>
<polyline fill="none" stroke="#2e3436" stroke-width="1.5" points="446.5,-13 446.5,-25 "/>
<path fill="none" stroke="#2e3436" stroke-width="1.5" d="M446.5,-25C446.5,-31 440.5,-37 434.5,-37"/>
<polyline fill="none" stroke="#2e3436" stroke-width="1.5" points="434.5,-37 321.5,-37 "/>
<path fill="none" stroke="#2e3436" stroke-width="1.5" d="M321.5,-37C315.5,-37 309.5,-31 309.5,-25"/>
<polyline fill="none" stroke="#2e3436" stroke-width="1.5" points="309.5,-25 309.5,-13 "/>
<path fill="none" stroke="#2e3436" stroke-width="1.5" d="M309.5,-13C309.5,-7 315.5,-1 321.5,-1"/>
<text text-anchor="middle" x="378" y="-25.8" font-family="FreeSans" font-size="8.00" fill="#1c2021">Node[79]: Actor</text>
<polyline fill="none" stroke="#2e3436" stroke-width="1.5" points="309.5,-19 446.5,-19 "/>
<text text-anchor="start" x="317.5" y="-7.8" font-family="FreeSans" font-size="8.00" fill="#1c2021">name = &#39;Donald Sutherland&#39;</text>
</g>
</g>
</svg>
