<?xml version="1.0" encoding="UTF-8" standalone="no"?>
<!DOCTYPE svg PUBLIC "-//W3C//DTD SVG 1.1//EN"
 "http://www.w3.org/Graphics/SVG/1.1/DTD/svg11.dtd">
<!-- Generated by graphviz version 2.26.3 (20100126.1600)
 -->
<!-- Title: g Pages: 1 -->
<svg width="279pt" height="346pt"
 viewBox="0.00 0.00 279.00 346.00" xmlns="http://www.w3.org/2000/svg" xmlns:xlink="http://www.w3.org/1999/xlink">
<g id="graph1" class="graph" transform="scale(1 1) rotate(0) translate(4 342)">
<title>g</title>
<polygon fill="white" stroke="white" points="-4,5 -4,-342 276,-342 276,5 -4,5"/>
<!-- N49 -->
<g id="node1" class="node"><title>N49</title>
<polygon fill="#ffffff" stroke="#ffffff" stroke-width="1.5" points="11.5,-151 48.5,-151 60.5,-163 60.5,-175 48.5,-187 11.5,-187 -0.5,-175 -0.5,-163 11.5,-151"/>
<path fill="#ffffff" stroke="#ffffff" stroke-width="1.5" d="M48.5,-151C54.5,-151 60.5,-157 60.5,-163"/>
<path fill="#ffffff" stroke="#ffffff" stroke-width="1.5" d="M60.5,-175C60.5,-181 54.5,-187 48.5,-187"/>
<path fill="#ffffff" stroke="#ffffff" stroke-width="1.5" d="M11.5,-187C5.5,-187 -0.5,-181 -0.5,-175"/>
<path fill="#ffffff" stroke="#ffffff" stroke-width="1.5" d="M-0.5,-163C-0.5,-157 5.5,-151 11.5,-151"/>
<polyline fill="none" stroke="#2e3436" stroke-width="1.5" points="11.5,-151 48.5,-151 "/>
<path fill="none" stroke="#2e3436" stroke-width="1.5" d="M48.5,-151C54.5,-151 60.5,-157 60.5,-163"/>
<polyline fill="none" stroke="#2e3436" stroke-width="1.5" points="60.5,-163 60.5,-175 "/>
<path fill="none" stroke="#2e3436" stroke-width="1.5" d="M60.5,-175C60.5,-181 54.5,-187 48.5,-187"/>
<polyline fill="none" stroke="#2e3436" stroke-width="1.5" points="48.5,-187 11.5,-187 "/>
<path fill="none" stroke="#2e3436" stroke-width="1.5" d="M11.5,-187C5.5,-187 -0.5,-181 -0.5,-175"/>
<polyline fill="none" stroke="#2e3436" stroke-width="1.5" points="-0.5,-175 -0.5,-163 "/>
<path fill="none" stroke="#2e3436" stroke-width="1.5" d="M-0.5,-163C-0.5,-157 5.5,-151 11.5,-151"/>
<text text-anchor="middle" x="30" y="-175.8" font-family="FreeSans" font-size="8.00" fill="#1c2021">Node[49]</text>
<polyline fill="none" stroke="#2e3436" stroke-width="1.5" points="-0.5,-169 60.5,-169 "/>
<text text-anchor="start" x="7.5" y="-157.8" font-family="FreeSans" font-size="8.00" fill="#1c2021">name = &#39;f&#39;</text>
</g>
<!-- N51 -->
<g id="node3" class="node"><title>N51</title>
<polygon fill="#ffffff" stroke="#ffffff" stroke-width="1.5" points="107.5,-1 146.5,-1 158.5,-13 158.5,-25 146.5,-37 107.5,-37 95.5,-25 95.5,-13 107.5,-1"/>
<path fill="#ffffff" stroke="#ffffff" stroke-width="1.5" d="M146.5,-1C152.5,-1 158.5,-7 158.5,-13"/>
<path fill="#ffffff" stroke="#ffffff" stroke-width="1.5" d="M158.5,-25C158.5,-31 152.5,-37 146.5,-37"/>
<path fill="#ffffff" stroke="#ffffff" stroke-width="1.5" d="M107.5,-37C101.5,-37 95.5,-31 95.5,-25"/>
<path fill="#ffffff" stroke="#ffffff" stroke-width="1.5" d="M95.5,-13C95.5,-7 101.5,-1 107.5,-1"/>
<polyline fill="none" stroke="#2e3436" stroke-width="1.5" points="107.5,-1 146.5,-1 "/>
<path fill="none" stroke="#2e3436" stroke-width="1.5" d="M146.5,-1C152.5,-1 158.5,-7 158.5,-13"/>
<polyline fill="none" stroke="#2e3436" stroke-width="1.5" points="158.5,-13 158.5,-25 "/>
<path fill="none" stroke="#2e3436" stroke-width="1.5" d="M158.5,-25C158.5,-31 152.5,-37 146.5,-37"/>
<polyline fill="none" stroke="#2e3436" stroke-width="1.5" points="146.5,-37 107.5,-37 "/>
<path fill="none" stroke="#2e3436" stroke-width="1.5" d="M107.5,-37C101.5,-37 95.5,-31 95.5,-25"/>
<polyline fill="none" stroke="#2e3436" stroke-width="1.5" points="95.5,-25 95.5,-13 "/>
<path fill="none" stroke="#2e3436" stroke-width="1.5" d="M95.5,-13C95.5,-7 101.5,-1 107.5,-1"/>
<text text-anchor="middle" x="127" y="-25.8" font-family="FreeSans" font-size="8.00" fill="#1c2021">Node[51]</text>
<polyline fill="none" stroke="#2e3436" stroke-width="1.5" points="95.5,-19 158.5,-19 "/>
<text text-anchor="start" x="103.5" y="-7.8" font-family="FreeSans" font-size="8.00" fill="#1c2021">name = &#39;e&#39;</text>
</g>
<!-- N49&#45;&gt;N51 -->
<g id="edge2" class="edge"><title>N49&#45;&gt;N51</title>
<path fill="none" stroke="#2e3436" stroke-width="2" d="M40.4016,-150.915C49.319,-135.595 62.645,-113.135 75,-94 86.0305,-76.9164 99.0708,-58.1114 109.333,-43.605"/>
<polygon fill="#2e3436" stroke="#2e3436" points="113.836,-37.2639 112.245,-45.3331 112.072,-40.611 109.901,-43.6686 109.494,-43.3791 109.086,-43.0897 111.257,-40.0321 106.742,-41.4252 113.836,-37.2639 113.836,-37.2639"/>
<text text-anchor="middle" x="97.5" y="-115.8" font-family="FreeSans" font-size="8.00" fill="#2e3436">to</text>
<text text-anchor="start" x="75" y="-105.8" font-family="FreeSans" font-size="8.00" fill="#2e3436">cost = 1.2</text>
</g>
<!-- N50 -->
<g id="node4" class="node"><title>N50</title>
<polygon fill="#ffffff" stroke="#ffffff" stroke-width="1.5" points="212.5,-95 251.5,-95 263.5,-107 263.5,-119 251.5,-131 212.5,-131 200.5,-119 200.5,-107 212.5,-95"/>
<path fill="#ffffff" stroke="#ffffff" stroke-width="1.5" d="M251.5,-95C257.5,-95 263.5,-101 263.5,-107"/>
<path fill="#ffffff" stroke="#ffffff" stroke-width="1.5" d="M263.5,-119C263.5,-125 257.5,-131 251.5,-131"/>
<path fill="#ffffff" stroke="#ffffff" stroke-width="1.5" d="M212.5,-131C206.5,-131 200.5,-125 200.5,-119"/>
<path fill="#ffffff" stroke="#ffffff" stroke-width="1.5" d="M200.5,-107C200.5,-101 206.5,-95 212.5,-95"/>
<polyline fill="none" stroke="#2e3436" stroke-width="1.5" points="212.5,-95 251.5,-95 "/>
<path fill="none" stroke="#2e3436" stroke-width="1.5" d="M251.5,-95C257.5,-95 263.5,-101 263.5,-107"/>
<polyline fill="none" stroke="#2e3436" stroke-width="1.5" points="263.5,-107 263.5,-119 "/>
<path fill="none" stroke="#2e3436" stroke-width="1.5" d="M263.5,-119C263.5,-125 257.5,-131 251.5,-131"/>
<polyline fill="none" stroke="#2e3436" stroke-width="1.5" points="251.5,-131 212.5,-131 "/>
<path fill="none" stroke="#2e3436" stroke-width="1.5" d="M212.5,-131C206.5,-131 200.5,-125 200.5,-119"/>
<polyline fill="none" stroke="#2e3436" stroke-width="1.5" points="200.5,-119 200.5,-107 "/>
<path fill="none" stroke="#2e3436" stroke-width="1.5" d="M200.5,-107C200.5,-101 206.5,-95 212.5,-95"/>
<text text-anchor="middle" x="232" y="-119.8" font-family="FreeSans" font-size="8.00" fill="#1c2021">Node[50]</text>
<polyline fill="none" stroke="#2e3436" stroke-width="1.5" points="200.5,-113 263.5,-113 "/>
<text text-anchor="start" x="208.5" y="-101.8" font-family="FreeSans" font-size="8.00" fill="#1c2021">name = &#39;d&#39;</text>
</g>
<!-- N50&#45;&gt;N51 -->
<g id="edge4" class="edge"><title>N50&#45;&gt;N51</title>
<path fill="none" stroke="#2e3436" stroke-width="2" d="M211.755,-94.8759C195.05,-79.9211 171.232,-58.5983 153.097,-42.3629"/>
<polygon fill="#2e3436" stroke="#2e3436" points="147.183,-37.0685 155.022,-39.5565 150.31,-39.1972 153.104,-41.6985 152.771,-42.0711 152.437,-42.4436 149.643,-39.9423 150.52,-44.5856 147.183,-37.0685 147.183,-37.0685"/>
<text text-anchor="middle" x="210.5" y="-68.8" font-family="FreeSans" font-size="8.00" fill="#2e3436">to</text>
<text text-anchor="start" x="188" y="-58.8" font-family="FreeSans" font-size="8.00" fill="#2e3436">cost = 0.5</text>
</g>
<!-- N52 -->
<g id="node6" class="node"><title>N52</title>
<polygon fill="#ffffff" stroke="#ffffff" stroke-width="1.5" points="107.5,-151 146.5,-151 158.5,-163 158.5,-175 146.5,-187 107.5,-187 95.5,-175 95.5,-163 107.5,-151"/>
<path fill="#ffffff" stroke="#ffffff" stroke-width="1.5" d="M146.5,-151C152.5,-151 158.5,-157 158.5,-163"/>
<path fill="#ffffff" stroke="#ffffff" stroke-width="1.5" d="M158.5,-175C158.5,-181 152.5,-187 146.5,-187"/>
<path fill="#ffffff" stroke="#ffffff" stroke-width="1.5" d="M107.5,-187C101.5,-187 95.5,-181 95.5,-175"/>
<path fill="#ffffff" stroke="#ffffff" stroke-width="1.5" d="M95.5,-163C95.5,-157 101.5,-151 107.5,-151"/>
<polyline fill="none" stroke="#2e3436" stroke-width="1.5" points="107.5,-151 146.5,-151 "/>
<path fill="none" stroke="#2e3436" stroke-width="1.5" d="M146.5,-151C152.5,-151 158.5,-157 158.5,-163"/>
<polyline fill="none" stroke="#2e3436" stroke-width="1.5" points="158.5,-163 158.5,-175 "/>
<path fill="none" stroke="#2e3436" stroke-width="1.5" d="M158.5,-175C158.5,-181 152.5,-187 146.5,-187"/>
<polyline fill="none" stroke="#2e3436" stroke-width="1.5" points="146.5,-187 107.5,-187 "/>
<path fill="none" stroke="#2e3436" stroke-width="1.5" d="M107.5,-187C101.5,-187 95.5,-181 95.5,-175"/>
<polyline fill="none" stroke="#2e3436" stroke-width="1.5" points="95.5,-175 95.5,-163 "/>
<path fill="none" stroke="#2e3436" stroke-width="1.5" d="M95.5,-163C95.5,-157 101.5,-151 107.5,-151"/>
<text text-anchor="middle" x="127" y="-175.8" font-family="FreeSans" font-size="8.00" fill="#1c2021">Node[52]</text>
<polyline fill="none" stroke="#2e3436" stroke-width="1.5" points="95.5,-169 158.5,-169 "/>
<text text-anchor="start" x="103.5" y="-157.8" font-family="FreeSans" font-size="8.00" fill="#1c2021">name = &#39;b&#39;</text>
</g>
<!-- N52&#45;&gt;N51 -->
<g id="edge6" class="edge"><title>N52&#45;&gt;N51</title>
<path fill="none" stroke="#2e3436" stroke-width="2" d="M127,-150.906C127,-124.441 127,-75.0408 127,-44.7812"/>
<polygon fill="#2e3436" stroke="#2e3436" points="127,-37.1577 130.375,-44.6576 127.5,-40.9077 127.5,-44.6577 127,-44.6577 126.5,-44.6577 126.5,-40.9077 123.625,-44.6577 127,-37.1577 127,-37.1577"/>
<text text-anchor="middle" x="149.5" y="-115.8" font-family="FreeSans" font-size="8.00" fill="#2e3436">to</text>
<text text-anchor="start" x="127" y="-105.8" font-family="FreeSans" font-size="8.00" fill="#2e3436">cost = 0.5</text>
</g>
<!-- N53 -->
<g id="node8" class="node"><title>N53</title>
<polygon fill="#ffffff" stroke="#ffffff" stroke-width="1.5" points="196,-207 234,-207 246,-219 246,-231 234,-243 196,-243 184,-231 184,-219 196,-207"/>
<path fill="#ffffff" stroke="#ffffff" stroke-width="1.5" d="M234,-207C240,-207 246,-213 246,-219"/>
<path fill="#ffffff" stroke="#ffffff" stroke-width="1.5" d="M246,-231C246,-237 240,-243 234,-243"/>
<path fill="#ffffff" stroke="#ffffff" stroke-width="1.5" d="M196,-243C190,-243 184,-237 184,-231"/>
<path fill="#ffffff" stroke="#ffffff" stroke-width="1.5" d="M184,-219C184,-213 190,-207 196,-207"/>
<polyline fill="none" stroke="#2e3436" stroke-width="1.5" points="196,-207 234,-207 "/>
<path fill="none" stroke="#2e3436" stroke-width="1.5" d="M234,-207C240,-207 246,-213 246,-219"/>
<polyline fill="none" stroke="#2e3436" stroke-width="1.5" points="246,-219 246,-231 "/>
<path fill="none" stroke="#2e3436" stroke-width="1.5" d="M246,-231C246,-237 240,-243 234,-243"/>
<polyline fill="none" stroke="#2e3436" stroke-width="1.5" points="234,-243 196,-243 "/>
<path fill="none" stroke="#2e3436" stroke-width="1.5" d="M196,-243C190,-243 184,-237 184,-231"/>
<polyline fill="none" stroke="#2e3436" stroke-width="1.5" points="184,-231 184,-219 "/>
<path fill="none" stroke="#2e3436" stroke-width="1.5" d="M184,-219C184,-213 190,-207 196,-207"/>
<text text-anchor="middle" x="215" y="-231.8" font-family="FreeSans" font-size="8.00" fill="#1c2021">Node[53]</text>
<polyline fill="none" stroke="#2e3436" stroke-width="1.5" points="184,-225 246,-225 "/>
<text text-anchor="start" x="192" y="-213.8" font-family="FreeSans" font-size="8.00" fill="#1c2021">name = &#39;c&#39;</text>
</g>
<!-- N53&#45;&gt;N50 -->
<g id="edge8" class="edge"><title>N53&#45;&gt;N50</title>
<path fill="none" stroke="#2e3436" stroke-width="2" d="M217.807,-206.505C220.617,-187.994 224.963,-159.364 228.105,-138.66"/>
<polygon fill="#2e3436" stroke="#2e3436" points="229.245,-131.15 231.456,-139.072 229.177,-134.933 228.614,-138.64 228.119,-138.565 227.625,-138.49 228.188,-134.783 224.783,-138.059 229.245,-131.15 229.245,-131.15"/>
<text text-anchor="middle" x="248.5" y="-171.8" font-family="FreeSans" font-size="8.00" fill="#2e3436">to</text>
<text text-anchor="start" x="226" y="-161.8" font-family="FreeSans" font-size="8.00" fill="#2e3436">cost = 0.5</text>
</g>
<!-- N54 -->
<g id="node10" class="node"><title>N54</title>
<polygon fill="#ffffff" stroke="#ffffff" stroke-width="1.5" points="107.5,-301 146.5,-301 158.5,-313 158.5,-325 146.5,-337 107.5,-337 95.5,-325 95.5,-313 107.5,-301"/>
<path fill="#ffffff" stroke="#ffffff" stroke-width="1.5" d="M146.5,-301C152.5,-301 158.5,-307 158.5,-313"/>
<path fill="#ffffff" stroke="#ffffff" stroke-width="1.5" d="M158.5,-325C158.5,-331 152.5,-337 146.5,-337"/>
<path fill="#ffffff" stroke="#ffffff" stroke-width="1.5" d="M107.5,-337C101.5,-337 95.5,-331 95.5,-325"/>
<path fill="#ffffff" stroke="#ffffff" stroke-width="1.5" d="M95.5,-313C95.5,-307 101.5,-301 107.5,-301"/>
<polyline fill="none" stroke="#2e3436" stroke-width="1.5" points="107.5,-301 146.5,-301 "/>
<path fill="none" stroke="#2e3436" stroke-width="1.5" d="M146.5,-301C152.5,-301 158.5,-307 158.5,-313"/>
<polyline fill="none" stroke="#2e3436" stroke-width="1.5" points="158.5,-313 158.5,-325 "/>
<path fill="none" stroke="#2e3436" stroke-width="1.5" d="M158.5,-325C158.5,-331 152.5,-337 146.5,-337"/>
<polyline fill="none" stroke="#2e3436" stroke-width="1.5" points="146.5,-337 107.5,-337 "/>
<path fill="none" stroke="#2e3436" stroke-width="1.5" d="M107.5,-337C101.5,-337 95.5,-331 95.5,-325"/>
<polyline fill="none" stroke="#2e3436" stroke-width="1.5" points="95.5,-325 95.5,-313 "/>
<path fill="none" stroke="#2e3436" stroke-width="1.5" d="M95.5,-313C95.5,-307 101.5,-301 107.5,-301"/>
<text text-anchor="middle" x="127" y="-325.8" font-family="FreeSans" font-size="8.00" fill="#1c2021">Node[54]</text>
<polyline fill="none" stroke="#2e3436" stroke-width="1.5" points="95.5,-319 158.5,-319 "/>
<text text-anchor="start" x="103.5" y="-307.8" font-family="FreeSans" font-size="8.00" fill="#1c2021">name = &#39;a&#39;</text>
</g>
<!-- N54&#45;&gt;N49 -->
<g id="edge14" class="edge"><title>N54&#45;&gt;N49</title>
<path fill="none" stroke="#2e3436" stroke-width="2" d="M95.4121,-302.578C86.9168,-296.969 78.3381,-290.046 72,-282 51.5484,-256.038 40.347,-219.11 34.7655,-194.622"/>
<polygon fill="#2e3436" stroke="#2e3436" points="33.1463,-187.138 38.0311,-193.755 34.428,-190.698 35.2211,-194.363 34.7324,-194.469 34.2437,-194.574 33.4506,-190.909 31.4337,-195.182 33.1463,-187.138 33.1463,-187.138"/>
<text text-anchor="middle" x="94.5" y="-274.8" font-family="FreeSans" font-size="8.00" fill="#2e3436">to</text>
<text text-anchor="start" x="72" y="-264.8" font-family="FreeSans" font-size="8.00" fill="#2e3436">cost = 0.5</text>
</g>
<!-- N54&#45;&gt;N52 -->
<g id="edge10" class="edge"><title>N54&#45;&gt;N52</title>
<path fill="none" stroke="#2e3436" stroke-width="2" d="M125.242,-300.951C124.735,-294.93 124.25,-288.182 124,-282 122.786,-252.005 124.094,-217.511 125.343,-194.603"/>
<polygon fill="#2e3436" stroke="#2e3436" points="125.779,-187.01 128.719,-194.691 126.063,-190.783 125.848,-194.527 125.349,-194.498 124.85,-194.469 125.065,-190.726 121.98,-194.305 125.779,-187.01 125.779,-187.01"/>
<text text-anchor="middle" x="146.5" y="-274.8" font-family="FreeSans" font-size="8.00" fill="#2e3436">to</text>
<text text-anchor="start" x="124" y="-264.8" font-family="FreeSans" font-size="8.00" fill="#2e3436">cost = 1.5</text>
</g>
<!-- N54&#45;&gt;N53 -->
<g id="edge12" class="edge"><title>N54&#45;&gt;N53</title>
<path fill="none" stroke="#2e3436" stroke-width="2" d="M154.243,-300.878C161.71,-295.279 169.524,-288.786 176,-282 185.235,-272.323 193.828,-260.255 200.584,-249.718"/>
<polygon fill="#2e3436" stroke="#2e3436" points="204.747,-243.055 203.635,-251.204 203.184,-246.501 201.197,-249.681 200.773,-249.416 200.349,-249.151 202.336,-245.971 197.911,-247.628 204.747,-243.055 204.747,-243.055"/>
<text text-anchor="middle" x="213.5" y="-274.8" font-family="FreeSans" font-size="8.00" fill="#2e3436">to</text>
<text text-anchor="start" x="191" y="-264.8" font-family="FreeSans" font-size="8.00" fill="#2e3436">cost = 0.5</text>
</g>
</g>
</svg>
