<?xml version="1.0" encoding="UTF-8" standalone="no"?>
<!DOCTYPE svg PUBLIC "-//W3C//DTD SVG 1.1//EN"
 "http://www.w3.org/Graphics/SVG/1.1/DTD/svg11.dtd">
<!-- Generated by graphviz version 2.26.3 (20100126.1600)
 -->
<!-- Title: g Pages: 1 -->
<svg width="504pt" height="41pt"
 viewBox="0.00 0.00 504.00 41.40" xmlns="http://www.w3.org/2000/svg" xmlns:xlink="http://www.w3.org/1999/xlink">
<g id="graph1" class="graph" transform="scale(0.9 0.9) rotate(0) translate(4 42)">
<title>g</title>
<polygon fill="white" stroke="white" points="-4,5 -4,-42 557,-42 557,5 -4,5"/>
<!-- N0 -->
<g id="node1" class="node"><title>N0</title>
<polygon fill="#ffffff" stroke="#ffffff" stroke-width="1.5" points="12,-1 42,-1 54,-13 54,-25 42,-37 12,-37 0,-25 0,-13 12,-1"/>
<path fill="#ffffff" stroke="#ffffff" stroke-width="1.5" d="M42,-1C48,-1 54,-7 54,-13"/>
<path fill="#ffffff" stroke="#ffffff" stroke-width="1.5" d="M54,-25C54,-31 48,-37 42,-37"/>
<path fill="#ffffff" stroke="#ffffff" stroke-width="1.5" d="M12,-37C6,-37 0,-31 0,-25"/>
<path fill="#ffffff" stroke="#ffffff" stroke-width="1.5" d="M0,-13C0,-7 6,-1 12,-1"/>
<polyline fill="none" stroke="#2e3436" stroke-width="1.5" points="12,-1 42,-1 "/>
<path fill="none" stroke="#2e3436" stroke-width="1.5" d="M42,-1C48,-1 54,-7 54,-13"/>
<polyline fill="none" stroke="#2e3436" stroke-width="1.5" points="54,-13 54,-25 "/>
<path fill="none" stroke="#2e3436" stroke-width="1.5" d="M54,-25C54,-31 48,-37 42,-37"/>
<polyline fill="none" stroke="#2e3436" stroke-width="1.5" points="42,-37 12,-37 "/>
<path fill="none" stroke="#2e3436" stroke-width="1.5" d="M12,-37C6,-37 0,-31 0,-25"/>
<polyline fill="none" stroke="#2e3436" stroke-width="1.5" points="0,-25 0,-13 "/>
<path fill="none" stroke="#2e3436" stroke-width="1.5" d="M0,-13C0,-7 6,-1 12,-1"/>
<text text-anchor="middle" x="27" y="-25.8" font-family="FreeSans" font-size="8.00" fill="#1c2021">Node[0]</text>
<polyline fill="none" stroke="#2e3436" stroke-width="1.5" points="0,-19 54,-19 "/>
<text text-anchor="middle" x="27" y="-7.8" font-family="FreeSans" font-size="8.00" fill="#1c2021"> </text>
</g>
<!-- N1 -->
<g id="node2" class="node"><title>N1</title>
<polygon fill="#ffffff" stroke="#ffffff" stroke-width="1.5" points="95,-1 125,-1 137,-13 137,-25 125,-37 95,-37 83,-25 83,-13 95,-1"/>
<path fill="#ffffff" stroke="#ffffff" stroke-width="1.5" d="M125,-1C131,-1 137,-7 137,-13"/>
<path fill="#ffffff" stroke="#ffffff" stroke-width="1.5" d="M137,-25C137,-31 131,-37 125,-37"/>
<path fill="#ffffff" stroke="#ffffff" stroke-width="1.5" d="M95,-37C89,-37 83,-31 83,-25"/>
<path fill="#ffffff" stroke="#ffffff" stroke-width="1.5" d="M83,-13C83,-7 89,-1 95,-1"/>
<polyline fill="none" stroke="#2e3436" stroke-width="1.5" points="95,-1 125,-1 "/>
<path fill="none" stroke="#2e3436" stroke-width="1.5" d="M125,-1C131,-1 137,-7 137,-13"/>
<polyline fill="none" stroke="#2e3436" stroke-width="1.5" points="137,-13 137,-25 "/>
<path fill="none" stroke="#2e3436" stroke-width="1.5" d="M137,-25C137,-31 131,-37 125,-37"/>
<polyline fill="none" stroke="#2e3436" stroke-width="1.5" points="125,-37 95,-37 "/>
<path fill="none" stroke="#2e3436" stroke-width="1.5" d="M95,-37C89,-37 83,-31 83,-25"/>
<polyline fill="none" stroke="#2e3436" stroke-width="1.5" points="83,-25 83,-13 "/>
<path fill="none" stroke="#2e3436" stroke-width="1.5" d="M83,-13C83,-7 89,-1 95,-1"/>
<text text-anchor="middle" x="110" y="-25.8" font-family="FreeSans" font-size="8.00" fill="#1c2021">Node[1]</text>
<polyline fill="none" stroke="#2e3436" stroke-width="1.5" points="83,-19 137,-19 "/>
<text text-anchor="middle" x="110" y="-7.8" font-family="FreeSans" font-size="8.00" fill="#1c2021"> </text>
</g>
<!-- N2 -->
<g id="node3" class="node"><title>N2</title>
<polygon fill="#ffffff" stroke="#ffffff" stroke-width="1.5" points="178,-1 208,-1 220,-13 220,-25 208,-37 178,-37 166,-25 166,-13 178,-1"/>
<path fill="#ffffff" stroke="#ffffff" stroke-width="1.5" d="M208,-1C214,-1 220,-7 220,-13"/>
<path fill="#ffffff" stroke="#ffffff" stroke-width="1.5" d="M220,-25C220,-31 214,-37 208,-37"/>
<path fill="#ffffff" stroke="#ffffff" stroke-width="1.5" d="M178,-37C172,-37 166,-31 166,-25"/>
<path fill="#ffffff" stroke="#ffffff" stroke-width="1.5" d="M166,-13C166,-7 172,-1 178,-1"/>
<polyline fill="none" stroke="#2e3436" stroke-width="1.5" points="178,-1 208,-1 "/>
<path fill="none" stroke="#2e3436" stroke-width="1.5" d="M208,-1C214,-1 220,-7 220,-13"/>
<polyline fill="none" stroke="#2e3436" stroke-width="1.5" points="220,-13 220,-25 "/>
<path fill="none" stroke="#2e3436" stroke-width="1.5" d="M220,-25C220,-31 214,-37 208,-37"/>
<polyline fill="none" stroke="#2e3436" stroke-width="1.5" points="208,-37 178,-37 "/>
<path fill="none" stroke="#2e3436" stroke-width="1.5" d="M178,-37C172,-37 166,-31 166,-25"/>
<polyline fill="none" stroke="#2e3436" stroke-width="1.5" points="166,-25 166,-13 "/>
<path fill="none" stroke="#2e3436" stroke-width="1.5" d="M166,-13C166,-7 172,-1 178,-1"/>
<text text-anchor="middle" x="193" y="-25.8" font-family="FreeSans" font-size="8.00" fill="#1c2021">Node[2]</text>
<polyline fill="none" stroke="#2e3436" stroke-width="1.5" points="166,-19 220,-19 "/>
<text text-anchor="middle" x="193" y="-7.8" font-family="FreeSans" font-size="8.00" fill="#1c2021"> </text>
</g>
<!-- N3 -->
<g id="node4" class="node"><title>N3</title>
<polygon fill="#ffffff" stroke="#ffffff" stroke-width="1.5" points="261,-1 291,-1 303,-13 303,-25 291,-37 261,-37 249,-25 249,-13 261,-1"/>
<path fill="#ffffff" stroke="#ffffff" stroke-width="1.5" d="M291,-1C297,-1 303,-7 303,-13"/>
<path fill="#ffffff" stroke="#ffffff" stroke-width="1.5" d="M303,-25C303,-31 297,-37 291,-37"/>
<path fill="#ffffff" stroke="#ffffff" stroke-width="1.5" d="M261,-37C255,-37 249,-31 249,-25"/>
<path fill="#ffffff" stroke="#ffffff" stroke-width="1.5" d="M249,-13C249,-7 255,-1 261,-1"/>
<polyline fill="none" stroke="#2e3436" stroke-width="1.5" points="261,-1 291,-1 "/>
<path fill="none" stroke="#2e3436" stroke-width="1.5" d="M291,-1C297,-1 303,-7 303,-13"/>
<polyline fill="none" stroke="#2e3436" stroke-width="1.5" points="303,-13 303,-25 "/>
<path fill="none" stroke="#2e3436" stroke-width="1.5" d="M303,-25C303,-31 297,-37 291,-37"/>
<polyline fill="none" stroke="#2e3436" stroke-width="1.5" points="291,-37 261,-37 "/>
<path fill="none" stroke="#2e3436" stroke-width="1.5" d="M261,-37C255,-37 249,-31 249,-25"/>
<polyline fill="none" stroke="#2e3436" stroke-width="1.5" points="249,-25 249,-13 "/>
<path fill="none" stroke="#2e3436" stroke-width="1.5" d="M249,-13C249,-7 255,-1 261,-1"/>
<text text-anchor="middle" x="276" y="-25.8" font-family="FreeSans" font-size="8.00" fill="#1c2021">Node[3]</text>
<polyline fill="none" stroke="#2e3436" stroke-width="1.5" points="249,-19 303,-19 "/>
<text text-anchor="middle" x="276" y="-7.8" font-family="FreeSans" font-size="8.00" fill="#1c2021"> </text>
</g>
<!-- N4 -->
<g id="node5" class="node"><title>N4</title>
<polygon fill="#ffffff" stroke="#ffffff" stroke-width="1.5" points="344,-1 374,-1 386,-13 386,-25 374,-37 344,-37 332,-25 332,-13 344,-1"/>
<path fill="#ffffff" stroke="#ffffff" stroke-width="1.5" d="M374,-1C380,-1 386,-7 386,-13"/>
<path fill="#ffffff" stroke="#ffffff" stroke-width="1.5" d="M386,-25C386,-31 380,-37 374,-37"/>
<path fill="#ffffff" stroke="#ffffff" stroke-width="1.5" d="M344,-37C338,-37 332,-31 332,-25"/>
<path fill="#ffffff" stroke="#ffffff" stroke-width="1.5" d="M332,-13C332,-7 338,-1 344,-1"/>
<polyline fill="none" stroke="#2e3436" stroke-width="1.5" points="344,-1 374,-1 "/>
<path fill="none" stroke="#2e3436" stroke-width="1.5" d="M374,-1C380,-1 386,-7 386,-13"/>
<polyline fill="none" stroke="#2e3436" stroke-width="1.5" points="386,-13 386,-25 "/>
<path fill="none" stroke="#2e3436" stroke-width="1.5" d="M386,-25C386,-31 380,-37 374,-37"/>
<polyline fill="none" stroke="#2e3436" stroke-width="1.5" points="374,-37 344,-37 "/>
<path fill="none" stroke="#2e3436" stroke-width="1.5" d="M344,-37C338,-37 332,-31 332,-25"/>
<polyline fill="none" stroke="#2e3436" stroke-width="1.5" points="332,-25 332,-13 "/>
<path fill="none" stroke="#2e3436" stroke-width="1.5" d="M332,-13C332,-7 338,-1 344,-1"/>
<text text-anchor="middle" x="359" y="-25.8" font-family="FreeSans" font-size="8.00" fill="#1c2021">Node[4]</text>
<polyline fill="none" stroke="#2e3436" stroke-width="1.5" points="332,-19 386,-19 "/>
<text text-anchor="middle" x="359" y="-7.8" font-family="FreeSans" font-size="8.00" fill="#1c2021"> </text>
</g>
<!-- N5 -->
<g id="node6" class="node"><title>N5</title>
<polygon fill="#ffffff" stroke="#ffffff" stroke-width="1.5" points="427,-1 457,-1 469,-13 469,-25 457,-37 427,-37 415,-25 415,-13 427,-1"/>
<path fill="#ffffff" stroke="#ffffff" stroke-width="1.5" d="M457,-1C463,-1 469,-7 469,-13"/>
<path fill="#ffffff" stroke="#ffffff" stroke-width="1.5" d="M469,-25C469,-31 463,-37 457,-37"/>
<path fill="#ffffff" stroke="#ffffff" stroke-width="1.5" d="M427,-37C421,-37 415,-31 415,-25"/>
<path fill="#ffffff" stroke="#ffffff" stroke-width="1.5" d="M415,-13C415,-7 421,-1 427,-1"/>
<polyline fill="none" stroke="#2e3436" stroke-width="1.5" points="427,-1 457,-1 "/>
<path fill="none" stroke="#2e3436" stroke-width="1.5" d="M457,-1C463,-1 469,-7 469,-13"/>
<polyline fill="none" stroke="#2e3436" stroke-width="1.5" points="469,-13 469,-25 "/>
<path fill="none" stroke="#2e3436" stroke-width="1.5" d="M469,-25C469,-31 463,-37 457,-37"/>
<polyline fill="none" stroke="#2e3436" stroke-width="1.5" points="457,-37 427,-37 "/>
<path fill="none" stroke="#2e3436" stroke-width="1.5" d="M427,-37C421,-37 415,-31 415,-25"/>
<polyline fill="none" stroke="#2e3436" stroke-width="1.5" points="415,-25 415,-13 "/>
<path fill="none" stroke="#2e3436" stroke-width="1.5" d="M415,-13C415,-7 421,-1 427,-1"/>
<text text-anchor="middle" x="442" y="-25.8" font-family="FreeSans" font-size="8.00" fill="#1c2021">Node[5]</text>
<polyline fill="none" stroke="#2e3436" stroke-width="1.5" points="415,-19 469,-19 "/>
<text text-anchor="middle" x="442" y="-7.8" font-family="FreeSans" font-size="8.00" fill="#1c2021"> </text>
</g>
<!-- N6 -->
<g id="node7" class="node"><title>N6</title>
<polygon fill="#ffffff" stroke="#ffffff" stroke-width="1.5" points="510,-1 540,-1 552,-13 552,-25 540,-37 510,-37 498,-25 498,-13 510,-1"/>
<path fill="#ffffff" stroke="#ffffff" stroke-width="1.5" d="M540,-1C546,-1 552,-7 552,-13"/>
<path fill="#ffffff" stroke="#ffffff" stroke-width="1.5" d="M552,-25C552,-31 546,-37 540,-37"/>
<path fill="#ffffff" stroke="#ffffff" stroke-width="1.5" d="M510,-37C504,-37 498,-31 498,-25"/>
<path fill="#ffffff" stroke="#ffffff" stroke-width="1.5" d="M498,-13C498,-7 504,-1 510,-1"/>
<polyline fill="none" stroke="#2e3436" stroke-width="1.5" points="510,-1 540,-1 "/>
<path fill="none" stroke="#2e3436" stroke-width="1.5" d="M540,-1C546,-1 552,-7 552,-13"/>
<polyline fill="none" stroke="#2e3436" stroke-width="1.5" points="552,-13 552,-25 "/>
<path fill="none" stroke="#2e3436" stroke-width="1.5" d="M552,-25C552,-31 546,-37 540,-37"/>
<polyline fill="none" stroke="#2e3436" stroke-width="1.5" points="540,-37 510,-37 "/>
<path fill="none" stroke="#2e3436" stroke-width="1.5" d="M510,-37C504,-37 498,-31 498,-25"/>
<polyline fill="none" stroke="#2e3436" stroke-width="1.5" points="498,-25 498,-13 "/>
<path fill="none" stroke="#2e3436" stroke-width="1.5" d="M498,-13C498,-7 504,-1 510,-1"/>
<text text-anchor="middle" x="525" y="-25.8" font-family="FreeSans" font-size="8.00" fill="#1c2021">Node[6]</text>
<polyline fill="none" stroke="#2e3436" stroke-width="1.5" points="498,-19 552,-19 "/>
<text text-anchor="middle" x="525" y="-7.8" font-family="FreeSans" font-size="8.00" fill="#1c2021"> </text>
</g>
</g>
</svg>
